{
.appVersion = "1352";
DisplayStrings = (
"HHOOHEHHOHO\012HOHHH/Upsilondieresis HHOHH\012HHOOHHOOHH/space",
"nn/o-cy nuonnuxnnvnonnon\012oonunou/omegatonos nnnononn\012nnnnonononno\012/space",
"HHOHHHHOHOOHH\012hohhohhhohh\012hhohh/iotadieresistonos.sc hhoohohh\012hohoohohoohh/space",
"/dcaron l",
"/zhe-cy.sc/che-cy/caron.alt/tcaron lltll7/U-cy",
"(/Iotatonos )/space (/Iotadieresis )/space (/Upsilontonos )/space (/Upsilondieresis )/space (/Omicrontonos )/space (/Omegatonos )/space (/Alphatonos )/space (/Epsilontonos )/space (/Etatonos )\012\012\012[/Iotatonos ]/space [/Iotadieresis ]/space [/Upsilontonos ]/space [/Upsilondieresis ]/space [/Omicrontonos ]/space [/Omegatonos ]/space [/Alphatonos ]/space [/Epsilontonos ]/space [/Etatonos ]\012\012{/Iotatonos }/space {/Iotadieresis }/space {/Upsilontonos }/space {/Upsilondieresis }/space {/Omicrontonos }/space {/Omegatonos }/space {/Alphatonos }/space {/Epsilontonos }/space {/Etatonos",
"/De-cy.loclRUS/El-cy.loclRUS/Lje-cy.loclRUS",
"/el-cy.loclRUS.sc",
Hamburgefonvstiv,
"/hardsign-cy.loclRUS",
"/hardsign-cy.sc",
"/Ii-cy/Ii-cy/Ii-cy/Ii-cy/Ii-cy/Ii-cy",
"/n.sc/n.sc/n.sc/n.sc/n.sc/n.sc",
"9",

glyphs = (
{
glyphname = A;
lastChange = "2022-11-08 22:11:58 +0000";
layers = (
{
anchors = (
{
name = bottom;
position = "{259, 0}";
},
{
name = ogonek;
position = "{503, 10}";
},
{
name = top;
position = "{254, 655}";
},
{
name = topleft;
position = "{153, 655}";
}
);
layerId = "AC740033-F94D-4FA6-A763-4DA6F9230F00";
paths = (
{
closed = 1;
nodes = (
"24 0 LINE SMOOTH",
"26 0 OFFCURVE",
"27 0 OFFCURVE",
"28 2 CURVE SMOOTH",
"220 538 LINE SMOOTH",
"232 572 OFFCURVE",
"242 606 OFFCURVE",
"253 640 CURVE",
"254 640 LINE",
"265 607 OFFCURVE",
"274 574 OFFCURVE",
"285 541 CURVE SMOOTH",
"478 2 LINE SMOOTH",
"479 0 OFFCURVE",
"480 0 OFFCURVE",
"482 0 CURVE SMOOTH",
"492 0 LINE SMOOTH",
"494 0 OFFCURVE",
"496 1 OFFCURVE",
"495 3 CURVE SMOOTH",
"266 653 LINE SMOOTH",
"265 655 OFFCURVE",
"264 655 OFFCURVE",
"262 655 CURVE SMOOTH",
"245 655 LINE SMOOTH",
"243 655 OFFCURVE",
"242 655 OFFCURVE",
"241 653 CURVE SMOOTH",
"11 3 LINE SMOOTH",
"10 1 OFFCURVE",
"12 0 OFFCURVE",
"14 0 CURVE SMOOTH"
);
},
{
closed = 1;
nodes = (
"416 191 LINE",
"410 207 LINE",
"95 207 LINE",
"88 191 LINE"
);
}
);
width = 506;
},
{
anchors = (
{
name = bottom;
position = "{268, 0}";
},
{
name = ogonek;
position = "{535, 10}";
},
{
name = top;
position = "{266, 655}";
},
{
name = topleft;
position = "{158, 655}";
}
);
layerId = "2868C049-E6E5-4053-858B-0FFDC5626279";
paths = (
{
closed = 1;
nodes = (
"74 0 LINE SMOOTH",
"79 0 OFFCURVE",
"83 3 OFFCURVE",
"85 7 CURVE SMOOTH",
"228 463 LINE SMOOTH",
"240 502 OFFCURVE",
"252 541 OFFCURVE",
"264 580 CURVE",
"265 580 LINE",
"277 541 OFFCURVE",
"289 501 OFFCURVE",
"301 461 CURVE SMOOTH",
"445 7 LINE SMOOTH",
"447 3 OFFCURVE",
"451 0 OFFCURVE",
"456 0 CURVE SMOOTH",
"524 0 LINE SMOOTH",
"530 0 OFFCURVE",
"533 4 OFFCURVE",
"531 10 CURVE SMOOTH",
"319 648 LINE SMOOTH",
"317 653 OFFCURVE",
"313 655 OFFCURVE",
"308 655 CURVE SMOOTH",
"223 655 LINE SMOOTH",
"219 655 OFFCURVE",
"214 652 OFFCURVE",
"212 648 CURVE SMOOTH",
"2 10 LINE SMOOTH",
"0 4 OFFCURVE",
"3 0 OFFCURVE",
"10 0 CURVE SMOOTH"
);
},
{
closed = 1;
nodes = (
"412 156 LINE",
"393 226 LINE",
"136 226 LINE",
"117 156 LINE"
);
}
);
width = 534;
},
{
anchors = (
{
name = bottom;
position = "{307, 0}";
},
{
name = ogonek;
position = "{608, 10}";
},
{
name = top;
position = "{307, 655}";
},
{
name = topleft;
position = "{145, 655}";
}
);
layerId = "C3548BD9-1E85-4E1D-92F7-AFAA54E0B7ED";
paths = (
{
closed = 1;
nodes = (
"175 0 LINE SMOOTH",
"184 0 OFFCURVE",
"190 4 OFFCURVE",
"192 13 CURVE SMOOTH",
"273 354 LINE SMOOTH",
"285 404 OFFCURVE",
"296 453 OFFCURVE",
"304 502 CURVE",
"307 502 LINE",
"316 453 OFFCURVE",
"326 404 OFFCURVE",
"338 355 CURVE SMOOTH",
"422 12 LINE SMOOTH",
"424 5 OFFCURVE",
"429 0 OFFCURVE",
"437 0 CURVE SMOOTH",
"605 0 LINE SMOOTH",
"615 0 OFFCURVE",
"619 7 OFFCURVE",
"616 17 CURVE SMOOTH",
"421 643 LINE SMOOTH",
"418 652 OFFCURVE",
"411 655 OFFCURVE",
"404 655 CURVE SMOOTH",
"209 655 LINE SMOOTH",
"201 655 OFFCURVE",
"195 652 OFFCURVE",
"192 643 CURVE SMOOTH",
"-3 17 LINE SMOOTH",
"-5 7 OFFCURVE",
"-2 0 OFFCURVE",
"9 0 CURVE SMOOTH"
);
},
{
closed = 1;
nodes = (
"420 109 LINE",
"393 250 LINE",
"215 250 LINE",
"189 109 LINE"
);
}
);
width = 613;
}
);
leftKerningGroup = A;
rightKerningGroup = A;
unicode = 0041;
},
{
glyphname = Aring;
lastChange = "2022-11-08 22:11:58 +0000";
layers = (
{
layerId = "AC740033-F94D-4FA6-A763-4DA6F9230F00";
paths = (
{
closed = 1;
nodes = (
"269 642 LINE",
"311 648 OFFCURVE",
"336 676 OFFCURVE",
"336 720 CURVE SMOOTH",
"336 770 OFFCURVE",
"304 799 OFFCURVE",
"253 799 CURVE SMOOTH",
"202 799 OFFCURVE",
"170 770 OFFCURVE",
"170 720 CURVE SMOOTH",
"170 675 OFFCURVE",
"195 647 OFFCURVE",
"237 642 CURVE",
"11 3 LINE SMOOTH",
"10 1 OFFCURVE",
"12 0 OFFCURVE",
"14 0 CURVE SMOOTH",
"24 0 LINE SMOOTH",
"26 0 OFFCURVE",
"27 0 OFFCURVE",
"28 2 CURVE",
"95 191 LINE",
"411 191 LINE",
"478 2 LINE",
"479 0 OFFCURVE",
"480 0 OFFCURVE",
"482 0 CURVE SMOOTH",
"492 0 LINE SMOOTH",
"494 0 OFFCURVE",
"496 1 OFFCURVE",
"495 3 CURVE"
);
},
{
closed = 1;
nodes = (
"186 758 OFFCURVE",
"206 784 OFFCURVE",
"253 784 CURVE SMOOTH",
"300 784 OFFCURVE",
"320 758 OFFCURVE",
"320 720 CURVE SMOOTH",
"320 682 OFFCURVE",
"300 657 OFFCURVE",
"253 657 CURVE SMOOTH",
"206 657 OFFCURVE",
"186 682 OFFCURVE",
"186 720 CURVE SMOOTH"
);
},
{
closed = 1;
nodes = (
"220 538 LINE SMOOTH",
"232 572 OFFCURVE",
"242 606 OFFCURVE",
"253 640 CURVE",
"254 640 LINE",
"265 607 OFFCURVE",
"274 574 OFFCURVE",
"285 541 CURVE SMOOTH",
"405 207 LINE",
"101 207 LINE"
);
}
);
width = 506;
},
{
layerId = "2868C049-E6E5-4053-858B-0FFDC5626279";
paths = (
{
closed = 1;
nodes = (
"326 625 LINE",
"355 639 OFFCURVE",
"372 666 OFFCURVE",
"372 703 CURVE SMOOTH",
"372 764 OFFCURVE",
"330 797 OFFCURVE",
"267 797 CURVE SMOOTH",
"203 797 OFFCURVE",
"162 763 OFFCURVE",
"162 703 CURVE SMOOTH",
"162 666 OFFCURVE",
"178 640 OFFCURVE",
"205 626 CURVE",
"2 10 LINE SMOOTH",
"0 4 OFFCURVE",
"3 0 OFFCURVE",
"10 0 CURVE SMOOTH",
"74 0 LINE SMOOTH",
"79 0 OFFCURVE",
"83 3 OFFCURVE",
"85 7 CURVE",
"131 156 LINE",
"398 156 LINE",
"445 7 LINE",
"447 3 OFFCURVE",
"451 0 OFFCURVE",
"456 0 CURVE SMOOTH",
"524 0 LINE SMOOTH",
"530 0 OFFCURVE",
"533 4 OFFCURVE",
"531 10 CURVE"
);
},
{
closed = 1;
nodes = (
"217 732 OFFCURVE",
"231 751 OFFCURVE",
"267 751 CURVE SMOOTH",
"303 751 OFFCURVE",
"317 732 OFFCURVE",
"317 703 CURVE SMOOTH",
"317 674 OFFCURVE",
"302 655 OFFCURVE",
"267 655 CURVE SMOOTH",
"231 655 OFFCURVE",
"217 674 OFFCURVE",
"217 703 CURVE SMOOTH"
);
},
{
closed = 1;
nodes = (
"228 463 LINE SMOOTH",
"240 502 OFFCURVE",
"252 542 OFFCURVE",
"264 581 CURVE",
"265 581 LINE",
"277 541 OFFCURVE",
"289 501 OFFCURVE",
"301 461 CURVE SMOOTH",
"377 226 LINE",
"152 226 LINE"
);
}
);
width = 534;
},
{
layerId = "C3548BD9-1E85-4E1D-92F7-AFAA54E0B7ED";
paths = (
{
closed = 1;
nodes = (
"429 614 LINE",
"438 631 OFFCURVE",
"443 651 OFFCURVE",
"443 675 CURVE SMOOTH",
"443 753 OFFCURVE",
"392 797 OFFCURVE",
"307 797 CURVE SMOOTH",
"222 797 OFFCURVE",
"171 753 OFFCURVE",
"171 675 CURVE SMOOTH",
"171 652 OFFCURVE",
"176 632 OFFCURVE",
"184 615 CURVE",
"-3 17 LINE SMOOTH",
"-5 7 OFFCURVE",
"-2 0 OFFCURVE",
"9 0 CURVE SMOOTH",
"175 0 LINE SMOOTH",
"184 0 OFFCURVE",
"190 4 OFFCURVE",
"192 13 CURVE",
"215 109 LINE",
"398 109 LINE",
"422 12 LINE",
"424 5 OFFCURVE",
"429 0 OFFCURVE",
"437 0 CURVE SMOOTH",
"605 0 LINE SMOOTH",
"615 0 OFFCURVE",
"619 7 OFFCURVE",
"616 17 CURVE"
);
},
{
closed = 1;
nodes = (
"274 702 OFFCURVE",
"286 718 OFFCURVE",
"307 718 CURVE SMOOTH",
"328 718 OFFCURVE",
"341 702 OFFCURVE",
"341 673 CURVE SMOOTH",
"341 644 OFFCURVE",
"328 628 OFFCURVE",
"307 628 CURVE SMOOTH",
"286 628 OFFCURVE",
"274 644 OFFCURVE",
"274 673 CURVE SMOOTH"
);
},
{
closed = 1;
nodes = (
"273 354 LINE SMOOTH",
"285 404 OFFCURVE",
"296 457 OFFCURVE",
"304 507 CURVE",
"307 507 LINE",
"316 458 OFFCURVE",
"326 404 OFFCURVE",
"338 355 CURVE SMOOTH",
"364 250 LINE",
"248 250 LINE"
);
}
);
width = 613;
}
);
leftKerningGroup = A;
leftMetricsKey = A;
rightKerningGroup = A;
rightMetricsKey = A;
unicode = 00C5;
},
{
glyphname = AE;
lastChange = "2022-11-09 20:08:32 +0000";
layers = (
{
anchors = (
{
name = bottom;
position = "{406, 0}";
},
{
name = top;
position = "{515, 655}";
}
);
layerId = "AC740033-F94D-4FA6-A763-4DA6F9230F00";
paths = (
{
closed = 1;
nodes = (
"24 0 LINE SMOOTH",
"26 0 OFFCURVE",
"27 0 OFFCURVE",
"28 2 CURVE",
"129 191 LINE",
"369 191 LINE",
"369 3 LINE SMOOTH",
"369 1 OFFCURVE",
"370 0 OFFCURVE",
"372 0 CURVE SMOOTH",
"697 0 LINE SMOOTH",
"699 0 OFFCURVE",
"700 1 OFFCURVE",
"700 3 CURVE SMOOTH",
"700 13 LINE SMOOTH",
"700 15 OFFCURVE",
"699 16 OFFCURVE",
"697 16 CURVE SMOOTH",
"385 16 LINE",
"385 328 LINE",
"676 328 LINE SMOOTH",
"678 328 OFFCURVE",
"679 329 OFFCURVE",
"679 331 CURVE SMOOTH",
"679 341 LINE SMOOTH",
"679 343 OFFCURVE",
"678 344 OFFCURVE",
"676 344 CURVE SMOOTH",
"385 344 LINE",
"385 639 LINE",
"697 639 LINE SMOOTH",
"699 639 OFFCURVE",
"700 640 OFFCURVE",
"700 642 CURVE SMOOTH",
"700 652 LINE SMOOTH",
"700 654 OFFCURVE",
"699 655 OFFCURVE",
"697 655 CURVE SMOOTH",
"361 655 LINE SMOOTH",
"359 655 OFFCURVE",
"358 655 OFFCURVE",
"357 653 CURVE",
"11 3 LINE",
"10 1 OFFCURVE",
"12 0 OFFCURVE",
"14 0 CURVE SMOOTH"
);
},
{
closed = 1;
nodes = (
"317 544 LINE SMOOTH",
"339 585 OFFCURVE",
"353 611 OFFCURVE",
"368 639 CURVE",
"369 639 LINE",
"369 609 OFFCURVE",
"369 580 OFFCURVE",
"369 550 CURVE SMOOTH",
"369 207 LINE",
"137 207 LINE"
);
}
);
width = 785;
},
{
anchors = (
{
name = bottom;
position = "{402, 0}";
},
{
name = top;
position = "{529, 655}";
}
);
layerId = "2868C049-E6E5-4053-858B-0FFDC5626279";
paths = (
{
closed = 1;
nodes = (
"75 0 LINE SMOOTH",
"80 0 OFFCURVE",
"84 2 OFFCURVE",
"86 7 CURVE",
"157 156 LINE",
"364 156 LINE",
"364 9 LINE SMOOTH",
"364 4 OFFCURVE",
"367 0 OFFCURVE",
"373 0 CURVE SMOOTH",
"714 0 LINE SMOOTH",
"720 0 OFFCURVE",
"723 4 OFFCURVE",
"723 9 CURVE SMOOTH",
"723 64 LINE SMOOTH",
"723 69 OFFCURVE",
"720 73 OFFCURVE",
"714 73 CURVE SMOOTH",
"444 73 LINE",
"444 298 LINE",
"692 298 LINE SMOOTH",
"697 298 OFFCURVE",
"701 302 OFFCURVE",
"701 307 CURVE SMOOTH",
"701 359 LINE SMOOTH",
"701 365 OFFCURVE",
"697 368 OFFCURVE",
"692 368 CURVE SMOOTH",
"444 368 LINE",
"444 582 LINE",
"714 582 LINE SMOOTH",
"720 582 OFFCURVE",
"723 586 OFFCURVE",
"723 591 CURVE SMOOTH",
"723 646 LINE SMOOTH",
"723 651 OFFCURVE",
"720 655 OFFCURVE",
"714 655 CURVE SMOOTH",
"321 655 LINE SMOOTH",
"317 655 OFFCURVE",
"313 653 OFFCURVE",
"311 648 CURVE",
"2 11 LINE",
"-1 4 OFFCURVE",
"2 0 OFFCURVE",
"9 0 CURVE SMOOTH"
);
},
{
closed = 1;
nodes = (
"322 502 LINE SMOOTH",
"337 535 OFFCURVE",
"350 565 OFFCURVE",
"363 595 CURVE",
"365 595 LINE",
"364 556 OFFCURVE",
"364 533 OFFCURVE",
"364 501 CURVE SMOOTH",
"364 226 LINE",
"189 226 LINE"
);
}
);
width = 792;
},
{
anchors = (
{
name = bottom;
position = "{412, 0}";
},
{
name = top;
position = "{522, 655}";
}
);
layerId = "C3548BD9-1E85-4E1D-92F7-AFAA54E0B7ED";
paths = (
{
closed = 1;
nodes = (
"179 0 LINE SMOOTH",
"186 0 OFFCURVE",
"192 3 OFFCURVE",
"195 12 CURVE",
"226 109 LINE",
"358 109 LINE",
"358 15 LINE SMOOTH",
"358 6 OFFCURVE",
"364 0 OFFCURVE",
"372 0 CURVE SMOOTH",
"783 0 LINE SMOOTH",
"791 0 OFFCURVE",
"797 6 OFFCURVE",
"797 15 CURVE SMOOTH",
"797 142 LINE SMOOTH",
"797 150 OFFCURVE",
"791 156 OFFCURVE",
"783 156 CURVE SMOOTH",
"535 156 LINE",
"535 255 LINE",
"760 255 LINE SMOOTH",
"768 255 OFFCURVE",
"774 261 OFFCURVE",
"774 270 CURVE SMOOTH",
"774 388 LINE SMOOTH",
"774 397 OFFCURVE",
"768 403 OFFCURVE",
"760 403 CURVE SMOOTH",
"535 403 LINE",
"535 499 LINE",
"783 499 LINE SMOOTH",
"791 499 OFFCURVE",
"797 505 OFFCURVE",
"797 513 CURVE SMOOTH",
"797 640 LINE SMOOTH",
"797 649 OFFCURVE",
"791 655 OFFCURVE",
"783 655 CURVE SMOOTH",
"241 655 LINE SMOOTH",
"233 655 OFFCURVE",
"227 652 OFFCURVE",
"225 643 CURVE",
"-3 17 LINE",
"-6 6 OFFCURVE",
"-2 0 OFFCURVE",
"9 0 CURVE SMOOTH"
);
},
{
closed = 1;
nodes = (
"316 386 LINE SMOOTH",
"330 432 OFFCURVE",
"343 476 OFFCURVE",
"356 524 CURVE",
"358 524 LINE",
"358 478 OFFCURVE",
"358 435 OFFCURVE",
"358 389 CURVE SMOOTH",
"358 250 LINE",
"271 250 LINE"
);
}
);
width = 836;
}
);
leftKerningGroup = AE;
leftMetricsKey = A;
rightKerningGroup = E;
rightMetricsKey = E;
unicode = 00C6;
},
{
glyphname = B;
lastChange = "2022-11-08 22:11:58 +0000";
layers = (
{
anchors = (
{
name = bottom;
position = "{271, 0}";
},
{
name = top;
position = "{271, 655}";
}
);
layerId = "AC740033-F94D-4FA6-A763-4DA6F9230F00";
paths = (
{
closed = 1;
nodes = (
"261 0 LINE SMOOTH",
"417 0 OFFCURVE",
"481 57 OFFCURVE",
"481 182 CURVE SMOOTH",
"481 274 OFFCURVE",
"425 325 OFFCURVE",
"338 339 CURVE",
"338 340 LINE",
"413 359 OFFCURVE",
"452 416 OFFCURVE",
"452 496 CURVE SMOOTH",
"452 603 OFFCURVE",
"388 655 OFFCURVE",
"258 655 CURVE SMOOTH",
"102 655 LINE SMOOTH",
"100 655 OFFCURVE",
"99 654 OFFCURVE",
"99 652 CURVE SMOOTH",
"99 3 LINE SMOOTH",
"99 1 OFFCURVE",
"100 0 OFFCURVE",
"102 0 CURVE SMOOTH"
);
},
{
closed = 1;
nodes = (
"115 330 LINE",
"287 330 LINE SMOOTH",
"393 330 OFFCURVE",
"465 278 OFFCURVE",
"465 182 CURVE SMOOTH",
"465 67 OFFCURVE",
"405 16 OFFCURVE",
"260 16 CURVE SMOOTH",
"115 16 LINE"
);
},
{
closed = 1;
nodes = (
"115 639 LINE",
"256 639 LINE SMOOTH",
"377 639 OFFCURVE",
"436 593 OFFCURVE",
"436 495 CURVE SMOOTH",
"436 407 OFFCURVE",
"378 346 OFFCURVE",
"288 346 CURVE SMOOTH",
"115 346 LINE"
);
}
);
width = 542;
},
{
anchors = (
{
name = bottom;
position = "{273, 0}";
},
{
name = top;
position = "{273, 655}";
}
);
layerId = "2868C049-E6E5-4053-858B-0FFDC5626279";
paths = (
{
closed = 1;
nodes = (
"262 0 LINE SMOOTH",
"428 0 OFFCURVE",
"503 58 OFFCURVE",
"503 181 CURVE SMOOTH",
"503 272 OFFCURVE",
"457 328 OFFCURVE",
"369 345 CURVE",
"369 347 LINE",
"443 375 OFFCURVE",
"476 419 OFFCURVE",
"476 492 CURVE SMOOTH",
"476 601 OFFCURVE",
"405 655 OFFCURVE",
"259 655 CURVE SMOOTH",
"90 655 LINE SMOOTH",
"84 655 OFFCURVE",
"81 651 OFFCURVE",
"81 646 CURVE SMOOTH",
"81 9 LINE SMOOTH",
"81 4 OFFCURVE",
"84 0 OFFCURVE",
"90 0 CURVE SMOOTH"
);
},
{
closed = 1;
nodes = (
"161 306 LINE",
"267 306 LINE SMOOTH",
"373 306 OFFCURVE",
"423 269 OFFCURVE",
"423 187 CURVE SMOOTH",
"423 105 OFFCURVE",
"376 70 OFFCURVE",
"261 70 CURVE SMOOTH",
"161 70 LINE"
);
},
{
closed = 1;
nodes = (
"161 586 LINE",
"250 586 LINE SMOOTH",
"354 586 OFFCURVE",
"396 556 OFFCURVE",
"396 481 CURVE SMOOTH",
"396 407 OFFCURVE",
"352 371 OFFCURVE",
"261 371 CURVE SMOOTH",
"161 371 LINE"
);
}
);
width = 547;
},
{
anchors = (
{
name = bottom;
position = "{286, 0}";
},
{
name = top;
position = "{287, 655}";
}
);
layerId = "C3548BD9-1E85-4E1D-92F7-AFAA54E0B7ED";
paths = (
{
closed = 1;
nodes = (
"289 0 LINE SMOOTH",
"485 0 OFFCURVE",
"565 56 OFFCURVE",
"565 198 CURVE SMOOTH",
"565 282 OFFCURVE",
"517 327 OFFCURVE",
"438 343 CURVE",
"438 347 LINE",
"505 370 OFFCURVE",
"538 415 OFFCURVE",
"538 495 CURVE SMOOTH",
"538 602 OFFCURVE",
"454 655 OFFCURVE",
"291 655 CURVE SMOOTH",
"64 655 LINE SMOOTH",
"55 655 OFFCURVE",
"49 649 OFFCURVE",
"49 640 CURVE SMOOTH",
"49 15 LINE SMOOTH",
"49 6 OFFCURVE",
"55 0 OFFCURVE",
"64 0 CURVE SMOOTH"
);
},
{
closed = 1;
nodes = (
"230 265 LINE",
"296 265 LINE SMOOTH",
"357 265 OFFCURVE",
"385 246 OFFCURVE",
"385 208 CURVE SMOOTH",
"385 163 OFFCURVE",
"358 145 OFFCURVE",
"298 145 CURVE SMOOTH",
"230 145 LINE"
);
},
{
closed = 1;
nodes = (
"230 510 LINE",
"284 510 LINE SMOOTH",
"333 510 OFFCURVE",
"358 490 OFFCURVE",
"358 455 CURVE SMOOTH",
"358 416 OFFCURVE",
"336 394 OFFCURVE",
"289 394 CURVE SMOOTH",
"230 394 LINE"
);
}
);
width = 591;
}
);
leftKerningGroup = H;
leftMetricsKey = H;
rightKerningGroup = B;
unicode = 0042;
},
{
glyphname = C;
lastChange = "2022-11-08 22:11:58 +0000";
layers = (
{
anchors = (
{
name = bottom;
position = "{299, 0}";
},
{
name = top;
position = "{299, 655}";
}
);
layerId = "AC740033-F94D-4FA6-A763-4DA6F9230F00";
paths = (
{
closed = 1;
nodes = (
"445 -11 OFFCURVE",
"520 61 OFFCURVE",
"516 196 CURVE SMOOTH",
"516 198 OFFCURVE",
"515 199 OFFCURVE",
"513 199 CURVE SMOOTH",
"503 199 LINE SMOOTH",
"501 199 OFFCURVE",
"500 198 OFFCURVE",
"500 196 CURVE SMOOTH",
"501 67 OFFCURVE",
"433 5 OFFCURVE",
"301 5 CURVE SMOOTH",
"171 5 OFFCURVE",
"99 76 OFFCURVE",
"99 200 CURVE SMOOTH",
"99 455 LINE SMOOTH",
"99 580 OFFCURVE",
"171 650 OFFCURVE",
"301 650 CURVE SMOOTH",
"429 650 OFFCURVE",
"509 584 OFFCURVE",
"500 459 CURVE SMOOTH",
"500 457 OFFCURVE",
"501 456 OFFCURVE",
"503 456 CURVE SMOOTH",
"513 456 LINE SMOOTH",
"515 456 OFFCURVE",
"516 457 OFFCURVE",
"516 459 CURVE SMOOTH",
"525 592 OFFCURVE",
"441 666 OFFCURVE",
"301 666 CURVE SMOOTH",
"161 666 OFFCURVE",
"83 590 OFFCURVE",
"83 456 CURVE SMOOTH",
"83 199 LINE SMOOTH",
"83 66 OFFCURVE",
"161 -11 OFFCURVE",
"301 -11 CURVE SMOOTH"
);
}
);
width = 595;
},
{
anchors = (
{
name = bottom;
position = "{313, 0}";
},
{
name = top;
position = "{301, 655}";
}
);
layerId = "2868C049-E6E5-4053-858B-0FFDC5626279";
paths = (
{
closed = 1;
nodes = (
"454 -11 OFFCURVE",
"547 74 OFFCURVE",
"536 209 CURVE SMOOTH",
"535 218 OFFCURVE",
"533 222 OFFCURVE",
"525 222 CURVE SMOOTH",
"464 222 LINE SMOOTH",
"458 222 OFFCURVE",
"455 218 OFFCURVE",
"456 212 CURVE SMOOTH",
"464 116 OFFCURVE",
"408 61 OFFCURVE",
"306 61 CURVE SMOOTH",
"204 61 OFFCURVE",
"149 115 OFFCURVE",
"149 219 CURVE SMOOTH",
"149 436 LINE SMOOTH",
"149 540 OFFCURVE",
"204 594 OFFCURVE",
"306 594 CURVE SMOOTH",
"406 594 OFFCURVE",
"461 540 OFFCURVE",
"456 443 CURVE SMOOTH",
"455 437 OFFCURVE",
"458 433 OFFCURVE",
"464 433 CURVE SMOOTH",
"526 433 LINE SMOOTH",
"533 433 OFFCURVE",
"535 439 OFFCURVE",
"536 445 CURVE SMOOTH",
"554 583 OFFCURVE",
"453 666 OFFCURVE",
"305 666 CURVE SMOOTH",
"151 666 OFFCURVE",
"69 584 OFFCURVE",
"69 436 CURVE SMOOTH",
"69 219 LINE SMOOTH",
"69 70 OFFCURVE",
"150 -11 OFFCURVE",
"304 -11 CURVE SMOOTH"
);
}
);
width = 601;
},
{
anchors = (
{
name = bottom;
position = "{340, 0}";
},
{
name = top;
position = "{318, 655}";
}
);
layerId = "C3548BD9-1E85-4E1D-92F7-AFAA54E0B7ED";
paths = (
{
closed = 1;
nodes = (
"510 -11 OFFCURVE",
"611 86 OFFCURVE",
"596 237 CURVE SMOOTH",
"595 246 OFFCURVE",
"591 251 OFFCURVE",
"582 251 CURVE SMOOTH",
"429 251 LINE SMOOTH",
"419 251 OFFCURVE",
"415 245 OFFCURVE",
"415 235 CURVE SMOOTH",
"416 187 OFFCURVE",
"395 145 OFFCURVE",
"320 145 CURVE SMOOTH",
"256 145 OFFCURVE",
"219 178 OFFCURVE",
"219 263 CURVE SMOOTH",
"219 393 LINE SMOOTH",
"219 477 OFFCURVE",
"256 510 OFFCURVE",
"320 510 CURVE SMOOTH",
"390 510 OFFCURVE",
"416 474 OFFCURVE",
"415 420 CURVE SMOOTH",
"415 410 OFFCURVE",
"419 405 OFFCURVE",
"429 405 CURVE SMOOTH",
"582 405 LINE SMOOTH",
"590 405 OFFCURVE",
"595 411 OFFCURVE",
"596 418 CURVE SMOOTH",
"615 567 OFFCURVE",
"512 666 OFFCURVE",
"318 666 CURVE SMOOTH",
"142 666 OFFCURVE",
"38 583 OFFCURVE",
"38 399 CURVE SMOOTH",
"38 254 LINE SMOOTH",
"38 71 OFFCURVE",
"142 -11 OFFCURVE",
"318 -11 CURVE SMOOTH"
);
}
);
width = 635;
}
);
leftKerningGroup = O;
leftMetricsKey = O;
rightKerningGroup = C;
unicode = 0043;
},
{
glyphname = D;
lastChange = "2022-11-08 22:11:58 +0000";
layers = (
{
anchors = (
{
name = bottom;
position = "{257, 0}";
},
{
name = center;
position = "{297, 328}";
},
{
name = top;
position = "{260, 655}";
}
);
layerId = "AC740033-F94D-4FA6-A763-4DA6F9230F00";
paths = (
{
closed = 1;
nodes = (
"254 0 LINE SMOOTH",
"436 0 OFFCURVE",
"525 85 OFFCURVE",
"525 278 CURVE SMOOTH",
"525 376 LINE SMOOTH",
"525 569 OFFCURVE",
"435 655 OFFCURVE",
"253 655 CURVE SMOOTH",
"102 655 LINE SMOOTH",
"100 655 OFFCURVE",
"99 654 OFFCURVE",
"99 652 CURVE SMOOTH",
"99 3 LINE SMOOTH",
"99 1 OFFCURVE",
"100 0 OFFCURVE",
"102 0 CURVE SMOOTH"
);
},
{
closed = 1;
nodes = (
"115 639 LINE",
"253 639 LINE SMOOTH",
"424 639 OFFCURVE",
"509 558 OFFCURVE",
"509 375 CURVE SMOOTH",
"509 279 LINE SMOOTH",
"509 97 OFFCURVE",
"426 16 OFFCURVE",
"254 16 CURVE SMOOTH",
"115 16 LINE"
);
}
);
width = 594;
},
{
anchors = (
{
name = bottom;
position = "{274, 0}";
},
{
name = center;
position = "{285, 329}";
},
{
name = top;
position = "{274, 655}";
}
);
layerId = "2868C049-E6E5-4053-858B-0FFDC5626279";
paths = (
{
closed = 1;
nodes = (
"258 0 LINE SMOOTH",
"452 0 OFFCURVE",
"547 101 OFFCURVE",
"547 309 CURVE SMOOTH",
"547 370 LINE SMOOTH",
"547 562 OFFCURVE",
"451 655 OFFCURVE",
"257 655 CURVE SMOOTH",
"90 655 LINE SMOOTH",
"84 655 OFFCURVE",
"81 651 OFFCURVE",
"81 646 CURVE SMOOTH",
"81 9 LINE SMOOTH",
"81 4 OFFCURVE",
"84 0 OFFCURVE",
"90 0 CURVE SMOOTH"
);
},
{
closed = 1;
nodes = (
"161 586 LINE",
"252 586 LINE SMOOTH",
"399 586 OFFCURVE",
"467 519 OFFCURVE",
"467 375 CURVE SMOOTH",
"467 304 LINE SMOOTH",
"467 143 OFFCURVE",
"399 69 OFFCURVE",
"253 69 CURVE SMOOTH",
"161 69 LINE"
);
}
);
width = 608;
},
{
anchors = (
{
name = bottom;
position = "{288, 0}";
},
{
name = center;
position = "{310, 344}";
},
{
name = top;
position = "{288.003, 655}";
}
);
layerId = "C3548BD9-1E85-4E1D-92F7-AFAA54E0B7ED";
paths = (
{
closed = 1;
nodes = (
"303 0 LINE SMOOTH",
"506 0 OFFCURVE",
"603 99 OFFCURVE",
"603 291 CURVE SMOOTH",
"603 368 LINE SMOOTH",
"603 557 OFFCURVE",
"506 655 OFFCURVE",
"302 655 CURVE SMOOTH",
"64 655 LINE SMOOTH",
"55 655 OFFCURVE",
"49 649 OFFCURVE",
"49 640 CURVE SMOOTH",
"49 15 LINE SMOOTH",
"49 6 OFFCURVE",
"55 0 OFFCURVE",
"64 0 CURVE SMOOTH"
);
},
{
closed = 1;
nodes = (
"230 499 LINE",
"292 499 LINE SMOOTH",
"382 499 OFFCURVE",
"422 448 OFFCURVE",
"422 360 CURVE SMOOTH",
"422 298 LINE SMOOTH",
"422 208 OFFCURVE",
"382 156 OFFCURVE",
"293 156 CURVE SMOOTH",
"230 156 LINE"
);
}
);
width = 636;
}
);
leftKerningGroup = H;
leftMetricsKey = H;
rightKerningGroup = D;
unicode = 0044;
},
{
glyphname = Eth;
lastChange = "2022-11-09 20:08:32 +0000";
layers = (
{
components = (
{
alignment = -1;
name = D;
}
);
layerId = "AC740033-F94D-4FA6-A763-4DA6F9230F00";
paths = (
{
closed = 1;
nodes = (
"299 328 LINE SMOOTH",
"301 328 OFFCURVE",
"302 329 OFFCURVE",
"302 331 CURVE SMOOTH",
"302 341 LINE SMOOTH",
"302 343 OFFCURVE",
"301 344 OFFCURVE",
"299 344 CURVE SMOOTH",
"99 344 LINE",
"12 344 LINE SMOOTH",
"10 344 OFFCURVE",
"9 343 OFFCURVE",
"9 341 CURVE SMOOTH",
"9 331 LINE SMOOTH",
"9 329 OFFCURVE",
"10 328 OFFCURVE",
"12 328 CURVE SMOOTH"
);
}
);
width = 594;
},
{
components = (
{
alignment = -1;
name = D;
transform = "{1, 0, 0, 1, 1, 0}";
}
);
layerId = "2868C049-E6E5-4053-858B-0FFDC5626279";
paths = (
{
closed = 1;
nodes = (
"301 300 LINE SMOOTH",
"306 300 OFFCURVE",
"310 304 OFFCURVE",
"310 309 CURVE SMOOTH",
"310 357 LINE SMOOTH",
"310 362 OFFCURVE",
"306 366 OFFCURVE",
"301 366 CURVE SMOOTH",
"81 366 LINE",
"15 366 LINE SMOOTH",
"9 366 OFFCURVE",
"6 362 OFFCURVE",
"6 357 CURVE SMOOTH",
"6 309 LINE SMOOTH",
"6 304 OFFCURVE",
"9 300 OFFCURVE",
"15 300 CURVE SMOOTH"
);
}
);
width = 609;
},
{
components = (
{
alignment = -1;
name = D;
transform = "{1, 0, 0, 1, 2, 0}";
}
);
layerId = "C3548BD9-1E85-4E1D-92F7-AFAA54E0B7ED";
paths = (
{
closed = 1;
nodes = (
"294 263 LINE SMOOTH",
"302 263 OFFCURVE",
"308 269 OFFCURVE",
"308 278 CURVE SMOOTH",
"308 378 LINE SMOOTH",
"308 387 OFFCURVE",
"302 393 OFFCURVE",
"294 393 CURVE SMOOTH",
"51 393 LINE",
"11 393 LINE SMOOTH",
"2 393 OFFCURVE",
"-3 387 OFFCURVE",
"-3 378 CURVE SMOOTH",
"-3 278 LINE SMOOTH",
"-3 269 OFFCURVE",
"2 263 OFFCURVE",
"11 263 CURVE SMOOTH"
);
}
);
width = 638;
}
);
leftKerningGroup = Eth;
rightKerningGroup = D;
rightMetricsKey = D;
unicode = 00D0;
},
{
glyphname = E;
lastChange = "2022-11-08 22:11:58 +0000";
layers = (
{
anchors = (
{
name = bottom;
position = "{256, 0}";
},
{
name = ogonek;
position = "{409, 10}";
},
{
name = top;
position = "{256, 655}";
},
{
name = topleft;
position = "{23, 655}";
}
);
layerId = "AC740033-F94D-4FA6-A763-4DA6F9230F00";
paths = (
{
closed = 1;
nodes = (
"427 0 LINE SMOOTH",
"429 0 OFFCURVE",
"430 1 OFFCURVE",
"430 3 CURVE SMOOTH",
"430 13 LINE SMOOTH",
"430 15 OFFCURVE",
"429 16 OFFCURVE",
"427 16 CURVE SMOOTH",
"115 16 LINE",
"115 328 LINE",
"406 328 LINE SMOOTH",
"408 328 OFFCURVE",
"409 329 OFFCURVE",
"409 331 CURVE SMOOTH",
"409 341 LINE SMOOTH",
"409 343 OFFCURVE",
"408 344 OFFCURVE",
"406 344 CURVE SMOOTH",
"115 344 LINE",
"115 639 LINE",
"427 639 LINE SMOOTH",
"429 639 OFFCURVE",
"430 640 OFFCURVE",
"430 642 CURVE SMOOTH",
"430 652 LINE SMOOTH",
"430 654 OFFCURVE",
"429 655 OFFCURVE",
"427 655 CURVE SMOOTH",
"102 655 LINE SMOOTH",
"100 655 OFFCURVE",
"99 654 OFFCURVE",
"99 652 CURVE SMOOTH",
"99 3 LINE SMOOTH",
"99 1 OFFCURVE",
"100 0 OFFCURVE",
"102 0 CURVE SMOOTH"
);
}
);
width = 515;
},
{
anchors = (
{
name = bottom;
position = "{265.996, 0}";
},
{
name = ogonek;
position = "{426, 10}";
},
{
name = top;
position = "{264, 655}";
},
{
name = topleft;
position = "{36, 655}";
}
);
layerId = "2868C049-E6E5-4053-858B-0FFDC5626279";
paths = (
{
closed = 1;
nodes = (
"431 0 LINE SMOOTH",
"437 0 OFFCURVE",
"440 4 OFFCURVE",
"440 9 CURVE SMOOTH",
"440 64 LINE SMOOTH",
"440 69 OFFCURVE",
"437 73 OFFCURVE",
"431 73 CURVE SMOOTH",
"161 73 LINE",
"161 298 LINE",
"409 298 LINE SMOOTH",
"414 298 OFFCURVE",
"418 302 OFFCURVE",
"418 307 CURVE SMOOTH",
"418 359 LINE SMOOTH",
"418 365 OFFCURVE",
"414 368 OFFCURVE",
"409 368 CURVE SMOOTH",
"161 368 LINE",
"161 582 LINE",
"431 582 LINE SMOOTH",
"437 582 OFFCURVE",
"440 586 OFFCURVE",
"440 591 CURVE SMOOTH",
"440 646 LINE SMOOTH",
"440 651 OFFCURVE",
"437 655 OFFCURVE",
"431 655 CURVE SMOOTH",
"90 655 LINE SMOOTH",
"84 655 OFFCURVE",
"81 651 OFFCURVE",
"81 646 CURVE SMOOTH",
"81 9 LINE SMOOTH",
"81 4 OFFCURVE",
"84 0 OFFCURVE",
"90 0 CURVE SMOOTH"
);
}
);
width = 509;
},
{
anchors = (
{
name = bottom;
position = "{272, 0}";
},
{
name = ogonek;
position = "{465, 10}";
},
{
name = top;
position = "{263, 655}";
},
{
name = topleft;
position = "{33, 655}";
}
);
layerId = "C3548BD9-1E85-4E1D-92F7-AFAA54E0B7ED";
paths = (
{
closed = 1;
nodes = (
"479 0 LINE SMOOTH",
"487 0 OFFCURVE",
"492 6 OFFCURVE",
"492 15 CURVE SMOOTH",
"492 142 LINE SMOOTH",
"492 150 OFFCURVE",
"487 156 OFFCURVE",
"479 156 CURVE SMOOTH",
"230 156 LINE",
"230 255 LINE",
"456 255 LINE SMOOTH",
"464 255 OFFCURVE",
"469 261 OFFCURVE",
"469 270 CURVE SMOOTH",
"469 388 LINE SMOOTH",
"469 397 OFFCURVE",
"464 403 OFFCURVE",
"456 403 CURVE SMOOTH",
"230 403 LINE",
"230 499 LINE",
"479 499 LINE SMOOTH",
"487 499 OFFCURVE",
"492 505 OFFCURVE",
"492 513 CURVE SMOOTH",
"492 640 LINE SMOOTH",
"492 649 OFFCURVE",
"487 655 OFFCURVE",
"479 655 CURVE SMOOTH",
"64 655 LINE SMOOTH",
"55 655 OFFCURVE",
"49 649 OFFCURVE",
"49 640 CURVE SMOOTH",
"49 15 LINE SMOOTH",
"49 6 OFFCURVE",
"55 0 OFFCURVE",
"64 0 CURVE SMOOTH"
);
}
);
width = 531;
}
);
leftKerningGroup = H;
leftMetricsKey = H;
rightKerningGroup = E;
unicode = 0045;
},
{
glyphname = F;
lastChange = "2022-11-08 22:11:58 +0000";
layers = (
{
anchors = (
{
name = bottom;
position = "{240, 0}";
},
{
name = top;
position = "{240, 655}";
}
);
layerId = "AC740033-F94D-4FA6-A763-4DA6F9230F00";
paths = (
{
closed = 1;
nodes = (
"112 0 LINE SMOOTH",
"114 0 OFFCURVE",
"115 1 OFFCURVE",
"115 3 CURVE SMOOTH",
"115 320 LINE",
"395 320 LINE SMOOTH",
"397 320 OFFCURVE",
"398 321 OFFCURVE",
"398 323 CURVE SMOOTH",
"398 333 LINE SMOOTH",
"398 335 OFFCURVE",
"397 336 OFFCURVE",
"395 336 CURVE SMOOTH",
"115 336 LINE",
"115 639 LINE",
"427 639 LINE SMOOTH",
"429 639 OFFCURVE",
"430 640 OFFCURVE",
"430 642 CURVE SMOOTH",
"430 652 LINE SMOOTH",
"430 654 OFFCURVE",
"429 655 OFFCURVE",
"427 655 CURVE SMOOTH",
"102 655 LINE SMOOTH",
"100 655 OFFCURVE",
"99 654 OFFCURVE",
"99 652 CURVE SMOOTH",
"99 3 LINE SMOOTH",
"99 1 OFFCURVE",
"100 0 OFFCURVE",
"102 0 CURVE SMOOTH"
);
}
);
width = 483;
},
{
anchors = (
{
name = bottom;
position = "{243, 0}";
},
{
name = top;
position = "{243, 655}";
}
);
layerId = "2868C049-E6E5-4053-858B-0FFDC5626279";
paths = (
{
closed = 1;
nodes = (
"152 0 LINE SMOOTH",
"158 0 OFFCURVE",
"161 4 OFFCURVE",
"161 9 CURVE SMOOTH",
"161 288 LINE",
"396 288 LINE SMOOTH",
"401 288 OFFCURVE",
"405 292 OFFCURVE",
"405 297 CURVE SMOOTH",
"405 349 LINE SMOOTH",
"405 355 OFFCURVE",
"401 359 OFFCURVE",
"396 359 CURVE SMOOTH",
"161 359 LINE",
"161 582 LINE",
"431 582 LINE SMOOTH",
"437 582 OFFCURVE",
"440 586 OFFCURVE",
"440 591 CURVE SMOOTH",
"440 646 LINE SMOOTH",
"440 651 OFFCURVE",
"437 655 OFFCURVE",
"431 655 CURVE SMOOTH",
"90 655 LINE SMOOTH",
"84 655 OFFCURVE",
"81 651 OFFCURVE",
"81 646 CURVE SMOOTH",
"81 9 LINE SMOOTH",
"81 4 OFFCURVE",
"84 0 OFFCURVE",
"90 0 CURVE SMOOTH"
);
}
);
width = 483;
},
{
anchors = (
{
name = bottom;
position = "{271, 0}";
},
{
name = top;
position = "{271, 655}";
}
);
layerId = "C3548BD9-1E85-4E1D-92F7-AFAA54E0B7ED";
paths = (
{
closed = 1;
nodes = (
"217 0 LINE SMOOTH",
"224 0 OFFCURVE",
"230 6 OFFCURVE",
"230 15 CURVE SMOOTH",
"230 241 LINE",
"442 241 LINE SMOOTH",
"450 241 OFFCURVE",
"456 247 OFFCURVE",
"456 255 CURVE SMOOTH",
"456 379 LINE SMOOTH",
"456 388 OFFCURVE",
"450 394 OFFCURVE",
"442 394 CURVE SMOOTH",
"230 394 LINE",
"230 499 LINE",
"479 499 LINE SMOOTH",
"486 499 OFFCURVE",
"492 505 OFFCURVE",
"492 513 CURVE SMOOTH",
"492 640 LINE SMOOTH",
"492 649 OFFCURVE",
"486 655 OFFCURVE",
"479 655 CURVE SMOOTH",
"64 655 LINE SMOOTH",
"55 655 OFFCURVE",
"49 649 OFFCURVE",
"49 640 CURVE SMOOTH",
"49 15 LINE SMOOTH",
"49 6 OFFCURVE",
"55 0 OFFCURVE",
"64 0 CURVE SMOOTH"
);
}
);
width = 517;
}
);
leftKerningGroup = H;
leftMetricsKey = H;
rightKerningGroup = F;
unicode = 0046;
},
{
glyphname = G;
lastChange = "2022-11-08 22:11:58 +0000";
layers = (
{
anchors = (
{
name = bottom;
position = "{305, 0}";
},
{
name = top;
position = "{305, 655}";
},
{
name = topleft;
position = "{69, 655}";
}
);
layerId = "AC740033-F94D-4FA6-A763-4DA6F9230F00";
paths = (
{
closed = 1;
nodes = (
"431 -11 OFFCURVE",
"481 60 OFFCURVE",
"501 136 CURVE",
"502 136 LINE",
"501 92 OFFCURVE",
"504 43 OFFCURVE",
"508 8 CURVE SMOOTH",
"509 0 OFFCURVE",
"511 0 OFFCURVE",
"513 0 CURVE SMOOTH",
"522 0 LINE SMOOTH",
"524 0 OFFCURVE",
"524 1 OFFCURVE",
"524 3 CURVE SMOOTH",
"520 45 OFFCURVE",
"516 88 OFFCURVE",
"516 140 CURVE SMOOTH",
"516 314 LINE SMOOTH",
"516 316 OFFCURVE",
"515 317 OFFCURVE",
"513 317 CURVE SMOOTH",
"322 317 LINE SMOOTH",
"320 317 OFFCURVE",
"319 316 OFFCURVE",
"319 314 CURVE SMOOTH",
"319 304 LINE SMOOTH",
"319 302 OFFCURVE",
"320 301 OFFCURVE",
"322 301 CURVE SMOOTH",
"500 301 LINE",
"500 248 LINE SMOOTH",
"500 82 OFFCURVE",
"431 5 OFFCURVE",
"301 5 CURVE SMOOTH",
"171 5 OFFCURVE",
"99 75 OFFCURVE",
"99 200 CURVE SMOOTH",
"99 455 LINE SMOOTH",
"99 580 OFFCURVE",
"171 650 OFFCURVE",
"301 650 CURVE SMOOTH",
"427 650 OFFCURVE",
"510 584 OFFCURVE",
"500 469 CURVE SMOOTH",
"500 467 OFFCURVE",
"501 466 OFFCURVE",
"503 466 CURVE SMOOTH",
"513 466 LINE SMOOTH",
"515 466 OFFCURVE",
"516 467 OFFCURVE",
"516 469 CURVE SMOOTH",
"526 592 OFFCURVE",
"439 666 OFFCURVE",
"301 666 CURVE SMOOTH",
"161 666 OFFCURVE",
"83 590 OFFCURVE",
"83 456 CURVE SMOOTH",
"83 199 LINE SMOOTH",
"83 65 OFFCURVE",
"161 -11 OFFCURVE",
"301 -11 CURVE SMOOTH"
);
}
);
width = 612;
},
{
anchors = (
{
name = bottom;
position = "{304, 0}";
},
{
name = top;
position = "{298, 655}";
},
{
name = topleft;
position = "{70, 655}";
}
);
layerId = "2868C049-E6E5-4053-858B-0FFDC5626279";
paths = (
{
closed = 1;
nodes = (
"374 -11 OFFCURVE",
"436 22 OFFCURVE",
"470 80 CURVE",
"471 80 LINE",
"471 53 OFFCURVE",
"474 27 OFFCURVE",
"477 8 CURVE SMOOTH",
"478 3 OFFCURVE",
"482 0 OFFCURVE",
"487 0 CURVE SMOOTH",
"538 0 LINE SMOOTH",
"544 0 OFFCURVE",
"547 4 OFFCURVE",
"546 10 CURVE SMOOTH",
"541 47 OFFCURVE",
"539 85 OFFCURVE",
"539 132 CURVE SMOOTH",
"539 324 LINE SMOOTH",
"539 329 OFFCURVE",
"535 333 OFFCURVE",
"530 333 CURVE SMOOTH",
"317 333 LINE SMOOTH",
"312 333 OFFCURVE",
"308 329 OFFCURVE",
"308 324 CURVE SMOOTH",
"308 274 LINE SMOOTH",
"308 268 OFFCURVE",
"312 264 OFFCURVE",
"317 264 CURVE SMOOTH",
"463 264 LINE",
"463 224 LINE SMOOTH",
"463 116 OFFCURVE",
"407 61 OFFCURVE",
"303 61 CURVE SMOOTH",
"200 61 OFFCURVE",
"149 113 OFFCURVE",
"149 218 CURVE SMOOTH",
"149 437 LINE SMOOTH",
"149 541 OFFCURVE",
"203 594 OFFCURVE",
"309 594 CURVE SMOOTH",
"409 594 OFFCURVE",
"462 544 OFFCURVE",
"456 454 CURVE SMOOTH",
"455 448 OFFCURVE",
"459 444 OFFCURVE",
"464 444 CURVE SMOOTH",
"527 444 LINE SMOOTH",
"532 444 OFFCURVE",
"536 447 OFFCURVE",
"536 453 CURVE SMOOTH",
"553 584 OFFCURVE",
"457 666 OFFCURVE",
"307 666 CURVE SMOOTH",
"157 666 OFFCURVE",
"69 581 OFFCURVE",
"69 436 CURVE SMOOTH",
"69 217 LINE SMOOTH",
"69 73 OFFCURVE",
"150 -11 OFFCURVE",
"289 -11 CURVE SMOOTH"
);
}
);
width = 620;
},
{
anchors = (
{
name = bottom;
position = "{320, 0}";
},
{
name = top;
position = "{322, 655}";
},
{
name = topleft;
position = "{70, 655}";
}
);
layerId = "C3548BD9-1E85-4E1D-92F7-AFAA54E0B7ED";
paths = (
{
closed = 1;
nodes = (
"375 -11 OFFCURVE",
"418 28 OFFCURVE",
"444 75 CURVE",
"446 75 LINE",
"448 56 OFFCURVE",
"449 28 OFFCURVE",
"453 14 CURVE SMOOTH",
"455 4 OFFCURVE",
"459 0 OFFCURVE",
"467 0 CURVE SMOOTH",
"588 0 LINE SMOOTH",
"597 0 OFFCURVE",
"604 6 OFFCURVE",
"602 16 CURVE SMOOTH",
"594 60 OFFCURVE",
"592 127 OFFCURVE",
"592 181 CURVE SMOOTH",
"592 342 LINE SMOOTH",
"592 351 OFFCURVE",
"586 357 OFFCURVE",
"579 357 CURVE SMOOTH",
"326 357 LINE SMOOTH",
"318 357 OFFCURVE",
"312 351 OFFCURVE",
"312 342 CURVE SMOOTH",
"312 254 LINE SMOOTH",
"312 245 OFFCURVE",
"318 239 OFFCURVE",
"326 239 CURVE SMOOTH",
"417 239 LINE",
"417 217 LINE SMOOTH",
"417 170 OFFCURVE",
"385 145 OFFCURVE",
"326 145 CURVE SMOOTH",
"256 145 OFFCURVE",
"219 178 OFFCURVE",
"219 261 CURVE SMOOTH",
"219 393 LINE SMOOTH",
"219 476 OFFCURVE",
"253 510 OFFCURVE",
"320 510 CURVE SMOOTH",
"387 510 OFFCURVE",
"412 482 OFFCURVE",
"412 443 CURVE SMOOTH",
"412 433 OFFCURVE",
"415 427 OFFCURVE",
"424 427 CURVE SMOOTH",
"577 426 LINE SMOOTH",
"586 426 OFFCURVE",
"590 431 OFFCURVE",
"591 440 CURVE SMOOTH",
"605 565 OFFCURVE",
"514 666 OFFCURVE",
"318 666 CURVE SMOOTH",
"142 666 OFFCURVE",
"38 581 OFFCURVE",
"38 401 CURVE SMOOTH",
"38 251 LINE SMOOTH",
"38 73 OFFCURVE",
"143 -11 OFFCURVE",
"287 -11 CURVE SMOOTH"
);
}
);
width = 644;
}
);
leftKerningGroup = O;
leftMetricsKey = O;
rightKerningGroup = G;
unicode = 0047;
},
{
glyphname = H;
lastChange = "2022-11-08 22:11:58 +0000";
layers = (
{
anchors = (
{
name = bottom;
position = "{309, 0}";
},
{
name = center;
position = "{313, 328}";
},
{
name = top;
position = "{309, 655}";
},
{
name = topleft;
position = "{58, 655}";
}
);
layerId = "AC740033-F94D-4FA6-A763-4DA6F9230F00";
paths = (
{
closed = 1;
nodes = (
"112 0 LINE SMOOTH",
"114 0 OFFCURVE",
"115 1 OFFCURVE",
"115 3 CURVE SMOOTH",
"115 331 LINE",
"506 331 LINE",
"506 3 LINE SMOOTH",
"506 1 OFFCURVE",
"507 0 OFFCURVE",
"509 0 CURVE SMOOTH",
"519 0 LINE SMOOTH",
"521 0 OFFCURVE",
"522 1 OFFCURVE",
"522 3 CURVE SMOOTH",
"522 652 LINE SMOOTH",
"522 654 OFFCURVE",
"521 655 OFFCURVE",
"519 655 CURVE SMOOTH",
"509 655 LINE SMOOTH",
"507 655 OFFCURVE",
"506 654 OFFCURVE",
"506 652 CURVE SMOOTH",
"506 347 LINE",
"115 347 LINE",
"115 652 LINE SMOOTH",
"115 654 OFFCURVE",
"114 655 OFFCURVE",
"112 655 CURVE SMOOTH",
"102 655 LINE SMOOTH",
"100 655 OFFCURVE",
"99 654 OFFCURVE",
"99 652 CURVE SMOOTH",
"99 3 LINE SMOOTH",
"99 1 OFFCURVE",
"100 0 OFFCURVE",
"102 0 CURVE SMOOTH"
);
}
);
width = 621;
},
{
anchors = (
{
name = bottom;
position = "{314, 35}";
},
{
name = center;
position = "{314, 330}";
},
{
name = top;
position = "{313, 655}";
},
{
name = topleft;
position = "{27, 655}";
}
);
layerId = "2868C049-E6E5-4053-858B-0FFDC5626279";
paths = (
{
closed = 1;
nodes = (
"152 0 LINE SMOOTH",
"158 0 OFFCURVE",
"161 4 OFFCURVE",
"161 9 CURVE SMOOTH",
"161 302 LINE",
"466 302 LINE",
"466 9 LINE SMOOTH",
"466 4 OFFCURVE",
"470 0 OFFCURVE",
"475 0 CURVE SMOOTH",
"538 0 LINE SMOOTH",
"543 0 OFFCURVE",
"547 4 OFFCURVE",
"547 9 CURVE SMOOTH",
"547 646 LINE SMOOTH",
"547 651 OFFCURVE",
"543 655 OFFCURVE",
"538 655 CURVE SMOOTH",
"475 655 LINE SMOOTH",
"470 655 OFFCURVE",
"466 651 OFFCURVE",
"466 646 CURVE SMOOTH",
"466 373 LINE",
"161 373 LINE",
"161 646 LINE SMOOTH",
"161 651 OFFCURVE",
"158 655 OFFCURVE",
"152 655 CURVE SMOOTH",
"90 655 LINE SMOOTH",
"84 655 OFFCURVE",
"81 651 OFFCURVE",
"81 646 CURVE SMOOTH",
"81 9 LINE SMOOTH",
"81 4 OFFCURVE",
"84 0 OFFCURVE",
"90 0 CURVE SMOOTH"
);
}
);
width = 627;
},
{
anchors = (
{
name = bottom;
position = "{327, 89}";
},
{
name = center;
position = "{327, 328}";
},
{
name = top;
position = "{327, 655}";
},
{
name = topleft;
position = "{39, 655}";
}
);
layerId = "C3548BD9-1E85-4E1D-92F7-AFAA54E0B7ED";
paths = (
{
closed = 1;
nodes = (
"216 0 LINE SMOOTH",
"224 0 OFFCURVE",
"230 6 OFFCURVE",
"230 15 CURVE SMOOTH",
"230 249 LINE",
"422 249 LINE",
"422 15 LINE SMOOTH",
"421.994 5.994 OFFCURVE",
"428 0 OFFCURVE",
"437 0 CURVE SMOOTH",
"588 0 LINE SMOOTH",
"597 0 OFFCURVE",
"603 6 OFFCURVE",
"603 15 CURVE SMOOTH",
"603 640 LINE SMOOTH",
"603 649 OFFCURVE",
"597 655 OFFCURVE",
"588 655 CURVE SMOOTH",
"437 655 LINE SMOOTH",
"428 655 OFFCURVE",
"421.994 649.006 OFFCURVE",
"422 640 CURVE SMOOTH",
"422 406 LINE",
"230 406 LINE",
"230 640 LINE SMOOTH",
"230 649 OFFCURVE",
"224 655 OFFCURVE",
"216 655 CURVE SMOOTH",
"64 655 LINE SMOOTH",
"55 655 OFFCURVE",
"49 649 OFFCURVE",
"49 640 CURVE SMOOTH",
"49 15 LINE SMOOTH",
"49 6 OFFCURVE",
"55 0 OFFCURVE",
"64 0 CURVE SMOOTH"
);
}
);
width = 652;
}
);
leftKerningGroup = H;
rightKerningGroup = H;
unicode = 0048;
},
{
glyphname = Hbar;
lastChange = "2022-11-08 22:11:58 +0000";
layers = (
{
components = (
{
alignment = -1;
name = H;
}
);
layerId = "AC740033-F94D-4FA6-A763-4DA6F9230F00";
paths = (
{
closed = 1;
nodes = (
"99 545 LINE",
"522 545 LINE",
"609 545 LINE SMOOTH",
"611 545 OFFCURVE",
"612 546 OFFCURVE",
"612 548 CURVE SMOOTH",
"612 558 LINE SMOOTH",
"612 560 OFFCURVE",
"611 561 OFFCURVE",
"609 561 CURVE SMOOTH",
"12 561 LINE SMOOTH",
"10 561 OFFCURVE",
"9 560 OFFCURVE",
"9 558 CURVE SMOOTH",
"9 548 LINE SMOOTH",
"9 546 OFFCURVE",
"10 545 OFFCURVE",
"12 545 CURVE SMOOTH"
);
}
);
width = 621;
},
{
components = (
{
alignment = -1;
name = H;
}
);
layerId = "2868C049-E6E5-4053-858B-0FFDC5626279";
paths = (
{
closed = 1;
nodes = (
"81 518 LINE",
"547 518 LINE",
"596 518 LINE SMOOTH",
"602 518 OFFCURVE",
"605 522 OFFCURVE",
"605 527 CURVE SMOOTH",
"605 574 LINE SMOOTH",
"605 580 OFFCURVE",
"602 584 OFFCURVE",
"596 584 CURVE SMOOTH",
"31 584 LINE SMOOTH",
"26 584 OFFCURVE",
"22 580 OFFCURVE",
"22 574 CURVE SMOOTH",
"22 527 LINE SMOOTH",
"22 522 OFFCURVE",
"26 518 OFFCURVE",
"31 518 CURVE SMOOTH"
);
}
);
width = 627;
},
{
components = (
{
alignment = -1;
name = H;
}
);
layerId = "C3548BD9-1E85-4E1D-92F7-AFAA54E0B7ED";
paths = (
{
closed = 1;
nodes = (
"49 484 LINE",
"603 484 LINE",
"640 484 LINE SMOOTH",
"649 484 OFFCURVE",
"655 490 OFFCURVE",
"655 499 CURVE SMOOTH",
"655 580 LINE SMOOTH",
"655 589 OFFCURVE",
"649 594 OFFCURVE",
"640 594 CURVE SMOOTH",
"11 594 LINE SMOOTH",
"2 594 OFFCURVE",
"-3 589 OFFCURVE",
"-3 580 CURVE SMOOTH",
"-3 499 LINE SMOOTH",
"-3 490 OFFCURVE",
"2 484 OFFCURVE",
"11 484 CURVE SMOOTH"
);
}
);
width = 651;
}
);
leftKerningGroup = H;
rightKerningGroup = H;
unicode = 0126;
},
{
glyphname = I;
lastChange = "2022-11-09 20:08:32 +0000";
layers = (
{
anchors = (
{
name = bottom;
position = "{107, 0}";
},
{
name = ogonek;
position = "{126, 10}";
},
{
name = top;
position = "{107, 655}";
},
{
name = topleft;
position = "{41, 655}";
}
);
layerId = "AC740033-F94D-4FA6-A763-4DA6F9230F00";
paths = (
{
closed = 1;
nodes = (
"112 0 LINE SMOOTH",
"114 0 OFFCURVE",
"115 1 OFFCURVE",
"115 3 CURVE SMOOTH",
"115 652 LINE SMOOTH",
"115 654 OFFCURVE",
"114 655 OFFCURVE",
"112 655 CURVE SMOOTH",
"102 655 LINE SMOOTH",
"100 655 OFFCURVE",
"99 654 OFFCURVE",
"99 652 CURVE SMOOTH",
"99 3 LINE SMOOTH",
"99 1 OFFCURVE",
"100 0 OFFCURVE",
"102 0 CURVE SMOOTH"
);
}
);
width = 214;
},
{
anchors = (
{
name = bottom;
position = "{121, 0}";
},
{
name = ogonek;
position = "{171, 10}";
},
{
name = top;
position = "{122, 655}";
},
{
name = topleft;
position = "{23, 655}";
}
);
layerId = "2868C049-E6E5-4053-858B-0FFDC5626279";
paths = (
{
closed = 1;
nodes = (
"152 0 LINE SMOOTH",
"158 0 OFFCURVE",
"161 4 OFFCURVE",
"161 9 CURVE SMOOTH",
"161 646 LINE SMOOTH",
"161 651 OFFCURVE",
"158 655 OFFCURVE",
"152 655 CURVE SMOOTH",
"90 655 LINE SMOOTH",
"84 655 OFFCURVE",
"81 651 OFFCURVE",
"81 646 CURVE SMOOTH",
"81 9 LINE SMOOTH",
"81 4 OFFCURVE",
"84 0 OFFCURVE",
"90 0 CURVE SMOOTH"
);
}
);
width = 241;
},
{
anchors = (
{
name = bottom;
position = "{140, 0}";
},
{
name = ogonek;
position = "{233, 10}";
},
{
name = top;
position = "{142, 655}";
},
{
name = topleft;
position = "{20, 655}";
}
);
layerId = "C3548BD9-1E85-4E1D-92F7-AFAA54E0B7ED";
paths = (
{
closed = 1;
nodes = (
"216 0 LINE SMOOTH",
"224 0 OFFCURVE",
"230 6 OFFCURVE",
"230 15 CURVE SMOOTH",
"230 640 LINE SMOOTH",
"230 649 OFFCURVE",
"224 655 OFFCURVE",
"216 655 CURVE SMOOTH",
"64 655 LINE SMOOTH",
"55 655 OFFCURVE",
"49 649 OFFCURVE",
"49 640 CURVE SMOOTH",
"49 15 LINE SMOOTH",
"49 6 OFFCURVE",
"55 0 OFFCURVE",
"64 0 CURVE SMOOTH"
);
}
);
width = 279;
}
);
leftKerningGroup = H;
leftMetricsKey = H;
rightKerningGroup = H;
rightMetricsKey = H;
unicode = 0049;
},
{
glyphname = J;
lastChange = "2022-11-09 20:08:32 +0000";
layers = (
{
anchors = (
{
name = bottom;
position = "{107, 0}";
},
{
name = top;
position = "{107, 655}";
}
);
layerId = "AC740033-F94D-4FA6-A763-4DA6F9230F00";
paths = (
{
closed = 1;
nodes = (
"90 -124 OFFCURVE",
"115 -64 OFFCURVE",
"115 67 CURVE SMOOTH",
"115 652 LINE SMOOTH",
"115 654 OFFCURVE",
"114 655 OFFCURVE",
"112 655 CURVE SMOOTH",
"102 655 LINE SMOOTH",
"100 655 OFFCURVE",
"99 654 OFFCURVE",
"99 652 CURVE SMOOTH",
"99 67 LINE SMOOTH",
"99 -60 OFFCURVE",
"74 -110 OFFCURVE",
"5 -125 CURVE SMOOTH",
"3 -125 OFFCURVE",
"1 -127 OFFCURVE",
"2 -129 CURVE SMOOTH",
"5 -137 LINE SMOOTH",
"6 -139 OFFCURVE",
"6 -141 OFFCURVE",
"9 -140 CURVE SMOOTH"
);
}
);
width = 214;
},
{
anchors = (
{
name = bottom;
position = "{125, 0}";
},
{
name = top;
position = "{129, 655}";
}
);
layerId = "2868C049-E6E5-4053-858B-0FFDC5626279";
paths = (
{
closed = 1;
nodes = (
"122 -120 OFFCURVE",
"168 -49 OFFCURVE",
"168 83 CURVE SMOOTH",
"168 646 LINE SMOOTH",
"168 651 OFFCURVE",
"165 655 OFFCURVE",
"159 655 CURVE SMOOTH",
"97 655 LINE SMOOTH",
"91 655 OFFCURVE",
"88 651 OFFCURVE",
"88 646 CURVE SMOOTH",
"88 79 LINE SMOOTH",
"88 -8 OFFCURVE",
"62 -54 OFFCURVE",
"9 -67 CURVE SMOOTH",
"-3 -70 OFFCURVE",
"-7 -74 OFFCURVE",
"-5 -81 CURVE SMOOTH",
"11 -136 LINE SMOOTH",
"13 -143 OFFCURVE",
"18 -144 OFFCURVE",
"31 -141 CURVE SMOOTH"
);
}
);
width = 248;
},
{
anchors = (
{
name = bottom;
position = "{150, 0}";
},
{
name = top;
position = "{150, 655}";
}
);
layerId = "C3548BD9-1E85-4E1D-92F7-AFAA54E0B7ED";
paths = (
{
closed = 1;
nodes = (
"173 -155 OFFCURVE",
"239 -60 OFFCURVE",
"239 121 CURVE SMOOTH",
"239 640 LINE SMOOTH",
"239 649 OFFCURVE",
"233 655 OFFCURVE",
"224 655 CURVE SMOOTH",
"72 655 LINE SMOOTH",
"63 655 OFFCURVE",
"58 649 OFFCURVE",
"58 640 CURVE SMOOTH",
"58 107 LINE SMOOTH",
"58 25 OFFCURVE",
"34 -14 OFFCURVE",
"-10 -23 CURVE SMOOTH",
"-18 -25 OFFCURVE",
"-23 -33 OFFCURVE",
"-20 -42 CURVE SMOOTH",
"18 -162 LINE SMOOTH",
"21 -170 OFFCURVE",
"27 -173 OFFCURVE",
"36 -172 CURVE SMOOTH"
);
}
);
width = 288;
}
);
leftKerningGroup = J;
rightKerningGroup = J;
rightMetricsKey = H;
unicode = 004A;
},
{
glyphname = K;
lastChange = "2022-11-08 22:11:58 +0000";
layers = (
{
anchors = (
{
name = bottom;
position = "{272, 0}";
},
{
name = top;
position = "{267, 655}";
}
);
layerId = "AC740033-F94D-4FA6-A763-4DA6F9230F00";
paths = (
{
closed = 1;
nodes = (
"112 0 LINE SMOOTH",
"114 0 OFFCURVE",
"115 1 OFFCURVE",
"115 3 CURVE SMOOTH",
"115 212 LINE",
"248 369 LINE",
"494 2 LINE SMOOTH",
"495 0 OFFCURVE",
"496 0 OFFCURVE",
"498 0 CURVE SMOOTH",
"511 0 LINE SMOOTH",
"513 0 OFFCURVE",
"513 2 OFFCURVE",
"512 4 CURVE SMOOTH",
"259 382 LINE",
"487 651 LINE SMOOTH",
"489 653 OFFCURVE",
"489 655 OFFCURVE",
"487 655 CURVE SMOOTH",
"472 655 LINE SMOOTH",
"470 655 OFFCURVE",
"469 654 OFFCURVE",
"468 653 CURVE SMOOTH",
"240 382 LINE SMOOTH",
"198 334 OFFCURVE",
"156 285 OFFCURVE",
"115 236 CURVE",
"115 237 LINE",
"115 292 OFFCURVE",
"115 346 OFFCURVE",
"115 400 CURVE SMOOTH",
"115 652 LINE SMOOTH",
"115 654 OFFCURVE",
"114 655 OFFCURVE",
"112 655 CURVE SMOOTH",
"102 655 LINE SMOOTH",
"100 655 OFFCURVE",
"99 654 OFFCURVE",
"99 652 CURVE SMOOTH",
"99 3 LINE SMOOTH",
"99 1 OFFCURVE",
"100 0 OFFCURVE",
"102 0 CURVE SMOOTH"
);
}
);
width = 532;
},
{
anchors = (
{
name = bottom;
position = "{298, 0}";
},
{
name = top;
position = "{281, 655}";
}
);
layerId = "2868C049-E6E5-4053-858B-0FFDC5626279";
paths = (
{
closed = 1;
nodes = (
"152 0 LINE SMOOTH",
"158 0 OFFCURVE",
"161 4 OFFCURVE",
"161 9 CURVE SMOOTH",
"161 216 LINE",
"255 323 LINE",
"454 6 LINE SMOOTH",
"456 3 OFFCURVE",
"460 0 OFFCURVE",
"465 0 CURVE SMOOTH",
"543 0 LINE SMOOTH",
"550 0 OFFCURVE",
"552 5 OFFCURVE",
"548 11 CURVE SMOOTH",
"311 387 LINE",
"529 644 LINE SMOOTH",
"535 650 OFFCURVE",
"531 655 OFFCURVE",
"524 655 CURVE SMOOTH",
"445 655 LINE SMOOTH",
"440 655 OFFCURVE",
"437 654 OFFCURVE",
"434 650 CURVE SMOOTH",
"252 435 LINE SMOOTH",
"220 396 OFFCURVE",
"190 359 OFFCURVE",
"161 321 CURVE",
"160 321 LINE",
"161 364 OFFCURVE",
"161 410 OFFCURVE",
"161 452 CURVE SMOOTH",
"161 646 LINE SMOOTH",
"161 651 OFFCURVE",
"158 655 OFFCURVE",
"152 655 CURVE SMOOTH",
"90 655 LINE SMOOTH",
"84 655 OFFCURVE",
"81 651 OFFCURVE",
"81 646 CURVE SMOOTH",
"81 9 LINE SMOOTH",
"81 4 OFFCURVE",
"84 0 OFFCURVE",
"90 0 CURVE SMOOTH"
);
}
);
width = 564;
},
{
anchors = (
{
name = bottom;
position = "{313, 0}";
},
{
name = top;
position = "{313, 655}";
}
);
layerId = "C3548BD9-1E85-4E1D-92F7-AFAA54E0B7ED";
paths = (
{
closed = 1;
nodes = (
"216 0 LINE SMOOTH",
"224 0 OFFCURVE",
"230 6 OFFCURVE",
"230 15 CURVE SMOOTH",
"230 170 LINE",
"289 243 LINE",
"408 10 LINE SMOOTH",
"412 2 OFFCURVE",
"418 0 OFFCURVE",
"425 0 CURVE SMOOTH",
"609 0 LINE SMOOTH",
"619 0 OFFCURVE",
"624 7 OFFCURVE",
"619 18 CURVE SMOOTH",
"414 387 LINE",
"594 637 LINE SMOOTH",
"601 647 OFFCURVE",
"597 655 OFFCURVE",
"586 655 CURVE SMOOTH",
"405 655 LINE SMOOTH",
"397.993 655 OFFCURVE",
"392 652 OFFCURVE",
"388 646 CURVE SMOOTH",
"295 516 LINE SMOOTH",
"267 472 OFFCURVE",
"246 429 OFFCURVE",
"228 390 CURVE",
"225 390 LINE",
"229 429 OFFCURVE",
"230 476 OFFCURVE",
"230 515 CURVE SMOOTH",
"230 640 LINE SMOOTH",
"230 649 OFFCURVE",
"224 655 OFFCURVE",
"216 655 CURVE SMOOTH",
"64 655 LINE SMOOTH",
"55 655 OFFCURVE",
"49 649 OFFCURVE",
"49 640 CURVE SMOOTH",
"49 15 LINE SMOOTH",
"49 6 OFFCURVE",
"55 0 OFFCURVE",
"64 0 CURVE SMOOTH"
);
}
);
width = 626;
}
);
leftKerningGroup = H;
leftMetricsKey = H;
rightKerningGroup = K;
unicode = 004B;
},
{
glyphname = L;
lastChange = "2022-11-08 22:11:58 +0000";
layers = (
{
anchors = (
{
name = bottom;
position = "{264, 0}";
},
{
name = center;
position = "{253, 328}";
},
{
name = top;
position = "{107, 655}";
},
{
name = topright;
position = "{457, 655}";
}
);
layerId = "AC740033-F94D-4FA6-A763-4DA6F9230F00";
paths = (
{
closed = 1;
nodes = (
"422 0 LINE SMOOTH",
"424 0 OFFCURVE",
"425 1 OFFCURVE",
"425 3 CURVE SMOOTH",
"425 13 LINE SMOOTH",
"425 15 OFFCURVE",
"424 16 OFFCURVE",
"422 16 CURVE SMOOTH",
"115 16 LINE",
"115 652 LINE SMOOTH",
"115 654 OFFCURVE",
"114 655 OFFCURVE",
"112 655 CURVE SMOOTH",
"102 655 LINE SMOOTH",
"100 655 OFFCURVE",
"99 654 OFFCURVE",
"99 652 CURVE SMOOTH",
"99 3 LINE SMOOTH",
"99 1 OFFCURVE",
"100 0 OFFCURVE",
"102 0 CURVE SMOOTH"
);
}
);
width = 453;
},
{
anchors = (
{
name = bottom;
position = "{263, 0}";
},
{
name = center;
position = "{231, 330}";
},
{
name = top;
position = "{121, 655}";
},
{
name = topright;
position = "{440, 655}";
}
);
layerId = "2868C049-E6E5-4053-858B-0FFDC5626279";
paths = (
{
closed = 1;
nodes = (
"425 0 LINE SMOOTH",
"431 0 OFFCURVE",
"434 4 OFFCURVE",
"434 9 CURVE SMOOTH",
"434 64 LINE SMOOTH",
"434 69 OFFCURVE",
"431 73 OFFCURVE",
"425 73 CURVE SMOOTH",
"161 73 LINE",
"161 646 LINE SMOOTH",
"161 651 OFFCURVE",
"158 655 OFFCURVE",
"152 655 CURVE SMOOTH",
"90 655 LINE SMOOTH",
"84 655 OFFCURVE",
"81 651 OFFCURVE",
"81 646 CURVE SMOOTH",
"81 9 LINE SMOOTH",
"81 4 OFFCURVE",
"84 0 OFFCURVE",
"90 0 CURVE SMOOTH"
);
}
);
width = 454;
},
{
anchors = (
{
name = bottom;
position = "{263, 0}";
},
{
name = center;
position = "{266, 328}";
},
{
name = top;
position = "{142, 655}";
},
{
name = topright;
position = "{484, 655}";
}
);
layerId = "C3548BD9-1E85-4E1D-92F7-AFAA54E0B7ED";
paths = (
{
closed = 1;
nodes = (
"459 0 LINE SMOOTH",
"467 0 OFFCURVE",
"473 6 OFFCURVE",
"473 15 CURVE SMOOTH",
"473 142 LINE SMOOTH",
"473 150 OFFCURVE",
"467 156 OFFCURVE",
"459 156 CURVE SMOOTH",
"230 156 LINE",
"230 640 LINE SMOOTH",
"230 648 OFFCURVE",
"226 655 OFFCURVE",
"219 655 CURVE SMOOTH",
"64 655 LINE SMOOTH",
"55 655 OFFCURVE",
"49 649 OFFCURVE",
"49 640 CURVE SMOOTH",
"49 15 LINE SMOOTH",
"49 6 OFFCURVE",
"55 0 OFFCURVE",
"64 0 CURVE SMOOTH"
);
}
);
width = 487;
}
);
leftKerningGroup = H;
leftMetricsKey = H;
rightKerningGroup = L;
unicode = 004C;
},
{
glyphname = Lslash;
lastChange = "2022-11-09 20:08:32 +0000";
layers = (
{
components = (
{
alignment = -1;
name = L;
}
);
layerId = "AC740033-F94D-4FA6-A763-4DA6F9230F00";
paths = (
{
closed = 1;
nodes = (
"279 404 LINE SMOOTH",
"281 406 OFFCURVE",
"281 406 OFFCURVE",
"281 408 CURVE SMOOTH",
"281 419 LINE SMOOTH",
"281 421 OFFCURVE",
"280 422 OFFCURVE",
"278 421 CURVE SMOOTH",
"2 296 LINE SMOOTH",
"0 295 OFFCURVE",
"0 294 OFFCURVE",
"0 292 CURVE SMOOTH",
"0 281 LINE SMOOTH",
"0 279 OFFCURVE",
"1 278 OFFCURVE",
"3 279 CURVE SMOOTH"
);
}
);
width = 453;
},
{
components = (
{
alignment = -1;
name = L;
}
);
layerId = "2868C049-E6E5-4053-858B-0FFDC5626279";
paths = (
{
closed = 1;
nodes = (
"289 388 LINE SMOOTH",
"293 390 OFFCURVE",
"296 394 OFFCURVE",
"296 399 CURVE SMOOTH",
"296 451 LINE SMOOTH",
"296 457 OFFCURVE",
"291 461 OFFCURVE",
"285 458 CURVE SMOOTH",
"-2 335 LINE SMOOTH",
"-7 333 OFFCURVE",
"-10 329 OFFCURVE",
"-10 324 CURVE SMOOTH",
"-10 271 LINE SMOOTH",
"-10 265 OFFCURVE",
"-5 262 OFFCURVE",
"1 264 CURVE SMOOTH"
);
}
);
width = 454;
},
{
components = (
{
alignment = -1;
name = L;
transform = "{1, 0, 0, 1, 1, 0}";
}
);
layerId = "C3548BD9-1E85-4E1D-92F7-AFAA54E0B7ED";
paths = (
{
closed = 1;
nodes = (
"333 330 LINE SMOOTH",
"341 333 OFFCURVE",
"345 338 OFFCURVE",
"345 347 CURVE SMOOTH",
"345 451 LINE SMOOTH",
"345 460 OFFCURVE",
"339 465 OFFCURVE",
"329 462 CURVE SMOOTH",
"11 368 LINE SMOOTH",
"3 366 OFFCURVE",
"-1 360 OFFCURVE",
"-1 351 CURVE SMOOTH",
"-1 248 LINE SMOOTH",
"-1 238 OFFCURVE",
"5 234 OFFCURVE",
"15 237 CURVE SMOOTH"
);
}
);
width = 488;
}
);
leftKerningGroup = Lslash;
rightKerningGroup = L;
rightMetricsKey = "=L";
unicode = 0141;
},
{
glyphname = M;
lastChange = "2022-11-08 22:11:58 +0000";
layers = (
{
anchors = (
{
name = bottom;
position = "{356, 0}";
},
{
name = top;
position = "{356, 655}";
}
);
layerId = "AC740033-F94D-4FA6-A763-4DA6F9230F00";
paths = (
{
closed = 1;
nodes = (
"97 0 LINE SMOOTH",
"99 0 OFFCURVE",
"100 1 OFFCURVE",
"100 3 CURVE SMOOTH",
"113 532 LINE SMOOTH",
"114 566 OFFCURVE",
"115 599 OFFCURVE",
"116 633 CURVE",
"117 633 LINE",
"130 603 OFFCURVE",
"145 571 OFFCURVE",
"159 541 CURVE SMOOTH",
"358 130 LINE SMOOTH",
"359 128 OFFCURVE",
"360 128 OFFCURVE",
"361 128 CURVE SMOOTH",
"363 128 LINE SMOOTH",
"364 128 OFFCURVE",
"365 128 OFFCURVE",
"366 130 CURVE SMOOTH",
"565 540 LINE SMOOTH",
"579 571 OFFCURVE",
"594 602 OFFCURVE",
"607 633 CURVE",
"608 633 LINE",
"609 599 OFFCURVE",
"610 565 OFFCURVE",
"611 531 CURVE SMOOTH",
"624 3 LINE SMOOTH",
"624 1 OFFCURVE",
"625 0 OFFCURVE",
"627 0 CURVE SMOOTH",
"638 0 LINE SMOOTH",
"640 0 OFFCURVE",
"641 1 OFFCURVE",
"641 3 CURVE SMOOTH",
"624 652 LINE SMOOTH",
"624 654 OFFCURVE",
"623 655 OFFCURVE",
"621 655 CURVE SMOOTH",
"602 655 LINE SMOOTH",
"601 655 OFFCURVE",
"600 655 OFFCURVE",
"599 653 CURVE SMOOTH",
"362 158 LINE",
"125 653 LINE SMOOTH",
"124 655 OFFCURVE",
"123 655 OFFCURVE",
"122 655 CURVE SMOOTH",
"103 655 LINE SMOOTH",
"101 655 OFFCURVE",
"100 654 OFFCURVE",
"100 652 CURVE SMOOTH",
"83 3 LINE SMOOTH",
"83 1 OFFCURVE",
"84 0 OFFCURVE",
"86 0 CURVE SMOOTH"
);
}
);
width = 714;
},
{
anchors = (
{
name = bottom;
position = "{366, 0}";
},
{
name = top;
position = "{366, 655}";
}
);
layerId = "2868C049-E6E5-4053-858B-0FFDC5626279";
paths = (
{
closed = 1;
nodes = (
"136 0 LINE SMOOTH",
"142 0 OFFCURVE",
"146 3 OFFCURVE",
"146 9 CURVE SMOOTH",
"155 416 LINE SMOOTH",
"156 463 OFFCURVE",
"155 510 OFFCURVE",
"153 555 CURVE",
"155 555 LINE",
"172 511 OFFCURVE",
"188 467 OFFCURVE",
"208 423 CURVE SMOOTH",
"355 96 LINE SMOOTH",
"357 91 OFFCURVE",
"360 89 OFFCURVE",
"365 89 CURVE SMOOTH",
"367 89 LINE SMOOTH",
"371 89 OFFCURVE",
"375 91 OFFCURVE",
"377 96 CURVE SMOOTH",
"522 420 LINE SMOOTH",
"542 465 OFFCURVE",
"561 510 OFFCURVE",
"578 555 CURVE",
"580 555 LINE",
"578 509 OFFCURVE",
"577 462 OFFCURVE",
"578 413 CURVE SMOOTH",
"587 9 LINE SMOOTH",
"587 3 OFFCURVE",
"591 0 OFFCURVE",
"596 0 CURVE SMOOTH",
"657 0 LINE SMOOTH",
"662 0 OFFCURVE",
"666 4 OFFCURVE",
"666 9 CURVE SMOOTH",
"652 646 LINE SMOOTH",
"652 652 OFFCURVE",
"649 655 OFFCURVE",
"643 655 CURVE SMOOTH",
"546 655 LINE SMOOTH",
"542 655 OFFCURVE",
"539 653 OFFCURVE",
"536 648 CURVE SMOOTH",
"367 250 LINE",
"196 648 LINE SMOOTH",
"194 653 OFFCURVE",
"191 655 OFFCURVE",
"186 655 CURVE SMOOTH",
"89 655 LINE SMOOTH",
"84 655 OFFCURVE",
"80 652 OFFCURVE",
"80 646 CURVE SMOOTH",
"67 9 LINE SMOOTH",
"67 4 OFFCURVE",
"70 0 OFFCURVE",
"76 0 CURVE SMOOTH"
);
}
);
width = 731;
},
{
anchors = (
{
name = bottom;
position = "{391, 0}";
},
{
name = top;
position = "{391, 655}";
}
);
layerId = "C3548BD9-1E85-4E1D-92F7-AFAA54E0B7ED";
paths = (
{
closed = 1;
nodes = (
"202 0 LINE SMOOTH",
"210 0 OFFCURVE",
"216 6 OFFCURVE",
"216 15 CURVE SMOOTH",
"220 194 LINE SMOOTH",
"221 257 OFFCURVE",
"217 323 OFFCURVE",
"214 381 CURVE",
"218 381 LINE",
"240 328 OFFCURVE",
"267 266 OFFCURVE",
"294 214 CURVE SMOOTH",
"372 64 LINE SMOOTH",
"376 56 OFFCURVE",
"381 54 OFFCURVE",
"388 54 CURVE SMOOTH",
"395 54 LINE SMOOTH",
"402 54 OFFCURVE",
"408 56 OFFCURVE",
"412 64 CURVE SMOOTH",
"489 214 LINE SMOOTH",
"517 266 OFFCURVE",
"544 328 OFFCURVE",
"566 381 CURVE",
"569 381 LINE",
"566 324 OFFCURVE",
"563 257 OFFCURVE",
"564 194 CURVE SMOOTH",
"567 15 LINE SMOOTH",
"567 6 OFFCURVE",
"573 0 OFFCURVE",
"582 0 CURVE SMOOTH",
"731 0 LINE SMOOTH",
"739 0 OFFCURVE",
"745 6 OFFCURVE",
"745 15 CURVE SMOOTH",
"732 640 LINE SMOOTH",
"732 649 OFFCURVE",
"726 655 OFFCURVE",
"719 655 CURVE SMOOTH",
"550 655 LINE SMOOTH",
"542 655 OFFCURVE",
"536 652 OFFCURVE",
"533 644 CURVE SMOOTH",
"391 336 LINE",
"250 644 LINE SMOOTH",
"246 652 OFFCURVE",
"241 655 OFFCURVE",
"233 655 CURVE SMOOTH",
"65 655 LINE SMOOTH",
"56 655 OFFCURVE",
"50 649 OFFCURVE",
"50 640 CURVE SMOOTH",
"38 15 LINE SMOOTH",
"38 6 OFFCURVE",
"44 0 OFFCURVE",
"53 0 CURVE SMOOTH"
);
}
);
width = 783;
}
);
leftKerningGroup = M;
rightKerningGroup = M;
unicode = 004D;
},
{
glyphname = N;
lastChange = "2022-11-09 20:08:32 +0000";
layers = (
{
anchors = (
{
name = bottom;
position = "{310, 0}";
},
{
name = top;
position = "{314, 655}";
}
);
layerId = "AC740033-F94D-4FA6-A763-4DA6F9230F00";
paths = (
{
closed = 1;
nodes = (
"112 0 LINE SMOOTH",
"114 0 OFFCURVE",
"115 1 OFFCURVE",
"115 3 CURVE SMOOTH",
"115 372 LINE SMOOTH",
"115 459 OFFCURVE",
"115 546 OFFCURVE",
"115 633 CURVE",
"116 633 LINE",
"169 546 OFFCURVE",
"223 459 OFFCURVE",
"276 372 CURVE SMOOTH",
"503 2 LINE SMOOTH",
"504 0 OFFCURVE",
"505 0 OFFCURVE",
"506 0 CURVE SMOOTH",
"524 0 LINE SMOOTH",
"526 0 OFFCURVE",
"527 1 OFFCURVE",
"527 3 CURVE SMOOTH",
"527 652 LINE SMOOTH",
"527 654 OFFCURVE",
"526 655 OFFCURVE",
"524 655 CURVE SMOOTH",
"514 655 LINE SMOOTH",
"512 655 OFFCURVE",
"511 654 OFFCURVE",
"511 652 CURVE SMOOTH",
"511 270 LINE SMOOTH",
"511 187 OFFCURVE",
"511 105 OFFCURVE",
"511 22 CURVE",
"510 22 LINE",
"460 104 OFFCURVE",
"409 186 OFFCURVE",
"359 268 CURVE SMOOTH",
"123 653 LINE SMOOTH",
"122 655 OFFCURVE",
"121 655 OFFCURVE",
"119 655 CURVE SMOOTH",
"102 655 LINE SMOOTH",
"100 655 OFFCURVE",
"99 654 OFFCURVE",
"99 652 CURVE SMOOTH",
"99 3 LINE SMOOTH",
"99 1 OFFCURVE",
"100 0 OFFCURVE",
"102 0 CURVE SMOOTH"
);
}
);
width = 626;
},
{
anchors = (
{
name = bottom;
position = "{314, 0}";
},
{
name = top;
position = "{315, 655}";
}
);
layerId = "2868C049-E6E5-4053-858B-0FFDC5626279";
paths = (
{
closed = 1;
nodes = (
"150 0 LINE SMOOTH",
"156.003 0 OFFCURVE",
"160 4 OFFCURVE",
"160 9 CURVE SMOOTH",
"160 358 LINE SMOOTH",
"160 428 OFFCURVE",
"158 493 OFFCURVE",
"158 562 CURVE",
"159 562 LINE",
"187 500 OFFCURVE",
"217 437 OFFCURVE",
"249 370 CURVE SMOOTH",
"427 6 LINE SMOOTH",
"428 2 OFFCURVE",
"433 0 OFFCURVE",
"437 0 CURVE SMOOTH",
"539 0 LINE SMOOTH",
"545 0 OFFCURVE",
"548 4 OFFCURVE",
"548 9 CURVE SMOOTH",
"548 646 LINE SMOOTH",
"548 651 OFFCURVE",
"545 655 OFFCURVE",
"539 655 CURVE SMOOTH",
"479 655 LINE SMOOTH",
"473 655 OFFCURVE",
"470 651 OFFCURVE",
"470 646 CURVE SMOOTH",
"470 283 LINE SMOOTH",
"470 225 OFFCURVE",
"471 151 OFFCURVE",
"472 93 CURVE",
"470 93 LINE",
"447 146 OFFCURVE",
"421 204 OFFCURVE",
"385 275 CURVE SMOOTH",
"205 648 LINE SMOOTH",
"203 653 OFFCURVE",
"199 655 OFFCURVE",
"194 655 CURVE SMOOTH",
"90 655 LINE SMOOTH",
"84 655 OFFCURVE",
"81 651 OFFCURVE",
"81 646 CURVE SMOOTH",
"81 9 LINE SMOOTH",
"81 4 OFFCURVE",
"84 0 OFFCURVE",
"90 0 CURVE SMOOTH"
);
}
);
width = 628;
},
{
anchors = (
{
name = bottom;
position = "{327, 0}";
},
{
name = top;
position = "{327, 655}";
}
);
layerId = "C3548BD9-1E85-4E1D-92F7-AFAA54E0B7ED";
paths = (
{
closed = 1;
nodes = (
"208 0 LINE SMOOTH",
"217 0 OFFCURVE",
"223 6 OFFCURVE",
"223 15 CURVE SMOOTH",
"223 206 LINE SMOOTH",
"223 259 OFFCURVE",
"221 350 OFFCURVE",
"216 402 CURVE",
"220 402 LINE",
"238 354 OFFCURVE",
"265 276 OFFCURVE",
"289 224 CURVE SMOOTH",
"389 11 LINE SMOOTH",
"393 4 OFFCURVE",
"397 0 OFFCURVE",
"405 0 CURVE SMOOTH",
"591 0 LINE SMOOTH",
"599 0 OFFCURVE",
"605 6 OFFCURVE",
"605 15 CURVE SMOOTH",
"605 640 LINE SMOOTH",
"605 649 OFFCURVE",
"599 655 OFFCURVE",
"591.003 655 CURVE SMOOTH",
"445 655 LINE SMOOTH",
"437 655 OFFCURVE",
"431 649 OFFCURVE",
"431 640 CURVE SMOOTH",
"431 438 LINE SMOOTH",
"431 386 OFFCURVE",
"436 296 OFFCURVE",
"443 244 CURVE",
"440 244 LINE",
"425 292 OFFCURVE",
"394 369 OFFCURVE",
"369 421 CURVE SMOOTH",
"265 644 LINE SMOOTH",
"262 651 OFFCURVE",
"257 655 OFFCURVE",
"249 655 CURVE SMOOTH",
"64 655 LINE SMOOTH",
"55 655 OFFCURVE",
"49 649 OFFCURVE",
"49 640 CURVE SMOOTH",
"49 15 LINE SMOOTH",
"49 6 OFFCURVE",
"55 0 OFFCURVE",
"64 0 CURVE SMOOTH"
);
}
);
width = 654;
}
);
leftKerningGroup = H;
leftMetricsKey = H;
rightKerningGroup = H;
rightMetricsKey = H;
unicode = 004E;
},
{
glyphname = Eng;
lastChange = "2022-11-09 20:08:32 +0000";
layers = (
{
layerId = "AC740033-F94D-4FA6-A763-4DA6F9230F00";
paths = (
{
closed = 1;
nodes = (
"437 -170 OFFCURVE",
"439 -170 OFFCURVE",
"440 -169 CURVE SMOOTH",
"503 -106 OFFCURVE",
"527 -61 OFFCURVE",
"527 32 CURVE SMOOTH",
"527 652 LINE SMOOTH",
"527 654 OFFCURVE",
"526 655 OFFCURVE",
"524 655 CURVE SMOOTH",
"514 655 LINE SMOOTH",
"512 655 OFFCURVE",
"511 654 OFFCURVE",
"511 652 CURVE SMOOTH",
"511 270 LINE SMOOTH",
"511 187 OFFCURVE",
"511 105 OFFCURVE",
"511 22 CURVE",
"510 22 LINE",
"460 104 OFFCURVE",
"409 186 OFFCURVE",
"359 268 CURVE SMOOTH",
"123 653 LINE",
"122 655 OFFCURVE",
"121 655 OFFCURVE",
"119 655 CURVE SMOOTH",
"102 655 LINE SMOOTH",
"100 655 OFFCURVE",
"99 654 OFFCURVE",
"99 652 CURVE SMOOTH",
"99 3 LINE SMOOTH",
"99 1 OFFCURVE",
"100 0 OFFCURVE",
"102 0 CURVE SMOOTH",
"112 0 LINE SMOOTH",
"114 0 OFFCURVE",
"115 1 OFFCURVE",
"115 3 CURVE SMOOTH",
"115 372 LINE SMOOTH",
"115 459 OFFCURVE",
"115 546 OFFCURVE",
"115 633 CURVE",
"116 633 LINE",
"169 546 OFFCURVE",
"223 459 OFFCURVE",
"276 372 CURVE SMOOTH",
"503 2 LINE",
"504 0 OFFCURVE",
"505 0 OFFCURVE",
"506 0 CURVE SMOOTH",
"510 0 LINE",
"504 -68 OFFCURVE",
"480 -104 OFFCURVE",
"429 -155 CURVE SMOOTH",
"428 -156 OFFCURVE",
"428 -158 OFFCURVE",
"429 -159 CURVE SMOOTH",
"436 -169 LINE SMOOTH"
);
}
);
width = 626;
},
{
layerId = "2868C049-E6E5-4053-858B-0FFDC5626279";
paths = (
{
closed = 1;
nodes = (
"429 -190 OFFCURVE",
"435 -189 OFFCURVE",
"447 -181 CURVE SMOOTH",
"515 -134 OFFCURVE",
"548 -59 OFFCURVE",
"548 56 CURVE SMOOTH",
"548 646 LINE SMOOTH",
"548 651 OFFCURVE",
"545 655 OFFCURVE",
"539 655 CURVE SMOOTH",
"479 655 LINE SMOOTH",
"473 655 OFFCURVE",
"470 651 OFFCURVE",
"470 646 CURVE SMOOTH",
"470 283 LINE SMOOTH",
"470 225 OFFCURVE",
"471 151 OFFCURVE",
"472 93 CURVE",
"470 93 LINE",
"447 146 OFFCURVE",
"421 204 OFFCURVE",
"385 275 CURVE SMOOTH",
"205 648 LINE",
"203 653 OFFCURVE",
"199 655 OFFCURVE",
"194 655 CURVE SMOOTH",
"90 655 LINE SMOOTH",
"84 655 OFFCURVE",
"81 651 OFFCURVE",
"81 646 CURVE SMOOTH",
"81 9 LINE SMOOTH",
"81 4 OFFCURVE",
"84 0 OFFCURVE",
"90 0 CURVE SMOOTH",
"150 0 LINE SMOOTH",
"156.003 0 OFFCURVE",
"160 4 OFFCURVE",
"160 9 CURVE SMOOTH",
"160 358 LINE SMOOTH",
"160 428 OFFCURVE",
"158 493 OFFCURVE",
"158 562 CURVE",
"159 562 LINE",
"187 500 OFFCURVE",
"217 437 OFFCURVE",
"249 370 CURVE SMOOTH",
"427 6 LINE",
"428 2 OFFCURVE",
"433 0 OFFCURVE",
"437 0 CURVE SMOOTH",
"465 0 LINE",
"457 -53 OFFCURVE",
"432 -94 OFFCURVE",
"395 -122 CURVE SMOOTH",
"386 -128 OFFCURVE",
"384 -133 OFFCURVE",
"388 -138 CURVE SMOOTH",
"425 -184 LINE SMOOTH"
);
}
);
width = 628;
},
{
layerId = "C3548BD9-1E85-4E1D-92F7-AFAA54E0B7ED";
paths = (
{
closed = 1;
nodes = (
"458 -193 OFFCURVE",
"464 -194 OFFCURVE",
"469 -191 CURVE SMOOTH",
"574 -126 OFFCURVE",
"605 -47 OFFCURVE",
"605 97 CURVE SMOOTH",
"605 640 LINE SMOOTH",
"605 649 OFFCURVE",
"599 655 OFFCURVE",
"591.003 655 CURVE SMOOTH",
"445 655 LINE SMOOTH",
"437 655 OFFCURVE",
"431 649 OFFCURVE",
"431 640 CURVE SMOOTH",
"431 438 LINE SMOOTH",
"431 386 OFFCURVE",
"436 296 OFFCURVE",
"443 244 CURVE",
"440 244 LINE",
"425 292 OFFCURVE",
"394 369 OFFCURVE",
"369 421 CURVE SMOOTH",
"265 644 LINE",
"262 651 OFFCURVE",
"257 655 OFFCURVE",
"249 655 CURVE SMOOTH",
"64 655 LINE SMOOTH",
"55 655 OFFCURVE",
"49 649 OFFCURVE",
"49 640 CURVE SMOOTH",
"49 15 LINE SMOOTH",
"49 6 OFFCURVE",
"55 0 OFFCURVE",
"64 0 CURVE SMOOTH",
"208 0 LINE SMOOTH",
"217 0 OFFCURVE",
"223 6 OFFCURVE",
"223 15 CURVE SMOOTH",
"223 206 LINE SMOOTH",
"223 259 OFFCURVE",
"221 350 OFFCURVE",
"216 402 CURVE",
"220 402 LINE",
"238 354 OFFCURVE",
"265 276 OFFCURVE",
"289 224 CURVE SMOOTH",
"389 11 LINE",
"393 4 OFFCURVE",
"397 0 OFFCURVE",
"405 0 CURVE SMOOTH",
"418 0 LINE",
"408 -29 OFFCURVE",
"392 -52 OFFCURVE",
"369 -70 CURVE SMOOTH",
"361 -76 OFFCURVE",
"361 -86 OFFCURVE",
"367 -92 CURVE SMOOTH",
"454 -188 LINE SMOOTH"
);
}
);
width = 654;
}
);
leftKerningGroup = H;
leftMetricsKey = H;
rightKerningGroup = H;
rightMetricsKey = H;
unicode = 014A;
},
{
glyphname = O;
lastChange = "2022-11-08 22:11:58 +0000";
layers = (
{
anchors = (
{
name = bottom;
position = "{302, 0}";
},
{
name = center;
position = "{302, 328}";
},
{
name = ogonek;
position = "{544, 10}";
},
{
name = top;
position = "{301, 655}";
},
{
name = topleft;
position = "{20, 655}";
},
{
name = topright;
position = "{584, 655}";
}
);
layerId = "AC740033-F94D-4FA6-A763-4DA6F9230F00";
paths = (
{
closed = 1;
nodes = (
"441 -11 OFFCURVE",
"520 65 OFFCURVE",
"520 198 CURVE SMOOTH",
"520 457 LINE SMOOTH",
"520 590 OFFCURVE",
"441 666 OFFCURVE",
"301 666 CURVE SMOOTH",
"161 666 OFFCURVE",
"83 590 OFFCURVE",
"83 457 CURVE SMOOTH",
"83 198 LINE SMOOTH",
"83 65 OFFCURVE",
"161 -11 OFFCURVE",
"301 -11 CURVE SMOOTH"
);
},
{
closed = 1;
nodes = (
"171 5 OFFCURVE",
"99 75 OFFCURVE",
"99 199 CURVE SMOOTH",
"99 456 LINE SMOOTH",
"99 580 OFFCURVE",
"171 650 OFFCURVE",
"301 650 CURVE SMOOTH",
"431 650 OFFCURVE",
"504 580 OFFCURVE",
"504 456 CURVE SMOOTH",
"504 199 LINE SMOOTH",
"504 75 OFFCURVE",
"431 5 OFFCURVE",
"301 5 CURVE SMOOTH"
);
}
);
width = 603;
},
{
anchors = (
{
name = bottom;
position = "{305, 33}";
},
{
name = center;
position = "{305, 295}";
},
{
name = ogonek;
position = "{549, 10}";
},
{
name = top;
position = "{305, 655}";
},
{
name = topleft;
position = "{57, 655}";
},
{
name = topright;
position = "{590, 655}";
}
);
layerId = "2868C049-E6E5-4053-858B-0FFDC5626279";
paths = (
{
closed = 1;
nodes = (
"462 -11 OFFCURVE",
"541 71 OFFCURVE",
"541 217 CURVE SMOOTH",
"541 437 LINE SMOOTH",
"541 584 OFFCURVE",
"462 666 OFFCURVE",
"305 666 CURVE SMOOTH",
"148 666 OFFCURVE",
"69 584 OFFCURVE",
"69 437 CURVE SMOOTH",
"69 217 LINE SMOOTH",
"69 71 OFFCURVE",
"148 -11 OFFCURVE",
"305 -11 CURVE SMOOTH"
);
},
{
closed = 1;
nodes = (
"203 61 OFFCURVE",
"149 114 OFFCURVE",
"149 219 CURVE SMOOTH",
"149 436 LINE SMOOTH",
"149 541 OFFCURVE",
"203 594 OFFCURVE",
"305 594 CURVE SMOOTH",
"406 594 OFFCURVE",
"461 541 OFFCURVE",
"461 436 CURVE SMOOTH",
"461 219 LINE SMOOTH",
"461 114 OFFCURVE",
"406 61 OFFCURVE",
"305 61 CURVE SMOOTH"
);
}
);
width = 610;
},
{
anchors = (
{
name = bottom;
position = "{320, 89}";
},
{
name = center;
position = "{320, 239}";
},
{
name = ogonek;
position = "{576, 10}";
},
{
name = top;
position = "{320.007, 655}";
},
{
name = topleft;
position = "{21, 655}";
},
{
name = topright;
position = "{621, 655}";
}
);
layerId = "C3548BD9-1E85-4E1D-92F7-AFAA54E0B7ED";
paths = (
{
closed = 1;
nodes = (
"504 -11 OFFCURVE",
"602 78 OFFCURVE",
"602 252 CURVE SMOOTH",
"602 402 LINE SMOOTH",
"602 577 OFFCURVE",
"504 666 OFFCURVE",
"320 666 CURVE SMOOTH",
"136 666 OFFCURVE",
"38 577 OFFCURVE",
"38 402 CURVE SMOOTH",
"38 252 LINE SMOOTH",
"38 78 OFFCURVE",
"136 -11 OFFCURVE",
"320 -11 CURVE SMOOTH"
);
},
{
closed = 1;
nodes = (
"250 147 OFFCURVE",
"219 187 OFFCURVE",
"219 265 CURVE SMOOTH",
"219 390 LINE SMOOTH",
"219 468 OFFCURVE",
"250 508 OFFCURVE",
"320 508 CURVE SMOOTH",
"390 508 OFFCURVE",
"421 468 OFFCURVE",
"421 390 CURVE SMOOTH",
"421 265 LINE SMOOTH",
"421 187 OFFCURVE",
"390 147 OFFCURVE",
"320 147 CURVE SMOOTH"
);
}
);
width = 640;
}
);
leftKerningGroup = O;
rightKerningGroup = O;
unicode = 004F;
},
{
glyphname = Oslash;
lastChange = "2022-11-08 22:11:58 +0000";
layers = (
{
anchors = (
{
name = top;
position = "{301, 655}";
}
);
components = (
{
alignment = -1;
name = O;
}
);
layerId = "AC740033-F94D-4FA6-A763-4DA6F9230F00";
paths = (
{
closed = 1;
nodes = (
"80 -48 LINE SMOOTH",
"81 -48 OFFCURVE",
"82 -48 OFFCURVE",
"83 -46 CURVE SMOOTH",
"142 51 LINE",
"145 56 LINE",
"469 588 LINE",
"472 594 LINE",
"536 699 LINE SMOOTH",
"537 701 OFFCURVE",
"537 703 OFFCURVE",
"535 703 CURVE SMOOTH",
"523 703 LINE SMOOTH",
"522 703 OFFCURVE",
"521 703 OFFCURVE",
"520 701 CURVE SMOOTH",
"461 605 LINE",
"457 599 LINE",
"134 68 LINE",
"130 61 LINE",
"66 -44 LINE SMOOTH",
"65 -46 OFFCURVE",
"66 -48 OFFCURVE",
"68 -48 CURVE SMOOTH"
);
}
);
width = 603;
},
{
anchors = (
{
name = top;
position = "{305, 655}";
}
);
components = (
{
alignment = -1;
name = O;
}
);
layerId = "2868C049-E6E5-4053-858B-0FFDC5626279";
paths = (
{
closed = 1;
nodes = (
"112 -50 LINE SMOOTH",
"117 -50 OFFCURVE",
"120 -49 OFFCURVE",
"123 -44 CURVE SMOOTH",
"175 43 LINE",
"191 74 LINE",
"463 527 LINE",
"486 567 LINE",
"561 694 LINE SMOOTH",
"565 700 OFFCURVE",
"563 705 OFFCURVE",
"556 705 CURVE SMOOTH",
"498 705 LINE SMOOTH",
"493 705 OFFCURVE",
"490 704 OFFCURVE",
"487 699 CURVE SMOOTH",
"436 614 LINE",
"423 588 LINE",
"151 133 LINE",
"123 85 LINE",
"49 -39 LINE SMOOTH",
"45 -45 OFFCURVE",
"47 -50 OFFCURVE",
"54 -50 CURVE SMOOTH"
);
}
);
width = 610;
},
{
anchors = (
{
name = top;
position = "{320, 655}";
}
);
components = (
{
alignment = -1;
name = O;
}
);
layerId = "C3548BD9-1E85-4E1D-92F7-AFAA54E0B7ED";
paths = (
{
closed = 1;
nodes = (
"185 -50 LINE SMOOTH",
"193 -50 OFFCURVE",
"199 -48 OFFCURVE",
"203 -40 CURVE SMOOTH",
"228 11 LINE",
"279 141 LINE",
"437 451 LINE",
"524 577 LINE",
"581 687 LINE SMOOTH",
"586 697 OFFCURVE",
"582 705 OFFCURVE",
"571 705 CURVE SMOOTH",
"457 705 LINE SMOOTH",
"449 705 OFFCURVE",
"443 702 OFFCURVE",
"440 694 CURVE SMOOTH",
"414 642 LINE",
"365 514 LINE",
"200 195 LINE",
"121 83 LINE",
"60 -32 LINE SMOOTH",
"54 -43 OFFCURVE",
"60 -50 OFFCURVE",
"71 -50 CURVE SMOOTH"
);
}
);
width = 640;
}
);
leftKerningGroup = O;
rightKerningGroup = O;
unicode = 00D8;
},
{
glyphname = OE;
lastChange = "2022-11-08 22:11:58 +0000";
layers = (
{
layerId = "AC740033-F94D-4FA6-A763-4DA6F9230F00";
paths = (
{
closed = 1;
nodes = (
"339 -11 OFFCURVE",
"383 -5 OFFCURVE",
"408 0 CURVE",
"735 0 LINE SMOOTH",
"737 0 OFFCURVE",
"738 1 OFFCURVE",
"738 3 CURVE SMOOTH",
"738 13 LINE SMOOTH",
"738 15 OFFCURVE",
"737 16 OFFCURVE",
"735 16 CURVE SMOOTH",
"423 16 LINE",
"423 328 LINE",
"714 328 LINE SMOOTH",
"716 328 OFFCURVE",
"717 329 OFFCURVE",
"717 331 CURVE SMOOTH",
"717 341 LINE SMOOTH",
"717 343 OFFCURVE",
"716 344 OFFCURVE",
"714 344 CURVE SMOOTH",
"423 344 LINE",
"423 639 LINE",
"735 639 LINE SMOOTH",
"737 639 OFFCURVE",
"738 640 OFFCURVE",
"738 642 CURVE SMOOTH",
"738 652 LINE SMOOTH",
"738 654 OFFCURVE",
"737 655 OFFCURVE",
"735 655 CURVE SMOOTH",
"407 655 LINE",
"377 662 OFFCURVE",
"339 666 OFFCURVE",
"301 666 CURVE SMOOTH",
"161 666 OFFCURVE",
"83 590 OFFCURVE",
"83 457 CURVE SMOOTH",
"83 198 LINE SMOOTH",
"83 65 OFFCURVE",
"161 -11 OFFCURVE",
"301 -11 CURVE SMOOTH"
);
},
{
closed = 1;
nodes = (
"171 5 OFFCURVE",
"99 75 OFFCURVE",
"99 199 CURVE SMOOTH",
"99 456 LINE SMOOTH",
"99 580 OFFCURVE",
"171 650 OFFCURVE",
"301 650 CURVE SMOOTH",
"339 650 OFFCURVE",
"380 645 OFFCURVE",
"407 638 CURVE",
"407 16 LINE",
"380 10 OFFCURVE",
"336 5 OFFCURVE",
"301 5 CURVE SMOOTH"
);
}
);
width = 823;
},
{
layerId = "2868C049-E6E5-4053-858B-0FFDC5626279";
paths = (
{
closed = 1;
nodes = (
"338 -11 OFFCURVE",
"378 -7 OFFCURVE",
"404 0 CURVE",
"752 0 LINE SMOOTH",
"758 0 OFFCURVE",
"761 4 OFFCURVE",
"761 9 CURVE SMOOTH",
"761 64 LINE SMOOTH",
"761 69 OFFCURVE",
"758 73 OFFCURVE",
"752 73 CURVE SMOOTH",
"482 73 LINE",
"482 298 LINE",
"730 298 LINE SMOOTH",
"735 298 OFFCURVE",
"739 302 OFFCURVE",
"739 307 CURVE SMOOTH",
"739 359 LINE SMOOTH",
"739 365 OFFCURVE",
"735 368 OFFCURVE",
"730 368 CURVE SMOOTH",
"482 368 LINE",
"482 582 LINE",
"752 582 LINE SMOOTH",
"758 582 OFFCURVE",
"761 586 OFFCURVE",
"761 591 CURVE SMOOTH",
"761 646 LINE SMOOTH",
"761 651 OFFCURVE",
"758 655 OFFCURVE",
"752 655 CURVE SMOOTH",
"404 655 LINE",
"377 662 OFFCURVE",
"338 666 OFFCURVE",
"305 666 CURVE SMOOTH",
"148 666 OFFCURVE",
"69 583 OFFCURVE",
"69 437 CURVE SMOOTH",
"69 217 LINE SMOOTH",
"69 72 OFFCURVE",
"148 -11 OFFCURVE",
"305 -11 CURVE SMOOTH"
);
},
{
closed = 1;
nodes = (
"203 61 OFFCURVE",
"149 115 OFFCURVE",
"149 218 CURVE SMOOTH",
"149 437 LINE SMOOTH",
"149 540 OFFCURVE",
"203 594 OFFCURVE",
"305 594 CURVE SMOOTH",
"340 594 OFFCURVE",
"378 591 OFFCURVE",
"402 585 CURVE",
"402 70 LINE",
"378 64 OFFCURVE",
"340 61 OFFCURVE",
"305 61 CURVE SMOOTH"
);
}
);
width = 830;
},
{
layerId = "C3548BD9-1E85-4E1D-92F7-AFAA54E0B7ED";
paths = (
{
closed = 1;
nodes = (
"350 -11 OFFCURVE",
"386 -7 OFFCURVE",
"411 0 CURVE",
"814 0 LINE SMOOTH",
"822 0 OFFCURVE",
"827 6 OFFCURVE",
"827 15 CURVE SMOOTH",
"827 142 LINE SMOOTH",
"827 150 OFFCURVE",
"822 156 OFFCURVE",
"814 156 CURVE SMOOTH",
"565 156 LINE",
"565 255 LINE",
"791 255 LINE SMOOTH",
"799 255 OFFCURVE",
"805 261 OFFCURVE",
"805 270 CURVE SMOOTH",
"805 388 LINE SMOOTH",
"805 397 OFFCURVE",
"799 403 OFFCURVE",
"791 403 CURVE SMOOTH",
"565 403 LINE",
"565 499 LINE",
"814 499 LINE SMOOTH",
"822 499 OFFCURVE",
"827 505 OFFCURVE",
"827 513 CURVE SMOOTH",
"827 640 LINE SMOOTH",
"827 649 OFFCURVE",
"822 655 OFFCURVE",
"814 655 CURVE SMOOTH",
"410 655 LINE",
"385 662 OFFCURVE",
"345 666 OFFCURVE",
"318 666 CURVE SMOOTH",
"132 666 OFFCURVE",
"38 577 OFFCURVE",
"38 402 CURVE SMOOTH",
"38 252 LINE SMOOTH",
"38 78 OFFCURVE",
"131 -11 OFFCURVE",
"318 -11 CURVE SMOOTH"
);
},
{
closed = 1;
nodes = (
"250 145 OFFCURVE",
"219 185 OFFCURVE",
"219 263 CURVE SMOOTH",
"219 392 LINE SMOOTH",
"219 470 OFFCURVE",
"250 510 OFFCURVE",
"322 510 CURVE SMOOTH",
"344 510 OFFCURVE",
"369 505 OFFCURVE",
"384 498 CURVE",
"384 154 LINE",
"369 148 OFFCURVE",
"349 145 OFFCURVE",
"322 145 CURVE SMOOTH"
);
}
);
width = 866;
}
);
leftKerningGroup = O;
leftMetricsKey = O;
rightKerningGroup = E;
rightMetricsKey = E;
unicode = 0152;
},
{
glyphname = P;
lastChange = "2022-11-08 22:11:58 +0000";
layers = (
{
anchors = (
{
name = bottom;
position = "{258, 0}";
},
{
name = top;
position = "{258, 655}";
}
);
layerId = "AC740033-F94D-4FA6-A763-4DA6F9230F00";
paths = (
{
closed = 1;
nodes = (
"112 0 LINE SMOOTH",
"114 0 OFFCURVE",
"115 1 OFFCURVE",
"115 3 CURVE SMOOTH",
"115 277 LINE",
"238 277 LINE SMOOTH",
"392 277 OFFCURVE",
"459 342 OFFCURVE",
"459 465 CURVE SMOOTH",
"459 600 OFFCURVE",
"381 655 OFFCURVE",
"242 655 CURVE SMOOTH",
"102 655 LINE SMOOTH",
"100 655 OFFCURVE",
"99 654 OFFCURVE",
"99 652 CURVE SMOOTH",
"99 3 LINE SMOOTH",
"99 1 OFFCURVE",
"100 0 OFFCURVE",
"102 0 CURVE SMOOTH"
);
},
{
closed = 1;
nodes = (
"115 639 LINE",
"244 639 LINE SMOOTH",
"374 639 OFFCURVE",
"443 587 OFFCURVE",
"443 465 CURVE SMOOTH",
"443 356 OFFCURVE",
"387 293 OFFCURVE",
"238 293 CURVE SMOOTH",
"115 293 LINE"
);
}
);
width = 515;
},
{
anchors = (
{
name = bottom;
position = "{260, 0}";
},
{
name = top;
position = "{260, 655}";
}
);
layerId = "2868C049-E6E5-4053-858B-0FFDC5626279";
paths = (
{
closed = 1;
nodes = (
"152 0 LINE SMOOTH",
"158 0 OFFCURVE",
"161 4 OFFCURVE",
"161 9 CURVE SMOOTH",
"161 248 LINE",
"249 248 LINE SMOOTH",
"402 248 OFFCURVE",
"481 319 OFFCURVE",
"481 451 CURVE SMOOTH",
"481 587 OFFCURVE",
"402 655 OFFCURVE",
"249 655 CURVE SMOOTH",
"90 655 LINE SMOOTH",
"84 655 OFFCURVE",
"81 651 OFFCURVE",
"81 646 CURVE SMOOTH",
"81 9 LINE SMOOTH",
"81 4 OFFCURVE",
"84 0 OFFCURVE",
"90 0 CURVE SMOOTH"
);
},
{
closed = 1;
nodes = (
"161 586 LINE",
"246 586 LINE SMOOTH",
"351 586 OFFCURVE",
"400 545 OFFCURVE",
"400 449 CURVE SMOOTH",
"400 361 OFFCURVE",
"355 318 OFFCURVE",
"247 318 CURVE SMOOTH",
"161 318 LINE"
);
}
);
width = 520;
},
{
anchors = (
{
name = bottom;
position = "{274, 0}";
},
{
name = top;
position = "{274, 655}";
}
);
layerId = "C3548BD9-1E85-4E1D-92F7-AFAA54E0B7ED";
paths = (
{
closed = 1;
nodes = (
"216 0 LINE SMOOTH",
"224 0 OFFCURVE",
"230 6 OFFCURVE",
"230 15 CURVE SMOOTH",
"230 198 LINE",
"277 198 LINE SMOOTH",
"453 198 OFFCURVE",
"538 281 OFFCURVE",
"538 424 CURVE SMOOTH",
"538 576 OFFCURVE",
"462 655 OFFCURVE",
"275 655 CURVE SMOOTH",
"64 655 LINE SMOOTH",
"55 655 OFFCURVE",
"49 649 OFFCURVE",
"49 640 CURVE SMOOTH",
"49 15 LINE SMOOTH",
"49 6 OFFCURVE",
"55 0 OFFCURVE",
"64 0 CURVE SMOOTH"
);
},
{
closed = 1;
nodes = (
"230 499 LINE",
"276 499 LINE SMOOTH",
"330 499 OFFCURVE",
"357 479 OFFCURVE",
"357 425 CURVE SMOOTH",
"357 372 OFFCURVE",
"326 352 OFFCURVE",
"275 352 CURVE SMOOTH",
"230 352 LINE"
);
}
);
width = 561;
}
);
leftKerningGroup = H;
leftMetricsKey = H;
rightKerningGroup = P;
unicode = 0050;
},
{
glyphname = Thorn;
lastChange = "2022-11-08 22:11:58 +0000";
layers = (
{
layerId = "AC740033-F94D-4FA6-A763-4DA6F9230F00";
paths = (
{
closed = 1;
nodes = (
"112 0 LINE SMOOTH",
"114 0 OFFCURVE",
"115 1 OFFCURVE",
"115 3 CURVE SMOOTH",
"115 150 LINE",
"238 150 LINE SMOOTH",
"392 150 OFFCURVE",
"459 215 OFFCURVE",
"459 338 CURVE SMOOTH",
"459 473 OFFCURVE",
"381 528 OFFCURVE",
"242 528 CURVE SMOOTH",
"115 528 LINE",
"115 652 LINE SMOOTH",
"115 654 OFFCURVE",
"114 655 OFFCURVE",
"112 655 CURVE SMOOTH",
"102 655 LINE SMOOTH",
"100 655 OFFCURVE",
"99 654 OFFCURVE",
"99 652 CURVE SMOOTH",
"99 3 LINE SMOOTH",
"99 1 OFFCURVE",
"100 0 OFFCURVE",
"102 0 CURVE SMOOTH"
);
},
{
closed = 1;
nodes = (
"115 512 LINE",
"244 512 LINE SMOOTH",
"374 512 OFFCURVE",
"443 460 OFFCURVE",
"443 338 CURVE SMOOTH",
"443 229 OFFCURVE",
"387 166 OFFCURVE",
"238 166 CURVE SMOOTH",
"115 166 LINE"
);
}
);
width = 515;
},
{
layerId = "2868C049-E6E5-4053-858B-0FFDC5626279";
paths = (
{
closed = 1;
nodes = (
"152 0 LINE SMOOTH",
"158 0 OFFCURVE",
"161 4 OFFCURVE",
"161 9 CURVE SMOOTH",
"161 136 LINE",
"249 136 LINE SMOOTH",
"402 136 OFFCURVE",
"481 207 OFFCURVE",
"481 340 CURVE SMOOTH",
"481 475 OFFCURVE",
"402 543 OFFCURVE",
"249 543 CURVE SMOOTH",
"161 543 LINE",
"161 646 LINE SMOOTH",
"161 651 OFFCURVE",
"158 655 OFFCURVE",
"152 655 CURVE SMOOTH",
"90 655 LINE SMOOTH",
"84 655 OFFCURVE",
"81 651 OFFCURVE",
"81 646 CURVE SMOOTH",
"81 9 LINE SMOOTH",
"81 4 OFFCURVE",
"84 0 OFFCURVE",
"90 0 CURVE SMOOTH"
);
},
{
closed = 1;
nodes = (
"161 474 LINE",
"246 474 LINE SMOOTH",
"351 474 OFFCURVE",
"400 433 OFFCURVE",
"400 337 CURVE SMOOTH",
"400 249 OFFCURVE",
"355 206 OFFCURVE",
"247 206 CURVE SMOOTH",
"161 206 LINE"
);
}
);
width = 520;
},
{
layerId = "C3548BD9-1E85-4E1D-92F7-AFAA54E0B7ED";
paths = (
{
closed = 1;
nodes = (
"216 0 LINE SMOOTH",
"224 0 OFFCURVE",
"230 6 OFFCURVE",
"230 15 CURVE SMOOTH",
"230 109 LINE",
"277 109 LINE SMOOTH",
"453 109 OFFCURVE",
"538 192 OFFCURVE",
"538 336 CURVE SMOOTH",
"538 487 OFFCURVE",
"462 567 OFFCURVE",
"275 567 CURVE SMOOTH",
"230 567 LINE",
"230 640 LINE SMOOTH",
"230 649 OFFCURVE",
"224 655 OFFCURVE",
"216 655 CURVE SMOOTH",
"64 655 LINE SMOOTH",
"55 655 OFFCURVE",
"49 649 OFFCURVE",
"49 640 CURVE SMOOTH",
"49 15 LINE SMOOTH",
"49 6 OFFCURVE",
"55 0 OFFCURVE",
"64 0 CURVE SMOOTH"
);
},
{
closed = 1;
nodes = (
"230 411 LINE",
"276 411 LINE SMOOTH",
"330 411 OFFCURVE",
"357 390 OFFCURVE",
"357 337 CURVE SMOOTH",
"357 284 OFFCURVE",
"326 264 OFFCURVE",
"275 264 CURVE SMOOTH",
"230 264 LINE"
);
}
);
width = 561;
}
);
leftKerningGroup = H;
leftMetricsKey = H;
rightKerningGroup = Thorn;
rightMetricsKey = P;
unicode = 00DE;
},
{
glyphname = Q;
lastChange = "2022-11-08 22:11:58 +0000";
layers = (
{
anchors = (
{
name = bottom;
position = "{301, 0}";
},
{
name = top;
position = "{301, 655}";
}
);
components = (
{
alignment = -1;
name = O;
}
);
layerId = "AC740033-F94D-4FA6-A763-4DA6F9230F00";
paths = (
{
closed = 1;
nodes = (
"430 -172 OFFCURVE",
"445 -171 OFFCURVE",
"457 -165 CURVE SMOOTH",
"459 -164 OFFCURVE",
"459 -163 OFFCURVE",
"459 -161 CURVE SMOOTH",
"459 -151 LINE SMOOTH",
"459 -148 OFFCURVE",
"458 -147 OFFCURVE",
"456 -148 CURVE SMOOTH",
"445 -154 OFFCURVE",
"432 -156 OFFCURVE",
"417 -156 CURVE SMOOTH",
"365 -156 OFFCURVE",
"341 -93 OFFCURVE",
"342 -3 CURVE SMOOTH",
"342 -1 OFFCURVE",
"341 0 OFFCURVE",
"339 0 CURVE SMOOTH",
"329 0 LINE SMOOTH",
"327 0 OFFCURVE",
"326 -1 OFFCURVE",
"326 -3 CURVE SMOOTH",
"326 -100 OFFCURVE",
"348 -172 OFFCURVE",
"417 -172 CURVE SMOOTH"
);
}
);
width = 603;
},
{
anchors = (
{
name = bottom;
position = "{304, 0}";
},
{
name = top;
position = "{304, 655}";
}
);
components = (
{
alignment = -1;
name = O;
}
);
layerId = "2868C049-E6E5-4053-858B-0FFDC5626279";
paths = (
{
closed = 1;
nodes = (
"437 -181 OFFCURVE",
"455 -178 OFFCURVE",
"466 -174 CURVE SMOOTH",
"474 -171 OFFCURVE",
"476 -168 OFFCURVE",
"476 -162 CURVE SMOOTH",
"476 -112 LINE SMOOTH",
"476 -105 OFFCURVE",
"473 -102 OFFCURVE",
"466 -103 CURVE SMOOTH",
"456 -106 OFFCURVE",
"445 -109 OFFCURVE",
"435 -109 CURVE SMOOTH",
"392 -109 OFFCURVE",
"373 -73 OFFCURVE",
"375 26 CURVE SMOOTH",
"375 32 OFFCURVE",
"371 36 OFFCURVE",
"366 36 CURVE SMOOTH",
"309 38 LINE SMOOTH",
"303 38 OFFCURVE",
"300 35 OFFCURVE",
"300 29 CURVE SMOOTH",
"294 -115 OFFCURVE",
"338 -181 OFFCURVE",
"420 -181 CURVE SMOOTH"
);
}
);
width = 610;
},
{
anchors = (
{
name = bottom;
position = "{319, 0}";
},
{
name = top;
position = "{319, 655}";
}
);
components = (
{
alignment = -1;
name = O;
}
);
layerId = "C3548BD9-1E85-4E1D-92F7-AFAA54E0B7ED";
paths = (
{
closed = 1;
nodes = (
"493 -185 OFFCURVE",
"520 -176 OFFCURVE",
"537 -167 CURVE SMOOTH",
"544 -163 OFFCURVE",
"545 -157 OFFCURVE",
"545 -149 CURVE SMOOTH",
"545 -62 LINE SMOOTH",
"545 -52 OFFCURVE",
"541 -45 OFFCURVE",
"530 -49 CURVE SMOOTH",
"519 -53 OFFCURVE",
"508 -56 OFFCURVE",
"491 -56 CURVE SMOOTH",
"452 -56 OFFCURVE",
"443 -18 OFFCURVE",
"443 45 CURVE SMOOTH",
"443 55 OFFCURVE",
"437 60 OFFCURVE",
"429 60 CURVE SMOOTH",
"311 58 LINE SMOOTH",
"302 58 OFFCURVE",
"296 53 OFFCURVE",
"296 43 CURVE SMOOTH",
"291 -112 OFFCURVE",
"352 -185 OFFCURVE",
"456 -185 CURVE SMOOTH"
);
}
);
width = 640;
}
);
leftKerningGroup = O;
leftMetricsKey = O;
rightKerningGroup = O;
rightMetricsKey = O;
unicode = 0051;
},
{
glyphname = R;
lastChange = "2022-11-08 22:11:58 +0000";
layers = (
{
anchors = (
{
name = bottom;
position = "{278, 0}";
},
{
name = top;
position = "{258, 655}";
}
);
layerId = "AC740033-F94D-4FA6-A763-4DA6F9230F00";
paths = (
{
closed = 1;
nodes = (
"112 0 LINE SMOOTH",
"114 0 OFFCURVE",
"115 1 OFFCURVE",
"115 3 CURVE SMOOTH",
"115 303 LINE",
"304 303 LINE",
"481 2 LINE SMOOTH",
"482 0 OFFCURVE",
"483 0 OFFCURVE",
"484 0 CURVE SMOOTH",
"496 0 LINE SMOOTH",
"498 0 OFFCURVE",
"499 2 OFFCURVE",
"498 4 CURVE SMOOTH",
"321 305 LINE",
"321 306 LINE",
"421 321 OFFCURVE",
"471 383 OFFCURVE",
"471 478 CURVE SMOOTH",
"471 601 OFFCURVE",
"396 655 OFFCURVE",
"274 655 CURVE SMOOTH",
"102 655 LINE SMOOTH",
"100 655 OFFCURVE",
"99 654 OFFCURVE",
"99 652 CURVE SMOOTH",
"99 3 LINE SMOOTH",
"99 1 OFFCURVE",
"100 0 OFFCURVE",
"102 0 CURVE SMOOTH"
);
},
{
closed = 1;
nodes = (
"115 639 LINE",
"275 639 LINE SMOOTH",
"389 639 OFFCURVE",
"455 588 OFFCURVE",
"455 478 CURVE SMOOTH",
"455 382 OFFCURVE",
"401 319 OFFCURVE",
"270 319 CURVE SMOOTH",
"115 319 LINE"
);
}
);
width = 557;
},
{
anchors = (
{
name = bottom;
position = "{288, 0}";
},
{
name = top;
position = "{262, 655}";
}
);
layerId = "2868C049-E6E5-4053-858B-0FFDC5626279";
paths = (
{
closed = 1;
nodes = (
"152 0 LINE SMOOTH",
"158 0 OFFCURVE",
"161 4 OFFCURVE",
"161 9 CURVE SMOOTH",
"161 280 LINE",
"285 280 LINE",
"439 6 LINE SMOOTH",
"442 2 OFFCURVE",
"446 0 OFFCURVE",
"450 0 CURVE SMOOTH",
"523 0 LINE SMOOTH",
"530 0 OFFCURVE",
"532 5 OFFCURVE",
"529 11 CURVE SMOOTH",
"369 290 LINE",
"370 291 LINE",
"451 314 OFFCURVE",
"497 378 OFFCURVE",
"497 474 CURVE SMOOTH",
"497 596 OFFCURVE",
"423 655 OFFCURVE",
"273 655 CURVE SMOOTH",
"90 655 LINE SMOOTH",
"84 655 OFFCURVE",
"81 651 OFFCURVE",
"81 646 CURVE SMOOTH",
"81 9 LINE SMOOTH",
"81 4 OFFCURVE",
"84 0 OFFCURVE",
"90 0 CURVE SMOOTH"
);
},
{
closed = 1;
nodes = (
"161 586 LINE",
"271 586 LINE SMOOTH",
"373 586 OFFCURVE",
"416 552 OFFCURVE",
"416 469 CURVE SMOOTH",
"416 384 OFFCURVE",
"372 345 OFFCURVE",
"266 345 CURVE SMOOTH",
"161 345 LINE"
);
}
);
width = 573;
},
{
anchors = (
{
name = bottom;
position = "{312, 0}";
},
{
name = top;
position = "{271, 655}";
}
);
layerId = "C3548BD9-1E85-4E1D-92F7-AFAA54E0B7ED";
paths = (
{
closed = 1;
nodes = (
"216 0 LINE SMOOTH",
"224 0 OFFCURVE",
"230 6 OFFCURVE",
"230 15 CURVE SMOOTH",
"230 231 LINE",
"275 231 LINE",
"397 10 LINE SMOOTH",
"401 3 OFFCURVE",
"407 0 OFFCURVE",
"414 0 CURVE SMOOTH",
"584 0 LINE SMOOTH",
"595 0 OFFCURVE",
"599 8 OFFCURVE",
"593 18 CURVE SMOOTH",
"449 258 LINE",
"449 260 LINE",
"527 285 OFFCURVE",
"558 350 OFFCURVE",
"558 437 CURVE SMOOTH",
"558 579 OFFCURVE",
"482 655 OFFCURVE",
"294 655 CURVE SMOOTH",
"64 655 LINE SMOOTH",
"55 655 OFFCURVE",
"49 649 OFFCURVE",
"49 640 CURVE SMOOTH",
"49 15 LINE SMOOTH",
"49 6 OFFCURVE",
"55 0 OFFCURVE",
"64 0 CURVE SMOOTH"
);
},
{
closed = 1;
nodes = (
"230 501 LINE",
"299 501 LINE SMOOTH",
"354 501 OFFCURVE",
"377 481 OFFCURVE",
"377 437 CURVE SMOOTH",
"377 392 OFFCURVE",
"349 373 OFFCURVE",
"296 373 CURVE SMOOTH",
"230 373 LINE"
);
}
);
width = 604;
}
);
leftKerningGroup = H;
leftMetricsKey = H;
rightKerningGroup = R;
unicode = 0052;
},
{
glyphname = S;
lastChange = "2022-11-08 22:11:58 +0000";
layers = (
{
anchors = (
{
name = bottom;
position = "{254, 0}";
},
{
name = top;
position = "{254, 655}";
}
);
layerId = "AC740033-F94D-4FA6-A763-4DA6F9230F00";
paths = (
{
closed = 1;
nodes = (
"399 -11 OFFCURVE",
"455 35 OFFCURVE",
"455 142 CURVE SMOOTH",
"455 242 OFFCURVE",
"418 274 OFFCURVE",
"311 325 CURVE SMOOTH",
"204 376 LINE SMOOTH",
"119 416 OFFCURVE",
"87 445 OFFCURVE",
"87 527 CURVE SMOOTH",
"87 610 OFFCURVE",
"153 650 OFFCURVE",
"258 650 CURVE SMOOTH",
"378 650 OFFCURVE",
"430 595 OFFCURVE",
"429 492 CURVE SMOOTH",
"429 490 OFFCURVE",
"430 489 OFFCURVE",
"432 489 CURVE SMOOTH",
"442 489 LINE SMOOTH",
"444 489 OFFCURVE",
"445 490 OFFCURVE",
"445 492 CURVE SMOOTH",
"446 606 OFFCURVE",
"389 666 OFFCURVE",
"257 666 CURVE SMOOTH",
"142 666 OFFCURVE",
"71 620 OFFCURVE",
"71 527 CURVE SMOOTH",
"71 439 OFFCURVE",
"106 404 OFFCURVE",
"195 362 CURVE SMOOTH",
"301 312 LINE SMOOTH",
"398 267 OFFCURVE",
"439 237 OFFCURVE",
"439 142 CURVE SMOOTH",
"439 44 OFFCURVE",
"389 5 OFFCURVE",
"254 5 CURVE SMOOTH",
"125 5 OFFCURVE",
"74 56 OFFCURVE",
"75 167 CURVE SMOOTH",
"75 169 OFFCURVE",
"74 170 OFFCURVE",
"72 170 CURVE SMOOTH",
"62 170 LINE SMOOTH",
"60 170 OFFCURVE",
"59 169 OFFCURVE",
"59 167 CURVE SMOOTH",
"58 44 OFFCURVE",
"113 -11 OFFCURVE",
"254 -11 CURVE SMOOTH"
);
}
);
width = 518;
},
{
anchors = (
{
name = bottom;
position = "{273, 0}";
},
{
name = top;
position = "{265, 655}";
}
);
layerId = "2868C049-E6E5-4053-858B-0FFDC5626279";
paths = (
{
closed = 1;
nodes = (
"417 -11 OFFCURVE",
"485 53 OFFCURVE",
"485 163 CURVE SMOOTH",
"485 251 OFFCURVE",
"451 294 OFFCURVE",
"361 336 CURVE SMOOTH",
"230 396 LINE SMOOTH",
"162 426 OFFCURVE",
"138 453 OFFCURVE",
"139 505 CURVE SMOOTH",
"140 566 OFFCURVE",
"182 595 OFFCURVE",
"260 595 CURVE SMOOTH",
"349 595 OFFCURVE",
"398 555 OFFCURVE",
"394 485 CURVE SMOOTH",
"393 472 OFFCURVE",
"396 469 OFFCURVE",
"402 469 CURVE SMOOTH",
"463 469 LINE SMOOTH",
"469 469 OFFCURVE",
"472 474 OFFCURVE",
"473 485 CURVE SMOOTH",
"482 600 OFFCURVE",
"399 665 OFFCURVE",
"262 665 CURVE SMOOTH",
"131 665 OFFCURVE",
"60 609 OFFCURVE",
"59 501 CURVE SMOOTH",
"58 421 OFFCURVE",
"94 374 OFFCURVE",
"181 334 CURVE SMOOTH",
"314 273 LINE SMOOTH",
"381 244 OFFCURVE",
"405 218 OFFCURVE",
"405 162 CURVE SMOOTH",
"405 92 OFFCURVE",
"360 59 OFFCURVE",
"268 59 CURVE SMOOTH",
"173 59 OFFCURVE",
"129 95 OFFCURVE",
"130 177 CURVE SMOOTH",
"131 185 OFFCURVE",
"128 191 OFFCURVE",
"120 191 CURVE SMOOTH",
"59 191 LINE SMOOTH",
"53 191 OFFCURVE",
"50 187 OFFCURVE",
"49 175 CURVE SMOOTH",
"42 62 OFFCURVE",
"109 -11 OFFCURVE",
"262 -11 CURVE SMOOTH"
);
}
);
width = 536;
},
{
anchors = (
{
name = bottom;
position = "{281, 0}";
},
{
name = top;
position = "{273, 655}";
}
);
layerId = "C3548BD9-1E85-4E1D-92F7-AFAA54E0B7ED";
paths = (
{
closed = 1;
nodes = (
"448 -11 OFFCURVE",
"524 51 OFFCURVE",
"525 175 CURVE SMOOTH",
"526 267 OFFCURVE",
"495 319 OFFCURVE",
"394 367 CURVE SMOOTH",
"262 429 LINE SMOOTH",
"226 445 OFFCURVE",
"212 458 OFFCURVE",
"212 477 CURVE SMOOTH",
"212 503 OFFCURVE",
"231 517 OFFCURVE",
"270 517 CURVE SMOOTH",
"314 517 OFFCURVE",
"337 491 OFFCURVE",
"334 463 CURVE SMOOTH",
"333 452 OFFCURVE",
"338 446 OFFCURVE",
"348 446 CURVE SMOOTH",
"497 446 LINE SMOOTH",
"506 446 OFFCURVE",
"511 452 OFFCURVE",
"512 463 CURVE SMOOTH",
"524 599 OFFCURVE",
"441 666 OFFCURVE",
"265 666 CURVE SMOOTH",
"108 666 OFFCURVE",
"32 599 OFFCURVE",
"31 483 CURVE SMOOTH",
"30 392 OFFCURVE",
"61 339 OFFCURVE",
"161 291 CURVE SMOOTH",
"294 228 LINE SMOOTH",
"331 211 OFFCURVE",
"344 198 OFFCURVE",
"344 180 CURVE SMOOTH",
"344 152 OFFCURVE",
"323 142 OFFCURVE",
"273 142 CURVE SMOOTH",
"223 142 OFFCURVE",
"200 165 OFFCURVE",
"203 200 CURVE SMOOTH",
"204 210 OFFCURVE",
"199 214 OFFCURVE",
"190 214 CURVE SMOOTH",
"42 214 LINE SMOOTH",
"33 214 OFFCURVE",
"27 209 OFFCURVE",
"26 199 CURVE SMOOTH",
"12 55 OFFCURVE",
"90 -11 OFFCURVE",
"270 -11 CURVE SMOOTH"
);
}
);
width = 555;
}
);
leftKerningGroup = S;
rightKerningGroup = S;
unicode = 0053;
},
{
glyphname = Germandbls;
lastChange = "2022-11-08 22:11:58 +0000";
layers = (
{
layerId = "AC740033-F94D-4FA6-A763-4DA6F9230F00";
paths = (
{
closed = 1;
nodes = (
"492 -11 OFFCURVE",
"550 59 OFFCURVE",
"550 185 CURVE SMOOTH",
"550 321 OFFCURVE",
"482 375 OFFCURVE",
"319 375 CURVE",
"484 648 LINE SMOOTH",
"486 651 OFFCURVE",
"485 655 OFFCURVE",
"482 655 CURVE SMOOTH",
"102 655 LINE SMOOTH",
"100 655 OFFCURVE",
"99 654 OFFCURVE",
"99 652 CURVE SMOOTH",
"99 4 LINE SMOOTH",
"99 2 OFFCURVE",
"100 1 OFFCURVE",
"102 1 CURVE SMOOTH",
"112 1 LINE SMOOTH",
"114 1 OFFCURVE",
"115 2 OFFCURVE",
"115 4 CURVE SMOOTH",
"115 639 LINE",
"459 639 LINE",
"298 369 LINE SMOOTH",
"297 367 OFFCURVE",
"297 366 OFFCURVE",
"297 365 CURVE SMOOTH",
"297 362 LINE SMOOTH",
"297 360 OFFCURVE",
"298 359 OFFCURVE",
"300 359 CURVE SMOOTH",
"329 359 LINE SMOOTH",
"473 359 OFFCURVE",
"534 308 OFFCURVE",
"534 187 CURVE SMOOTH",
"534 68 OFFCURVE",
"482 5 OFFCURVE",
"375 5 CURVE SMOOTH",
"289 5 OFFCURVE",
"242 45 OFFCURVE",
"242 122 CURVE SMOOTH",
"242 124 OFFCURVE",
"241 125 OFFCURVE",
"239 125 CURVE SMOOTH",
"229 125 LINE SMOOTH",
"227 125 OFFCURVE",
"226 124 OFFCURVE",
"226 122 CURVE SMOOTH",
"226 34 OFFCURVE",
"279 -11 OFFCURVE",
"375 -11 CURVE SMOOTH"
);
}
);
width = 611;
},
{
layerId = "2868C049-E6E5-4053-858B-0FFDC5626279";
paths = (
{
closed = 1;
nodes = (
"510 -11 OFFCURVE",
"579 61 OFFCURVE",
"579 195 CURVE SMOOTH",
"579 320 OFFCURVE",
"517 383 OFFCURVE",
"387 391 CURVE",
"531 633 LINE SMOOTH",
"537 644 OFFCURVE",
"534 655 OFFCURVE",
"525 655 CURVE SMOOTH",
"90 655 LINE SMOOTH",
"84 655 OFFCURVE",
"81 651 OFFCURVE",
"81 646 CURVE SMOOTH",
"81 9 LINE SMOOTH",
"81 4 OFFCURVE",
"84 0 OFFCURVE",
"90 0 CURVE SMOOTH",
"152 0 LINE SMOOTH",
"158 0 OFFCURVE",
"161 4 OFFCURVE",
"161 9 CURVE SMOOTH",
"161 582 LINE",
"414 582 LINE",
"298 383 LINE SMOOTH",
"295 378 OFFCURVE",
"294 373 OFFCURVE",
"294 370 CURVE SMOOTH",
"294 337 LINE SMOOTH",
"294 331 OFFCURVE",
"298 328 OFFCURVE",
"303 328 CURVE SMOOTH",
"345 328 LINE SMOOTH",
"455 328 OFFCURVE",
"499 290 OFFCURVE",
"499 194 CURVE SMOOTH",
"499 102 OFFCURVE",
"461 59 OFFCURVE",
"382 59 CURVE SMOOTH",
"324 59 OFFCURVE",
"295 84 OFFCURVE",
"295 128 CURVE SMOOTH",
"295 138 OFFCURVE",
"293 142 OFFCURVE",
"286 142 CURVE SMOOTH",
"231 142 LINE SMOOTH",
"225 142 OFFCURVE",
"221 140 OFFCURVE",
"220 128 CURVE SMOOTH",
"215 43 OFFCURVE",
"274 -11 OFFCURVE",
"382 -11 CURVE SMOOTH"
);
}
);
width = 622;
},
{
layerId = "C3548BD9-1E85-4E1D-92F7-AFAA54E0B7ED";
paths = (
{
closed = 1;
nodes = (
"575 -11 OFFCURVE",
"650 46 OFFCURVE",
"651 196 CURVE SMOOTH",
"652 311 OFFCURVE",
"604 379 OFFCURVE",
"509 402 CURVE",
"606 630 LINE SMOOTH",
"611 644 OFFCURVE",
"604 655 OFFCURVE",
"591 655 CURVE SMOOTH",
"64 655 LINE SMOOTH",
"55 655 OFFCURVE",
"49 649 OFFCURVE",
"49 640 CURVE SMOOTH",
"49 15 LINE SMOOTH",
"49 6 OFFCURVE",
"55 0 OFFCURVE",
"64 0 CURVE SMOOTH",
"216 0 LINE SMOOTH",
"224 0 OFFCURVE",
"230 6 OFFCURVE",
"230 15 CURVE SMOOTH",
"230 496 LINE",
"372 496 LINE",
"314 355 LINE SMOOTH",
"311 349 OFFCURVE",
"310 343 OFFCURVE",
"310 337 CURVE SMOOTH",
"310 289 LINE SMOOTH",
"310 279 OFFCURVE",
"316 273 OFFCURVE",
"326 273 CURVE SMOOTH",
"403 273 LINE SMOOTH",
"447 273 OFFCURVE",
"470 250 OFFCURVE",
"470 201 CURVE SMOOTH",
"470 157 OFFCURVE",
"461 144 OFFCURVE",
"443 144 CURVE SMOOTH",
"427 144 OFFCURVE",
"421 153 OFFCURVE",
"422 169 CURVE SMOOTH",
"423 182 OFFCURVE",
"419 187 OFFCURVE",
"409 187 CURVE SMOOTH",
"273 190 LINE SMOOTH",
"265 190 OFFCURVE",
"259 185 OFFCURVE",
"258 174 CURVE SMOOTH",
"248 52 OFFCURVE",
"279 -11 OFFCURVE",
"442 -11 CURVE SMOOTH"
);
}
);
width = 669.00065;
}
);
leftKerningGroup = H;
leftMetricsKey = H;
rightKerningGroup = S;
unicode = 1E9E;
},
{
glyphname = T;
lastChange = "2022-11-08 22:11:58 +0000";
layers = (
{
anchors = (
{
name = bottom;
position = "{257, 0}";
},
{
name = center;
position = "{255, 328}";
},
{
name = top;
position = "{255, 655}";
}
);
layerId = "AC740033-F94D-4FA6-A763-4DA6F9230F00";
paths = (
{
closed = 1;
nodes = (
"260 0 LINE SMOOTH",
"262 0 OFFCURVE",
"263 1 OFFCURVE",
"263 3 CURVE SMOOTH",
"263 639 LINE",
"465 639 LINE SMOOTH",
"467 639 OFFCURVE",
"468 640 OFFCURVE",
"468 642 CURVE SMOOTH",
"468 652 LINE SMOOTH",
"468 654 OFFCURVE",
"467 655 OFFCURVE",
"465 655 CURVE SMOOTH",
"46 655 LINE SMOOTH",
"44 655 OFFCURVE",
"43 654 OFFCURVE",
"43 652 CURVE SMOOTH",
"43 642 LINE SMOOTH",
"43 640 OFFCURVE",
"44 639 OFFCURVE",
"46 639 CURVE SMOOTH",
"247 639 LINE",
"247 3 LINE SMOOTH",
"247 1 OFFCURVE",
"248 0 OFFCURVE",
"250 0 CURVE SMOOTH"
);
}
);
width = 510;
},
{
anchors = (
{
name = bottom;
position = "{256, 0}";
},
{
name = center;
position = "{256, 328}";
},
{
name = top;
position = "{256, 655}";
}
);
layerId = "2868C049-E6E5-4053-858B-0FFDC5626279";
paths = (
{
closed = 1;
nodes = (
"286 0 LINE SMOOTH",
"292 0 OFFCURVE",
"295 4 OFFCURVE",
"295 9 CURVE SMOOTH",
"295 582 LINE",
"468 582 LINE SMOOTH",
"473 582 OFFCURVE",
"477 586 OFFCURVE",
"477 591 CURVE SMOOTH",
"477 646 LINE SMOOTH",
"477 651 OFFCURVE",
"473 655 OFFCURVE",
"468 655 CURVE SMOOTH",
"42 655 LINE SMOOTH",
"37 655 OFFCURVE",
"33 651 OFFCURVE",
"33 646 CURVE SMOOTH",
"33 591 LINE SMOOTH",
"33 586 OFFCURVE",
"37 582 OFFCURVE",
"42 582 CURVE SMOOTH",
"215 582 LINE",
"215 9 LINE SMOOTH",
"215 4 OFFCURVE",
"218 0 OFFCURVE",
"224 0 CURVE SMOOTH"
);
}
);
width = 510;
},
{
anchors = (
{
name = bottom;
position = "{271, 0}";
},
{
name = center;
position = "{274, 328}";
},
{
name = top;
position = "{274, 655}";
}
);
layerId = "C3548BD9-1E85-4E1D-92F7-AFAA54E0B7ED";
paths = (
{
closed = 1;
nodes = (
"347 0 LINE SMOOTH",
"356 0 OFFCURVE",
"362 6 OFFCURVE",
"362 15 CURVE SMOOTH",
"362 499 LINE",
"512 499 LINE SMOOTH",
"521 499 OFFCURVE",
"526 505 OFFCURVE",
"526 513 CURVE SMOOTH",
"526 640 LINE SMOOTH",
"526 649 OFFCURVE",
"521 655 OFFCURVE",
"512 655 CURVE SMOOTH",
"30 655 LINE SMOOTH",
"21 655 OFFCURVE",
"15 649 OFFCURVE",
"15 640 CURVE SMOOTH",
"15 513 LINE SMOOTH",
"15 505 OFFCURVE",
"21 499 OFFCURVE",
"30 499 CURVE SMOOTH",
"181 499 LINE",
"181 15 LINE SMOOTH",
"181 6 OFFCURVE",
"185 0 OFFCURVE",
"194 0 CURVE SMOOTH"
);
}
);
width = 541;
}
);
leftKerningGroup = T;
rightKerningGroup = T;
unicode = 0054;
},
{
glyphname = Tbar;
lastChange = "2022-11-08 22:11:58 +0000";
layers = (
{
components = (
{
alignment = -1;
name = T;
}
);
layerId = "AC740033-F94D-4FA6-A763-4DA6F9230F00";
paths = (
{
closed = 1;
nodes = (
"247 328 LINE",
"263 328 LINE",
"392 328 LINE SMOOTH",
"394 328 OFFCURVE",
"395 329 OFFCURVE",
"395 331 CURVE SMOOTH",
"395 341 LINE SMOOTH",
"395 343 OFFCURVE",
"394 344 OFFCURVE",
"392 344 CURVE SMOOTH",
"119 344 LINE SMOOTH",
"117 344 OFFCURVE",
"116 343 OFFCURVE",
"116 341 CURVE SMOOTH",
"116 331 LINE SMOOTH",
"116 329 OFFCURVE",
"117 328 OFFCURVE",
"119 328 CURVE SMOOTH"
);
}
);
width = 510;
},
{
components = (
{
alignment = -1;
name = T;
}
);
layerId = "2868C049-E6E5-4053-858B-0FFDC5626279";
paths = (
{
closed = 1;
nodes = (
"214 303 LINE",
"295 303 LINE",
"393 303 LINE SMOOTH",
"399 303 OFFCURVE",
"402 307 OFFCURVE",
"402 313 CURVE SMOOTH",
"402 356 LINE SMOOTH",
"402 362 OFFCURVE",
"399 365 OFFCURVE",
"393 365 CURVE SMOOTH",
"116 365 LINE SMOOTH",
"110 365 OFFCURVE",
"107 362 OFFCURVE",
"107 356 CURVE SMOOTH",
"107 313 LINE SMOOTH",
"107 307 OFFCURVE",
"110 303 OFFCURVE",
"116 303 CURVE SMOOTH"
);
}
);
width = 510;
},
{
components = (
{
alignment = -1;
name = T;
}
);
layerId = "C3548BD9-1E85-4E1D-92F7-AFAA54E0B7ED";
paths = (
{
closed = 1;
nodes = (
"181 249 LINE",
"362 249 LINE",
"430 249 LINE SMOOTH",
"439 249 OFFCURVE",
"445 255 OFFCURVE",
"445 264 CURVE SMOOTH",
"445 364 LINE SMOOTH",
"445 373 OFFCURVE",
"439 378 OFFCURVE",
"430 378 CURVE SMOOTH",
"112 378 LINE SMOOTH",
"103 378 OFFCURVE",
"97 373 OFFCURVE",
"97 364 CURVE SMOOTH",
"97 264 LINE SMOOTH",
"97 255 OFFCURVE",
"102.994 249.003 OFFCURVE",
"112 249 CURVE SMOOTH"
);
}
);
width = 541;
}
);
leftKerningGroup = T;
leftMetricsKey = "=T";
rightKerningGroup = T;
rightMetricsKey = "=T";
unicode = 0166;
},
{
glyphname = U;
lastChange = "2022-11-08 22:11:58 +0000";
layers = (
{
anchors = (
{
name = bottom;
position = "{304, 0}";
},
{
name = ogonek;
position = "{395, 10}";
},
{
name = top;
position = "{304, 655}";
},
{
name = topleft;
position = "{68, 655}";
},
{
name = topright;
position = "{589, 655}";
}
);
layerId = "AC740033-F94D-4FA6-A763-4DA6F9230F00";
paths = (
{
closed = 1;
nodes = (
"446 -11 OFFCURVE",
"514 65 OFFCURVE",
"514 225 CURVE SMOOTH",
"514 652 LINE SMOOTH",
"514 654 OFFCURVE",
"513 655 OFFCURVE",
"511 655 CURVE SMOOTH",
"501 655 LINE SMOOTH",
"499 655 OFFCURVE",
"498 654 OFFCURVE",
"498 652 CURVE SMOOTH",
"498 225 LINE SMOOTH",
"498 75 OFFCURVE",
"437 5 OFFCURVE",
"304 5 CURVE SMOOTH",
"172 5 OFFCURVE",
"110 75 OFFCURVE",
"110 225 CURVE SMOOTH",
"110 652 LINE SMOOTH",
"110 654 OFFCURVE",
"109 655 OFFCURVE",
"107 655 CURVE SMOOTH",
"97 655 LINE SMOOTH",
"95 655 OFFCURVE",
"94 654 OFFCURVE",
"94 652 CURVE SMOOTH",
"94 225 LINE SMOOTH",
"94 65 OFFCURVE",
"162 -11 OFFCURVE",
"304 -11 CURVE SMOOTH"
);
}
);
width = 608;
},
{
anchors = (
{
name = bottom;
position = "{306, 0}";
},
{
name = ogonek;
position = "{408, 10}";
},
{
name = top;
position = "{306, 655}";
},
{
name = topleft;
position = "{69, 655}";
},
{
name = topright;
position = "{592, 655}";
}
);
layerId = "2868C049-E6E5-4053-858B-0FFDC5626279";
paths = (
{
closed = 1;
nodes = (
"452 -11 OFFCURVE",
"536 74 OFFCURVE",
"536 223 CURVE SMOOTH",
"536 646 LINE SMOOTH",
"536 651 OFFCURVE",
"533 655 OFFCURVE",
"527 655 CURVE SMOOTH",
"465 655 LINE SMOOTH",
"459 655 OFFCURVE",
"456 651 OFFCURVE",
"456 646 CURVE SMOOTH",
"456 222 LINE SMOOTH",
"456 116 OFFCURVE",
"404 61 OFFCURVE",
"306 61 CURVE SMOOTH",
"208 61 OFFCURVE",
"156 116 OFFCURVE",
"156 222 CURVE SMOOTH",
"156 646 LINE SMOOTH",
"156 651 OFFCURVE",
"153 655 OFFCURVE",
"147 655 CURVE SMOOTH",
"85 655 LINE SMOOTH",
"80 655 OFFCURVE",
"76 651 OFFCURVE",
"76 646 CURVE SMOOTH",
"76 224 LINE SMOOTH",
"76 70 OFFCURVE",
"158 -11 OFFCURVE",
"306 -11 CURVE SMOOTH"
);
}
);
width = 612;
},
{
anchors = (
{
name = bottom;
position = "{320, 0}";
},
{
name = ogonek;
position = "{458, 10}";
},
{
name = top;
position = "{320, 655}";
},
{
name = topleft;
position = "{70, 655}";
},
{
name = topright;
position = "{617, 655}";
}
);
layerId = "C3548BD9-1E85-4E1D-92F7-AFAA54E0B7ED";
paths = (
{
closed = 1;
nodes = (
"501 -11 OFFCURVE",
"593 70 OFFCURVE",
"593 250 CURVE SMOOTH",
"593 640 LINE SMOOTH",
"593 649 OFFCURVE",
"587 655 OFFCURVE",
"579 655 CURVE SMOOTH",
"426 655 LINE SMOOTH",
"418 655 OFFCURVE",
"412 649 OFFCURVE",
"412 640 CURVE SMOOTH",
"412 260 LINE SMOOTH",
"412 184 OFFCURVE",
"388 145 OFFCURVE",
"319 145 CURVE SMOOTH",
"250 145 OFFCURVE",
"226 184 OFFCURVE",
"226 260 CURVE SMOOTH",
"226 640 LINE SMOOTH",
"226 649 OFFCURVE",
"220 655 OFFCURVE",
"212 655 CURVE SMOOTH",
"59 655 LINE SMOOTH",
"51 655 OFFCURVE",
"45 649 OFFCURVE",
"45 640 CURVE SMOOTH",
"45 250 LINE SMOOTH",
"45 70 OFFCURVE",
"136 -11 OFFCURVE",
"319 -11 CURVE SMOOTH"
);
}
);
width = 638;
}
);
leftKerningGroup = U;
rightKerningGroup = U;
unicode = 0055;
},
{
glyphname = V;
lastChange = "2022-11-08 22:11:58 +0000";
layers = (
{
anchors = (
{
name = bottom;
position = "{261, 0}";
},
{
name = top;
position = "{261, 655}";
}
);
layerId = "AC740033-F94D-4FA6-A763-4DA6F9230F00";
paths = (
{
closed = 1;
nodes = (
"271 0 LINE SMOOTH",
"273 0 OFFCURVE",
"274 0 OFFCURVE",
"275 2 CURVE SMOOTH",
"501 652 LINE SMOOTH",
"502 654 OFFCURVE",
"500 655 OFFCURVE",
"498 655 CURVE SMOOTH",
"489 655 LINE SMOOTH",
"487 655 OFFCURVE",
"486 655 OFFCURVE",
"485 653 CURVE SMOOTH",
"295 115 LINE SMOOTH",
"284 82 OFFCURVE",
"274 49 OFFCURVE",
"263 16 CURVE",
"262 16 LINE",
"252 50 OFFCURVE",
"242 84 OFFCURVE",
"230 117 CURVE SMOOTH",
"40 653 LINE SMOOTH",
"39 655 OFFCURVE",
"38 655 OFFCURVE",
"36 655 CURVE SMOOTH",
"26 655 LINE SMOOTH",
"24 655 OFFCURVE",
"22 654 OFFCURVE",
"23 652 CURVE SMOOTH",
"250 2 LINE SMOOTH",
"251 0 OFFCURVE",
"252 0 OFFCURVE",
"254 0 CURVE SMOOTH"
);
}
);
width = 524;
},
{
anchors = (
{
name = bottom;
position = "{277, 0}";
},
{
name = top;
position = "{277, 655}";
}
);
layerId = "2868C049-E6E5-4053-858B-0FFDC5626279";
paths = (
{
closed = 1;
nodes = (
"321 0 LINE SMOOTH",
"325 0 OFFCURVE",
"330 3 OFFCURVE",
"331 7 CURVE SMOOTH",
"539 645 LINE SMOOTH",
"541 651 OFFCURVE",
"538 655 OFFCURVE",
"531 655 CURVE SMOOTH",
"465 655 LINE SMOOTH",
"460 655 OFFCURVE",
"456 652 OFFCURVE",
"454 648 CURVE SMOOTH",
"316 210 LINE SMOOTH",
"302 166 OFFCURVE",
"288 122 OFFCURVE",
"276 78 CURVE",
"274 78 LINE",
"262 123 OFFCURVE",
"249 168 OFFCURVE",
"236 212 CURVE SMOOTH",
"101 648 LINE SMOOTH",
"99 652 OFFCURVE",
"95 655 OFFCURVE",
"90 655 CURVE SMOOTH",
"23 655 LINE SMOOTH",
"17 655 OFFCURVE",
"14 651 OFFCURVE",
"16 645 CURVE SMOOTH",
"220 7 LINE SMOOTH",
"222 3 OFFCURVE",
"226 0 OFFCURVE",
"230 0 CURVE SMOOTH"
);
}
);
width = 555;
},
{
anchors = (
{
name = bottom;
position = "{311, 0}";
},
{
name = top;
position = "{311, 655}";
}
);
layerId = "C3548BD9-1E85-4E1D-92F7-AFAA54E0B7ED";
paths = (
{
closed = 1;
nodes = (
"410.002 0 LINE SMOOTH",
"418 0 OFFCURVE",
"424 3 OFFCURVE",
"426 12 CURVE SMOOTH",
"617 638 LINE SMOOTH",
"620 648 OFFCURVE",
"616 655 OFFCURVE",
"605 655 CURVE SMOOTH",
"438 655 LINE SMOOTH",
"430 655 OFFCURVE",
"424 651 OFFCURVE",
"422 642 CURVE SMOOTH",
"343 305 LINE SMOOTH",
"331 254 OFFCURVE",
"321 205 OFFCURVE",
"314 153 CURVE",
"311 153 LINE",
"303 204 OFFCURVE",
"294 253 OFFCURVE",
"283 302 CURVE SMOOTH",
"201 643 LINE SMOOTH",
"199 650 OFFCURVE",
"193 655 OFFCURVE",
"184 655 CURVE SMOOTH",
"17 655 LINE SMOOTH",
"7 655 OFFCURVE",
"3 648 OFFCURVE",
"6 638 CURVE SMOOTH",
"197 12 LINE SMOOTH",
"200 3 OFFCURVE",
"206 0 OFFCURVE",
"213 0 CURVE SMOOTH"
);
}
);
width = 623;
}
);
leftKerningGroup = V;
rightKerningGroup = V;
unicode = 0056;
},
{
glyphname = W;
lastChange = "2022-11-08 22:11:58 +0000";
layers = (
{
anchors = (
{
name = bottom;
position = "{415, 0}";
},
{
name = top;
position = "{398, 655}";
}
);
layerId = "AC740033-F94D-4FA6-A763-4DA6F9230F00";
paths = (
{
closed = 1;
nodes = (
"254 0 LINE SMOOTH",
"256 0 OFFCURVE",
"258 0 OFFCURVE",
"259 3 CURVE SMOOTH",
"360 333 LINE SMOOTH",
"375 382 OFFCURVE",
"390 431 OFFCURVE",
"405 480 CURVE",
"406 480 LINE",
"419 432 OFFCURVE",
"433 384 OFFCURVE",
"446 336 CURVE SMOOTH",
"538 3 LINE SMOOTH",
"539 0 OFFCURVE",
"541 0 OFFCURVE",
"543 0 CURVE SMOOTH",
"562 0 LINE SMOOTH",
"564 0 OFFCURVE",
"566 0 OFFCURVE",
"567 3 CURVE SMOOTH",
"760 652 LINE SMOOTH",
"761 655 OFFCURVE",
"759 655 OFFCURVE",
"757 655 CURVE SMOOTH",
"746 655 LINE SMOOTH",
"745 655 OFFCURVE",
"743 655 OFFCURVE",
"742 652 CURVE SMOOTH",
"599 169 LINE SMOOTH",
"583 117 OFFCURVE",
"568 67 OFFCURVE",
"553 15 CURVE",
"552 15 LINE",
"538 66 OFFCURVE",
"523 115 OFFCURVE",
"510 166 CURVE SMOOTH",
"377 643 LINE SMOOTH",
"376 645 OFFCURVE",
"375 645 OFFCURVE",
"373 645 CURVE SMOOTH",
"363 645 LINE SMOOTH",
"361 645 OFFCURVE",
"359 645 OFFCURVE",
"360 642 CURVE SMOOTH",
"398 506 LINE",
"291 163 LINE SMOOTH",
"276 114 OFFCURVE",
"260 65 OFFCURVE",
"245 15 CURVE",
"244 15 LINE",
"229 65 OFFCURVE",
"215 113 OFFCURVE",
"200 163 CURVE SMOOTH",
"54 652 LINE SMOOTH",
"53 655 OFFCURVE",
"51 655 OFFCURVE",
"49 655 CURVE SMOOTH",
"39 655 LINE SMOOTH",
"38 655 OFFCURVE",
"36 655 OFFCURVE",
"37 652 CURVE SMOOTH",
"230 3 LINE SMOOTH",
"231 0 OFFCURVE",
"233 0 OFFCURVE",
"235 0 CURVE SMOOTH"
);
}
);
width = 797;
},
{
anchors = (
{
name = bottom;
position = "{406, 0}";
},
{
name = top;
position = "{404, 655}";
}
);
layerId = "2868C049-E6E5-4053-858B-0FFDC5626279";
paths = (
{
closed = 1;
nodes = (
"289 0 LINE SMOOTH",
"295 0 OFFCURVE",
"298 3 OFFCURVE",
"299 8 CURVE SMOOTH",
"370 254 LINE SMOOTH",
"383 298 OFFCURVE",
"395 342 OFFCURVE",
"407 385 CURVE",
"408 385 LINE",
"419 341 OFFCURVE",
"431 297 OFFCURVE",
"443 253 CURVE SMOOTH",
"509 8 LINE SMOOTH",
"510 3 OFFCURVE",
"514 0 OFFCURVE",
"520 0 CURVE SMOOTH",
"607 0 LINE SMOOTH",
"612 0 OFFCURVE",
"616 3 OFFCURVE",
"617 8 CURVE SMOOTH",
"786 645 LINE SMOOTH",
"787 651 OFFCURVE",
"784 655 OFFCURVE",
"777 655 CURVE SMOOTH",
"712 655 LINE SMOOTH",
"707 655 OFFCURVE",
"703 652 OFFCURVE",
"702 647 CURVE SMOOTH",
"596 243 LINE SMOOTH",
"583 191 OFFCURVE",
"572 140 OFFCURVE",
"561 88 CURVE",
"560 88 LINE",
"549 133 OFFCURVE",
"538 176 OFFCURVE",
"526 221 CURVE SMOOTH",
"419 636 LINE SMOOTH",
"418 641 OFFCURVE",
"414 645 OFFCURVE",
"409 645 CURVE SMOOTH",
"345 645 LINE SMOOTH",
"339 645 OFFCURVE",
"335 641 OFFCURVE",
"337 634 CURVE SMOOTH",
"371 509 LINE",
"289 227 LINE SMOOTH",
"276 180 OFFCURVE",
"263 134 OFFCURVE",
"250 88 CURVE",
"249 88 LINE",
"237 141 OFFCURVE",
"225 192 OFFCURVE",
"212 244 CURVE SMOOTH",
"103 647 LINE SMOOTH",
"102 652 OFFCURVE",
"98 655 OFFCURVE",
"93 655 CURVE SMOOTH",
"30 655 LINE SMOOTH",
"23 655 OFFCURVE",
"20 651 OFFCURVE",
"22 645 CURVE SMOOTH",
"195 8 LINE SMOOTH",
"196 3 OFFCURVE",
"200 0 OFFCURVE",
"205 0 CURVE SMOOTH"
);
}
);
width = 807;
},
{
anchors = (
{
name = bottom;
position = "{440, 0}";
},
{
name = top;
position = "{440, 655}";
}
);
layerId = "C3548BD9-1E85-4E1D-92F7-AFAA54E0B7ED";
paths = (
{
closed = 1;
nodes = (
"340 0 LINE SMOOTH",
"348 0 OFFCURVE",
"354 3 OFFCURVE",
"357 12 CURVE SMOOTH",
"402 169 LINE SMOOTH",
"419 224 OFFCURVE",
"430 271 OFFCURVE",
"441 317 CURVE",
"444 317 LINE",
"453 271 OFFCURVE",
"465 221 OFFCURVE",
"479 169 CURVE SMOOTH",
"518 13 LINE SMOOTH",
"520 5 OFFCURVE",
"527 0 OFFCURVE",
"535 0 CURVE SMOOTH",
"699 0 LINE SMOOTH",
"707 0 OFFCURVE",
"712 5 OFFCURVE",
"714 13 CURVE SMOOTH",
"871 638 LINE SMOOTH",
"874 649 OFFCURVE",
"869 655 OFFCURVE",
"859 655 CURVE SMOOTH",
"706 655 LINE SMOOTH",
"698 655 OFFCURVE",
"692 651 OFFCURVE",
"690 642 CURVE SMOOTH",
"639 416 LINE SMOOTH",
"624 345 OFFCURVE",
"616 243 OFFCURVE",
"612 178 CURVE",
"609 178 LINE",
"603 229 OFFCURVE",
"594 281 OFFCURVE",
"581 332 CURVE SMOOTH",
"508 625 LINE SMOOTH",
"506 632 OFFCURVE",
"502 637 OFFCURVE",
"494 637 CURVE SMOOTH",
"346 637 LINE SMOOTH",
"337 637 OFFCURVE",
"330 631 OFFCURVE",
"334 620 CURVE SMOOTH",
"370 506 LINE",
"312 322 LINE SMOOTH",
"297 274 OFFCURVE",
"285 226 OFFCURVE",
"275 178 CURVE",
"272 178 LINE",
"268 239 OFFCURVE",
"260 331 OFFCURVE",
"245 402 CURVE SMOOTH",
"191 642 LINE SMOOTH",
"189 651 OFFCURVE",
"183 655 OFFCURVE",
"175 655 CURVE SMOOTH",
"22 655 LINE SMOOTH",
"12 655 OFFCURVE",
"6 649 OFFCURVE",
"9 638 CURVE SMOOTH",
"166 13 LINE SMOOTH",
"168 5 OFFCURVE",
"173 0 OFFCURVE",
"182 0 CURVE SMOOTH"
);
}
);
width = 881;
}
);
leftKerningGroup = W;
rightKerningGroup = W;
unicode = 0057;
},
{
glyphname = X;
lastChange = "2022-11-08 22:11:58 +0000";
layers = (
{
anchors = (
{
name = bottom;
position = "{250, 0}";
},
{
name = top;
position = "{250, 655}";
}
);
layerId = "AC740033-F94D-4FA6-A763-4DA6F9230F00";
paths = (
{
closed = 1;
nodes = (
"26 0 LINE SMOOTH",
"28 0 OFFCURVE",
"29 0 OFFCURVE",
"30 2 CURVE SMOOTH",
"167 204 LINE SMOOTH",
"194 243 OFFCURVE",
"222 283 OFFCURVE",
"249 324 CURVE",
"250 324 LINE",
"277 282 OFFCURVE",
"305 242 OFFCURVE",
"334 201 CURVE SMOOTH",
"468 2 LINE SMOOTH",
"469 0 OFFCURVE",
"470 0 OFFCURVE",
"472 0 CURVE SMOOTH",
"485 0 LINE SMOOTH",
"487 0 OFFCURVE",
"488 1 OFFCURVE",
"486 4 CURVE SMOOTH",
"260 336 LINE",
"475 651 LINE SMOOTH",
"476 653 OFFCURVE",
"476 655 OFFCURVE",
"473 655 CURVE SMOOTH",
"460 655 LINE SMOOTH",
"458 655 OFFCURVE",
"457 655 OFFCURVE",
"456 653 CURVE SMOOTH",
"313 443 LINE SMOOTH",
"292 412 OFFCURVE",
"271 380 OFFCURVE",
"250 349 CURVE",
"249 349 LINE",
"227 380 OFFCURVE",
"206 411 OFFCURVE",
"185 443 CURVE SMOOTH",
"42 653 LINE SMOOTH",
"41 655 OFFCURVE",
"40 655 OFFCURVE",
"38 655 CURVE SMOOTH",
"26 655 LINE SMOOTH",
"23 655 OFFCURVE",
"23 653 OFFCURVE",
"24 651 CURVE SMOOTH",
"239 336 LINE",
"12 4 LINE SMOOTH",
"11 1 OFFCURVE",
"11 0 OFFCURVE",
"13 0 CURVE SMOOTH"
);
}
);
width = 498;
},
{
anchors = (
{
name = bottom;
position = "{263, 0}";
},
{
name = top;
position = "{263, 655}";
}
);
layerId = "2868C049-E6E5-4053-858B-0FFDC5626279";
paths = (
{
closed = 1;
nodes = (
"87 0 LINE SMOOTH",
"92 0 OFFCURVE",
"96 3 OFFCURVE",
"98 6 CURVE SMOOTH",
"209 185 LINE SMOOTH",
"226 214 OFFCURVE",
"244 245 OFFCURVE",
"261 274 CURVE",
"262 274 LINE",
"278 244 OFFCURVE",
"297 213 OFFCURVE",
"315 183 CURVE SMOOTH",
"425 6 LINE SMOOTH",
"428 2 OFFCURVE",
"431 0 OFFCURVE",
"436 0 CURVE SMOOTH",
"512 0 LINE SMOOTH",
"519 0 OFFCURVE",
"521 5 OFFCURVE",
"517 11 CURVE SMOOTH",
"315 336 LINE",
"506 644 LINE SMOOTH",
"509 650 OFFCURVE",
"508 655 OFFCURVE",
"501 655 CURVE SMOOTH",
"427 655 LINE SMOOTH",
"423 655 OFFCURVE",
"419 653 OFFCURVE",
"417 649 CURVE SMOOTH",
"314 483 LINE SMOOTH",
"297 455 OFFCURVE",
"281 426 OFFCURVE",
"265 398 CURVE",
"264 398 LINE",
"249 425 OFFCURVE",
"232 453 OFFCURVE",
"217 480 CURVE SMOOTH",
"111 649 LINE SMOOTH",
"109 653 OFFCURVE",
"105 655 OFFCURVE",
"101 655 CURVE SMOOTH",
"25 655 LINE SMOOTH",
"18 655 OFFCURVE",
"16 650 OFFCURVE",
"20 644 CURVE SMOOTH",
"212 338 LINE",
"7 11 LINE SMOOTH",
"3 5 OFFCURVE",
"5 0 OFFCURVE",
"12 0 CURVE SMOOTH"
);
}
);
width = 524;
},
{
anchors = (
{
name = bottom;
position = "{300, 0}";
},
{
name = top;
position = "{300, 655}";
}
);
layerId = "C3548BD9-1E85-4E1D-92F7-AFAA54E0B7ED";
paths = (
{
closed = 1;
nodes = (
"188 0 LINE SMOOTH",
"196 0 OFFCURVE",
"201 2 OFFCURVE",
"205 10 CURVE SMOOTH",
"260 114 LINE SMOOTH",
"271 135 OFFCURVE",
"286 170 OFFCURVE",
"298 200 CURVE",
"301 200 LINE",
"313 169 OFFCURVE",
"329 134 OFFCURVE",
"339 112 CURVE SMOOTH",
"392 10 LINE SMOOTH",
"396 2 OFFCURVE",
"401 0 OFFCURVE",
"409 0 CURVE SMOOTH",
"588 0 LINE SMOOTH",
"600 0 OFFCURVE",
"603 8 OFFCURVE",
"598 18 CURVE SMOOTH",
"403 335 LINE",
"587 637 LINE SMOOTH",
"593 647 OFFCURVE",
"590 655 OFFCURVE",
"579 655 CURVE SMOOTH",
"403 655 LINE SMOOTH",
"397 655 OFFCURVE",
"391 653 OFFCURVE",
"387 645 CURVE SMOOTH",
"341 554 LINE SMOOTH",
"331 532 OFFCURVE",
"314 494 OFFCURVE",
"304 468 CURVE",
"301 468 LINE",
"291 495 OFFCURVE",
"279 525 OFFCURVE",
"266 551 CURVE SMOOTH",
"217 645 LINE SMOOTH",
"214 653 OFFCURVE",
"208 655 OFFCURVE",
"201 655 CURVE SMOOTH",
"23 655 LINE SMOOTH",
"12 655 OFFCURVE",
"9 647 OFFCURVE",
"14 637 CURVE SMOOTH",
"199 334 LINE",
"3 18 LINE SMOOTH",
"-4 7 OFFCURVE",
"1 0 OFFCURVE",
"13 0 CURVE SMOOTH"
);
}
);
width = 601;
}
);
leftKerningGroup = X;
rightKerningGroup = X;
unicode = 0058;
},
{
glyphname = Y;
lastChange = "2022-11-08 22:11:58 +0000";
layers = (
{
anchors = (
{
name = bottom;
position = "{241, 0}";
},
{
name = top;
position = "{241, 655}";
},
{
name = topleft;
position = "{20, 655}";
}
);
layerId = "AC740033-F94D-4FA6-A763-4DA6F9230F00";
paths = (
{
closed = 1;
nodes = (
"245 0 LINE SMOOTH",
"247 0 OFFCURVE",
"248 1 OFFCURVE",
"248 3 CURVE SMOOTH",
"248 225 LINE",
"463 651 LINE SMOOTH",
"464 653 OFFCURVE",
"463 655 OFFCURVE",
"461 655 CURVE SMOOTH",
"448 655 LINE SMOOTH",
"447 655 OFFCURVE",
"446 655 OFFCURVE",
"445 653 CURVE SMOOTH",
"295 353 LINE SMOOTH",
"276 316 OFFCURVE",
"258 280 OFFCURVE",
"240 244 CURVE",
"239 244 LINE",
"221 281 OFFCURVE",
"203 318 OFFCURVE",
"185 355 CURVE SMOOTH",
"35 653 LINE SMOOTH",
"34 655 OFFCURVE",
"33 655 OFFCURVE",
"32 655 CURVE SMOOTH",
"20 655 LINE SMOOTH",
"18 655 OFFCURVE",
"17 653 OFFCURVE",
"18 651 CURVE SMOOTH",
"232 225 LINE",
"232 3 LINE SMOOTH",
"232 1 OFFCURVE",
"233 0 OFFCURVE",
"235 0 CURVE SMOOTH"
);
}
);
width = 481;
},
{
anchors = (
{
name = bottom;
position = "{256, 0}";
},
{
name = top;
position = "{256, 655}";
},
{
name = topleft;
position = "{19, 655}";
}
);
layerId = "2868C049-E6E5-4053-858B-0FFDC5626279";
paths = (
{
closed = 1;
nodes = (
"287 0 LINE SMOOTH",
"292 0 OFFCURVE",
"295 4 OFFCURVE",
"295 9 CURVE SMOOTH",
"295 225 LINE",
"499 644 LINE SMOOTH",
"502 650 OFFCURVE",
"499 655 OFFCURVE",
"493 655 CURVE SMOOTH",
"422 655 LINE SMOOTH",
"418 655 OFFCURVE",
"413 653 OFFCURVE",
"412 648 CURVE SMOOTH",
"306 421 LINE SMOOTH",
"289 383 OFFCURVE",
"273 347 OFFCURVE",
"256 310 CURVE",
"255 310 LINE",
"240 346 OFFCURVE",
"223 383 OFFCURVE",
"207 419 CURVE SMOOTH",
"100 648 LINE SMOOTH",
"99 653 OFFCURVE",
"94 655 OFFCURVE",
"90 655 CURVE SMOOTH",
"17 655 LINE SMOOTH",
"11 655 OFFCURVE",
"8 650 OFFCURVE",
"11 644 CURVE SMOOTH",
"215 225 LINE",
"215 9 LINE SMOOTH",
"215 4 OFFCURVE",
"219 0 OFFCURVE",
"224 0 CURVE SMOOTH"
);
}
);
width = 510;
},
{
anchors = (
{
name = bottom;
position = "{296, 0}";
},
{
name = top;
position = "{296, 655}";
},
{
name = topleft;
position = "{10, 655}";
}
);
layerId = "C3548BD9-1E85-4E1D-92F7-AFAA54E0B7ED";
paths = (
{
closed = 1;
nodes = (
"373 0 LINE SMOOTH",
"381 0 OFFCURVE",
"386 6 OFFCURVE",
"386 15 CURVE SMOOTH",
"386 227 LINE",
"590 637 LINE SMOOTH",
"594 647 OFFCURVE",
"590 655 OFFCURVE",
"579 655 CURVE SMOOTH",
"411 655 LINE SMOOTH",
"404 655 OFFCURVE",
"398 651 OFFCURVE",
"395 644 CURVE SMOOTH",
"347 516 LINE SMOOTH",
"328 468 OFFCURVE",
"312 426 OFFCURVE",
"298 381 CURVE",
"296 381 LINE",
"282 425 OFFCURVE",
"266 470 OFFCURVE",
"247 518 CURVE SMOOTH",
"198 644 LINE SMOOTH",
"196 652 OFFCURVE",
"190 655 OFFCURVE",
"182 655 CURVE SMOOTH",
"13 655 LINE SMOOTH",
"2 655 OFFCURVE",
"-3 647 OFFCURVE",
"2 637 CURVE SMOOTH",
"206 227 LINE",
"206 15 LINE SMOOTH",
"206 6 OFFCURVE",
"211 0 OFFCURVE",
"220 0 CURVE SMOOTH"
);
}
);
width = 592;
}
);
leftKerningGroup = Y;
rightKerningGroup = Y;
unicode = 0059;
},
{
glyphname = Z;
lastChange = "2022-11-08 22:11:58 +0000";
layers = (
{
anchors = (
{
name = bottom;
position = "{249, 0}";
},
{
name = top;
position = "{254, 655}";
}
);
layerId = "AC740033-F94D-4FA6-A763-4DA6F9230F00";
paths = (
{
closed = 1;
nodes = (
"442 0 LINE SMOOTH",
"444 0 OFFCURVE",
"445 1 OFFCURVE",
"445 3 CURVE SMOOTH",
"445 13 LINE SMOOTH",
"445 15 OFFCURVE",
"444 16 OFFCURVE",
"442 16 CURVE SMOOTH",
"154 16 LINE SMOOTH",
"121 16 OFFCURVE",
"88 16 OFFCURVE",
"55 16 CURVE",
"55 17 LINE",
"78 51 OFFCURVE",
"100 85 OFFCURVE",
"122 120 CURVE SMOOTH",
"460 642 LINE SMOOTH",
"462 645 OFFCURVE",
"463 647 OFFCURVE",
"463 649 CURVE SMOOTH",
"463 651 LINE SMOOTH",
"463 653 OFFCURVE",
"463 655 OFFCURVE",
"460 655 CURVE SMOOTH",
"66 655 LINE SMOOTH",
"64 655 OFFCURVE",
"63 654 OFFCURVE",
"63 652 CURVE SMOOTH",
"63 642 LINE SMOOTH",
"63 640 OFFCURVE",
"64 639 OFFCURVE",
"66 639 CURVE SMOOTH",
"332 639 LINE SMOOTH",
"366 639 OFFCURVE",
"403 639 OFFCURVE",
"437 639 CURVE",
"437 638 LINE",
"416 605 OFFCURVE",
"395 572 OFFCURVE",
"373 538 CURVE SMOOTH",
"33 12 LINE SMOOTH",
"31 9 OFFCURVE",
"31 8 OFFCURVE",
"31 6 CURVE SMOOTH",
"31 4 LINE SMOOTH",
"31 1 OFFCURVE",
"32 0 OFFCURVE",
"35 0 CURVE SMOOTH"
);
}
);
width = 499;
},
{
anchors = (
{
name = bottom;
position = "{258, 0}";
},
{
name = top;
position = "{257, 655}";
}
);
layerId = "2868C049-E6E5-4053-858B-0FFDC5626279";
paths = (
{
closed = 1;
nodes = (
"463 0 LINE SMOOTH",
"468 0 OFFCURVE",
"472 4 OFFCURVE",
"472 9 CURVE SMOOTH",
"472 64 LINE SMOOTH",
"472 69 OFFCURVE",
"468 73 OFFCURVE",
"463 73 CURVE SMOOTH",
"260 73 LINE SMOOTH",
"220 73 OFFCURVE",
"181 73 OFFCURVE",
"140 72 CURVE",
"140 73 LINE",
"163 108 OFFCURVE",
"185 143 OFFCURVE",
"207 179 CURVE SMOOTH",
"490 632 LINE SMOOTH",
"492 636 OFFCURVE",
"493 640 OFFCURVE",
"493 644 CURVE SMOOTH",
"493 646 LINE SMOOTH",
"493 651 OFFCURVE",
"490 655 OFFCURVE",
"484 655 CURVE SMOOTH",
"60 655 LINE SMOOTH",
"54 655 OFFCURVE",
"51 651 OFFCURVE",
"51 646 CURVE SMOOTH",
"51 591 LINE SMOOTH",
"51 586 OFFCURVE",
"54 582 OFFCURVE",
"60 582 CURVE SMOOTH",
"261 582 LINE SMOOTH",
"297 582 OFFCURVE",
"334 582 OFFCURVE",
"370 583 CURVE",
"370 582 LINE",
"349 549 OFFCURVE",
"328 515 OFFCURVE",
"308 481 CURVE SMOOTH",
"24 23 LINE SMOOTH",
"22 19 OFFCURVE",
"20 15 OFFCURVE",
"20 11 CURVE SMOOTH",
"20 9 LINE SMOOTH",
"20 4 OFFCURVE",
"24 0 OFFCURVE",
"29 0 CURVE SMOOTH"
);
}
);
width = 516;
},
{
anchors = (
{
name = bottom;
position = "{275, 0}";
},
{
name = top;
position = "{289, 655}";
}
);
layerId = "C3548BD9-1E85-4E1D-92F7-AFAA54E0B7ED";
paths = (
{
closed = 1;
nodes = (
"503 0 LINE SMOOTH",
"512 0 OFFCURVE",
"518 6 OFFCURVE",
"518 15 CURVE SMOOTH",
"518 142 LINE SMOOTH",
"518 150 OFFCURVE",
"512 156 OFFCURVE",
"503 156 CURVE SMOOTH",
"374 156 LINE SMOOTH",
"338 156 OFFCURVE",
"303 156 OFFCURVE",
"270 154 CURVE",
"270 157 LINE",
"291 189 OFFCURVE",
"313 225 OFFCURVE",
"332 260 CURVE SMOOTH",
"536 613 LINE SMOOTH",
"539 618 OFFCURVE",
"541 624 OFFCURVE",
"541 631 CURVE SMOOTH",
"541 640 LINE SMOOTH",
"541 649 OFFCURVE",
"535 655 OFFCURVE",
"526 655 CURVE SMOOTH",
"50 655 LINE SMOOTH",
"41 655 OFFCURVE",
"35 649 OFFCURVE",
"35 640 CURVE SMOOTH",
"35 513 LINE SMOOTH",
"35 505 OFFCURVE",
"41 499 OFFCURVE",
"50 499 CURVE SMOOTH",
"171 499 LINE SMOOTH",
"205 499 OFFCURVE",
"240 499 OFFCURVE",
"274 500 CURVE",
"274 497 LINE",
"255 467 OFFCURVE",
"237 436 OFFCURVE",
"219 404 CURVE SMOOTH",
"14 42 LINE SMOOTH",
"11 37 OFFCURVE",
"10 31 OFFCURVE",
"10 24 CURVE SMOOTH",
"10 15 LINE SMOOTH",
"10 6 OFFCURVE",
"15 0 OFFCURVE",
"24 0 CURVE SMOOTH"
);
}
);
width = 553;
}
);
leftKerningGroup = Z;
rightKerningGroup = Z;
unicode = 005A;
},
{
glyphname = a;
lastChange = "2022-11-08 22:11:58 +0000";
layers = (
{
anchors = (
{
name = bottom;
position = "{223, 0}";
},
{
name = ogonek;
position = "{380, 11}";
},
{
name = top;
position = "{225, 478}";
}
);
layerId = "AC740033-F94D-4FA6-A763-4DA6F9230F00";
paths = (
{
closed = 1;
nodes = (
"366 0 LINE SMOOTH",
"368 0 OFFCURVE",
"369 1 OFFCURVE",
"369 3 CURVE SMOOTH",
"366 38 OFFCURVE",
"364 73 OFFCURVE",
"364 110 CURVE SMOOTH",
"364 344 LINE SMOOTH",
"364 448 OFFCURVE",
"322 490 OFFCURVE",
"229 489 CURVE SMOOTH",
"131 488 OFFCURVE",
"89 444 OFFCURVE",
"90 366 CURVE SMOOTH",
"90 364 OFFCURVE",
"91 363 OFFCURVE",
"93 363 CURVE SMOOTH",
"103 363 LINE SMOOTH",
"105 363 OFFCURVE",
"106 364 OFFCURVE",
"106 366 CURVE SMOOTH",
"105 439 OFFCURVE",
"145 473 OFFCURVE",
"228 473 CURVE SMOOTH",
"316 473 OFFCURVE",
"348 436 OFFCURVE",
"348 343 CURVE SMOOTH",
"348 115 LINE",
"348 107 LINE SMOOTH",
"348 73 OFFCURVE",
"350 38 OFFCURVE",
"353 3 CURVE SMOOTH",
"353 1 OFFCURVE",
"354 0 OFFCURVE",
"356 0 CURVE SMOOTH"
);
},
{
closed = 1;
nodes = (
"225 -11 OFFCURVE",
"280 21 OFFCURVE",
"356 109 CURVE",
"356 132 LINE",
"292 50 OFFCURVE",
"226 4 OFFCURVE",
"170 4 CURVE SMOOTH",
"106 4 OFFCURVE",
"78 44 OFFCURVE",
"78 112 CURVE SMOOTH",
"78 189 OFFCURVE",
"118 231 OFFCURVE",
"221 243 CURVE SMOOTH",
"353 259 LINE",
"353 274 LINE",
"221 258 LINE SMOOTH",
"108 245 OFFCURVE",
"62 198 OFFCURVE",
"62 112 CURVE SMOOTH",
"62 35 OFFCURVE",
"96 -11 OFFCURVE",
"169 -11 CURVE SMOOTH"
);
}
);
width = 454;
},
{
anchors = (
{
name = bottom;
position = "{235, 0}";
},
{
name = ogonek;
position = "{416, 10}";
},
{
name = top;
position = "{232, 487}";
}
);
layerId = "2868C049-E6E5-4053-858B-0FFDC5626279";
paths = (
{
closed = 1;
nodes = (
"396 0 LINE SMOOTH",
"402 0 OFFCURVE",
"406 4 OFFCURVE",
"405 10 CURVE SMOOTH",
"401 37 OFFCURVE",
"399 73 OFFCURVE",
"399 120 CURVE SMOOTH",
"399 339 LINE SMOOTH",
"399 448 OFFCURVE",
"346 499 OFFCURVE",
"235 499 CURVE SMOOTH",
"126 498 OFFCURVE",
"61 448 OFFCURVE",
"67 369 CURVE SMOOTH",
"68 357 OFFCURVE",
"71 353 OFFCURVE",
"77 353 CURVE SMOOTH",
"138 353 LINE SMOOTH",
"143 353 OFFCURVE",
"146 356 OFFCURVE",
"146 362 CURVE SMOOTH",
"146 407 OFFCURVE",
"174 429 OFFCURVE",
"233 429 CURVE SMOOTH",
"296 429 OFFCURVE",
"319 404 OFFCURVE",
"319 338 CURVE SMOOTH",
"319 128 LINE",
"322 98 LINE SMOOTH",
"323 69 OFFCURVE",
"328 28 OFFCURVE",
"331 12 CURVE SMOOTH",
"332 5 OFFCURVE",
"334 0 OFFCURVE",
"341 0 CURVE SMOOTH"
);
},
{
closed = 1;
nodes = (
"220 -11 OFFCURVE",
"270 18 OFFCURVE",
"337 93 CURVE",
"336 160 LINE",
"266 84 OFFCURVE",
"225 58 OFFCURVE",
"183 58 CURVE SMOOTH",
"144 58 OFFCURVE",
"126 83 OFFCURVE",
"126 130 CURVE SMOOTH",
"126 191 OFFCURVE",
"155 215 OFFCURVE",
"240 223 CURVE SMOOTH",
"332 231 LINE",
"332 291 LINE",
"238 282 LINE SMOOTH",
"99 269 OFFCURVE",
"46 224 OFFCURVE",
"46 124 CURVE SMOOTH",
"46 36 OFFCURVE",
"86 -11 OFFCURVE",
"160 -11 CURVE SMOOTH"
);
}
);
width = 470;
},
{
anchors = (
{
name = bottom;
position = "{258, 0}";
},
{
name = ogonek;
position = "{467, 10}";
},
{
name = top;
position = "{251, 500}";
}
);
layerId = "C3548BD9-1E85-4E1D-92F7-AFAA54E0B7ED";
paths = (
{
closed = 1;
nodes = (
"455.007 0 LINE SMOOTH",
"465 0 OFFCURVE",
"469 6 OFFCURVE",
"468 16 CURVE SMOOTH",
"465 53 OFFCURVE",
"464 88 OFFCURVE",
"464 131 CURVE SMOOTH",
"464 330 LINE SMOOTH",
"464 458 OFFCURVE",
"401 511 OFFCURVE",
"251 511 CURVE SMOOTH",
"103 511 OFFCURVE",
"32 455 OFFCURVE",
"41 343 CURVE SMOOTH",
"42 334 OFFCURVE",
"47 328 OFFCURVE",
"56 328 CURVE SMOOTH",
"187 328 LINE SMOOTH",
"197 328 OFFCURVE",
"202 334 OFFCURVE",
"201 343 CURVE SMOOTH",
"198 373 OFFCURVE",
"212 388 OFFCURVE",
"244 388 CURVE SMOOTH",
"278 388 OFFCURVE",
"289 376 OFFCURVE",
"289 339 CURVE SMOOTH",
"289 130 LINE",
"304 89 LINE SMOOTH",
"307 59 OFFCURVE",
"311 30 OFFCURVE",
"315 12 CURVE SMOOTH",
"317 4 OFFCURVE",
"321 0 OFFCURVE",
"330 0 CURVE SMOOTH"
);
},
{
closed = 1;
nodes = (
"224 -11 OFFCURVE",
"271 32 OFFCURVE",
"319 82 CURVE",
"306 168 LINE",
"275 130 OFFCURVE",
"249 113 OFFCURVE",
"219 113 CURVE SMOOTH",
"195 113 OFFCURVE",
"185 125 OFFCURVE",
"185 154 CURVE SMOOTH",
"185 189 OFFCURVE",
"201 205 OFFCURVE",
"248 210 CURVE SMOOTH",
"301 215 LINE",
"302 299 LINE",
"215 290 LINE SMOOTH",
"68 275 OFFCURVE",
"19 232 OFFCURVE",
"19 130 CURVE SMOOTH",
"19 41 OFFCURVE",
"66 -11 OFFCURVE",
"146 -11 CURVE SMOOTH"
);
}
);
width = 504;
}
);
leftKerningGroup = a;
rightKerningGroup = a;
rightMetricsKey = u;
unicode = 0061;
},
{
glyphname = ae;
lastChange = "2022-11-09 20:08:32 +0000";
layers = (
{
layerId = "AC740033-F94D-4FA6-A763-4DA6F9230F00";
paths = (
{
closed = 1;
nodes = (
"224 -11 OFFCURVE",
"279 20 OFFCURVE",
"354 105 CURVE",
"372 29 OFFCURVE",
"426 -12 OFFCURVE",
"512 -11 CURVE SMOOTH",
"602 -10 OFFCURVE",
"654 38 OFFCURVE",
"654 119 CURVE SMOOTH",
"654 121 OFFCURVE",
"653 122 OFFCURVE",
"651 122 CURVE SMOOTH",
"641 122 LINE SMOOTH",
"639 122 OFFCURVE",
"638 121 OFFCURVE",
"638 119 CURVE SMOOTH",
"638 48 OFFCURVE",
"592 5 OFFCURVE",
"512 5 CURVE SMOOTH",
"417 5 OFFCURVE",
"364 58 OFFCURVE",
"364 161 CURVE SMOOTH",
"364 252 LINE",
"660 252 LINE SMOOTH",
"663 252 OFFCURVE",
"664 253 OFFCURVE",
"664 255 CURVE SMOOTH",
"664 311 LINE SMOOTH",
"664 428 OFFCURVE",
"609 489 OFFCURVE",
"508 489 CURVE SMOOTH",
"433 489 OFFCURVE",
"382 454 OFFCURVE",
"360 389 CURVE",
"350 459 OFFCURVE",
"307 490 OFFCURVE",
"229 489 CURVE SMOOTH",
"131 488 OFFCURVE",
"86 444 OFFCURVE",
"90 366 CURVE SMOOTH",
"90 364 OFFCURVE",
"91 363 OFFCURVE",
"93 363 CURVE SMOOTH",
"103 363 LINE SMOOTH",
"105 363 OFFCURVE",
"106 364 OFFCURVE",
"106 366 CURVE SMOOTH",
"102 439 OFFCURVE",
"145 473 OFFCURVE",
"228 473 CURVE SMOOTH",
"316 473 OFFCURVE",
"348 432 OFFCURVE",
"348 340 CURVE SMOOTH",
"348 267 LINE",
"225 257 LINE SMOOTH",
"113 248 OFFCURVE",
"62 198 OFFCURVE",
"62 112 CURVE SMOOTH",
"62 35 OFFCURVE",
"96 -11 OFFCURVE",
"169 -11 CURVE SMOOTH"
);
},
{
closed = 1;
nodes = (
"106 4 OFFCURVE",
"78 44 OFFCURVE",
"78 112 CURVE SMOOTH",
"78 189 OFFCURVE",
"123 234 OFFCURVE",
"225 242 CURVE SMOOTH",
"348 252 LINE",
"348 161 LINE SMOOTH",
"348 146 OFFCURVE",
"349 134 OFFCURVE",
"350 124 CURVE",
"288 47 OFFCURVE",
"224 4 OFFCURVE",
"170 4 CURVE SMOOTH"
);
},
{
closed = 1;
nodes = (
"364 311 LINE SMOOTH",
"364 416 OFFCURVE",
"418 473 OFFCURVE",
"507 473 CURVE SMOOTH",
"599 473 OFFCURVE",
"648 416 OFFCURVE",
"648 311 CURVE SMOOTH",
"648 268 LINE",
"364 268 LINE"
);
}
);
width = 732;
},
{
layerId = "2868C049-E6E5-4053-858B-0FFDC5626279";
paths = (
{
closed = 1;
nodes = (
"216 -11 OFFCURVE",
"271 19 OFFCURVE",
"334 86 CURVE",
"357 21 OFFCURVE",
"411 -11 OFFCURVE",
"496 -11 CURVE SMOOTH",
"606 -11 OFFCURVE",
"675 38 OFFCURVE",
"675 117 CURVE SMOOTH",
"675 129 OFFCURVE",
"672 135 OFFCURVE",
"666 135 CURVE SMOOTH",
"605 135 LINE SMOOTH",
"598 135 OFFCURVE",
"595 130 OFFCURVE",
"595 121 CURVE SMOOTH",
"595 82 OFFCURVE",
"560 59 OFFCURVE",
"502 59 CURVE SMOOTH",
"427 59 OFFCURVE",
"396 95 OFFCURVE",
"396 183 CURVE SMOOTH",
"396 229 LINE",
"674 229 LINE SMOOTH",
"680 229 OFFCURVE",
"683 233 OFFCURVE",
"683 238 CURVE SMOOTH",
"683 313 LINE SMOOTH",
"683 431 OFFCURVE",
"620 499 OFFCURVE",
"510 499 CURVE SMOOTH",
"446 499 OFFCURVE",
"394 475 OFFCURVE",
"364 431 CURVE",
"340 476 OFFCURVE",
"294 499 OFFCURVE",
"227 499 CURVE SMOOTH",
"125 498 OFFCURVE",
"60 447 OFFCURVE",
"67 369 CURVE SMOOTH",
"68 357 OFFCURVE",
"71 353 OFFCURVE",
"77 353 CURVE SMOOTH",
"138 353 LINE SMOOTH",
"143 353 OFFCURVE",
"146 356 OFFCURVE",
"146 362 CURVE SMOOTH",
"145 407 OFFCURVE",
"174 429 OFFCURVE",
"233 429 CURVE SMOOTH",
"296 429 OFFCURVE",
"319 404 OFFCURVE",
"319 337 CURVE SMOOTH",
"319 292 LINE",
"239 285 LINE SMOOTH",
"100 271 OFFCURVE",
"46 225 OFFCURVE",
"46 124 CURVE SMOOTH",
"46 37 OFFCURVE",
"86 -11 OFFCURVE",
"158 -11 CURVE SMOOTH"
);
},
{
closed = 1;
nodes = (
"144 58 OFFCURVE",
"126 83 OFFCURVE",
"126 130 CURVE SMOOTH",
"126 191 OFFCURVE",
"155 215 OFFCURVE",
"241 223 CURVE SMOOTH",
"319 230 LINE",
"319 191 LINE SMOOTH",
"319 175 OFFCURVE",
"319 159 OFFCURVE",
"321 144 CURVE",
"260 83 OFFCURVE",
"222 58 OFFCURVE",
"183 58 CURVE SMOOTH"
);
},
{
closed = 1;
nodes = (
"396 305 LINE SMOOTH",
"396 387 OFFCURVE",
"433 429 OFFCURVE",
"504 429 CURVE SMOOTH",
"572 429 OFFCURVE",
"604 390 OFFCURVE",
"604 306 CURVE SMOOTH",
"604 292 LINE",
"396 292 LINE"
);
}
);
width = 740;
},
{
layerId = "C3548BD9-1E85-4E1D-92F7-AFAA54E0B7ED";
paths = (
{
closed = 1;
nodes = (
"212 -11 OFFCURVE",
"262 14 OFFCURVE",
"319 74 CURVE",
"353 16 OFFCURVE",
"419 -11 OFFCURVE",
"521 -11 CURVE SMOOTH",
"671 -11 OFFCURVE",
"738 39 OFFCURVE",
"738 151 CURVE SMOOTH",
"738 161 OFFCURVE",
"733 165 OFFCURVE",
"723 165 CURVE SMOOTH",
"584 165 LINE SMOOTH",
"575 165 OFFCURVE",
"570 161 OFFCURVE",
"570 153 CURVE SMOOTH",
"570 129 OFFCURVE",
"551 116 OFFCURVE",
"517 116 CURVE SMOOTH",
"479 116 OFFCURVE",
"461 136 OFFCURVE",
"461 176 CURVE SMOOTH",
"461 213 LINE",
"733 213 LINE SMOOTH",
"742 213 OFFCURVE",
"748 219 OFFCURVE",
"748 228 CURVE SMOOTH",
"748 305 LINE SMOOTH",
"748 438 OFFCURVE",
"673 512 OFFCURVE",
"537 512 CURVE SMOOTH",
"479 512 OFFCURVE",
"423 490 OFFCURVE",
"390 455 CURVE",
"363 493 OFFCURVE",
"318 511 OFFCURVE",
"248 511 CURVE SMOOTH",
"103 511 OFFCURVE",
"33 454 OFFCURVE",
"41 343 CURVE SMOOTH",
"42 334 OFFCURVE",
"48 328 OFFCURVE",
"56 328 CURVE SMOOTH",
"187 328 LINE SMOOTH",
"197 328 OFFCURVE",
"202 334 OFFCURVE",
"201 343 CURVE SMOOTH",
"198 373 OFFCURVE",
"212 388 OFFCURVE",
"244 388 CURVE SMOOTH",
"278 388 OFFCURVE",
"289 376 OFFCURVE",
"289 339 CURVE SMOOTH",
"289 299 LINE",
"215 292 LINE SMOOTH",
"70 278 OFFCURVE",
"19 236 OFFCURVE",
"19 130 CURVE SMOOTH",
"19 41 OFFCURVE",
"66 -11 OFFCURVE",
"146 -11 CURVE SMOOTH"
);
},
{
closed = 1;
nodes = (
"196 113 OFFCURVE",
"185 125 OFFCURVE",
"185 154 CURVE SMOOTH",
"185 189 OFFCURVE",
"202 204 OFFCURVE",
"248 209 CURVE SMOOTH",
"289 213 LINE",
"289 192 LINE SMOOTH",
"289 178 OFFCURVE",
"290 164 OFFCURVE",
"292 151 CURVE",
"269 126 OFFCURVE",
"245 113 OFFCURVE",
"223 113 CURVE SMOOTH"
);
},
{
closed = 1;
nodes = (
"461 315 LINE SMOOTH",
"461 364 OFFCURVE",
"479 384 OFFCURVE",
"520 384 CURVE SMOOTH",
"558 384 OFFCURVE",
"578 362 OFFCURVE",
"578 315 CURVE SMOOTH",
"578 305 LINE",
"461 305 LINE"
);
}
);
width = 778;
}
);
leftKerningGroup = a;
leftMetricsKey = a;
rightKerningGroup = e;
rightMetricsKey = e;
unicode = 00E6;
},
{
glyphname = b;
lastChange = "2022-11-09 20:08:32 +0000";
layers = (
{
layerId = "AC740033-F94D-4FA6-A763-4DA6F9230F00";
paths = (
{
closed = 1;
nodes = (
"359 -11 OFFCURVE",
"432 35 OFFCURVE",
"432 150 CURVE SMOOTH",
"432 333 LINE SMOOTH",
"432 440 OFFCURVE",
"390 489 OFFCURVE",
"298 489 CURVE SMOOTH",
"232 489 OFFCURVE",
"168 451 OFFCURVE",
"101 374 CURVE",
"101 353 LINE",
"170 433 OFFCURVE",
"233 473 OFFCURVE",
"297 473 CURVE SMOOTH",
"380 473 OFFCURVE",
"416 429 OFFCURVE",
"416 332 CURVE SMOOTH",
"416 149 LINE SMOOTH",
"416 46 OFFCURVE",
"349 5 OFFCURVE",
"254 5 CURVE SMOOTH",
"203 5 OFFCURVE",
"159 18 OFFCURVE",
"106 28 CURVE",
"106 680 LINE SMOOTH",
"106 682 OFFCURVE",
"105 683 OFFCURVE",
"103 683 CURVE SMOOTH",
"93 683 LINE SMOOTH",
"91 683 OFFCURVE",
"90 682 OFFCURVE",
"90 680 CURVE SMOOTH",
"90 16 LINE",
"151 4 OFFCURVE",
"204 -11 OFFCURVE",
"254 -11 CURVE SMOOTH"
);
}
);
width = 504;
},
{
layerId = "2868C049-E6E5-4053-858B-0FFDC5626279";
paths = (
{
closed = 1;
nodes = (
"384 -11 OFFCURVE",
"449 53 OFFCURVE",
"449 181 CURVE SMOOTH",
"449 326 LINE SMOOTH",
"449 442 OFFCURVE",
"402 499 OFFCURVE",
"310 499 CURVE SMOOTH",
"251 499 OFFCURVE",
"198 472 OFFCURVE",
"137 413 CURVE",
"135 339 LINE",
"202 402 OFFCURVE",
"244 427 OFFCURVE",
"289 427 CURVE SMOOTH",
"343 427 OFFCURVE",
"369 394 OFFCURVE",
"369 319 CURVE SMOOTH",
"369 187 LINE SMOOTH",
"369 100 OFFCURVE",
"328 59 OFFCURVE",
"246 59 CURVE SMOOTH",
"218 59 OFFCURVE",
"182 64 OFFCURVE",
"151 70 CURVE",
"151 674 LINE SMOOTH",
"151 679 OFFCURVE",
"148 683 OFFCURVE",
"142 683 CURVE SMOOTH",
"80 683 LINE SMOOTH",
"75 683 OFFCURVE",
"71 679 OFFCURVE",
"71 674 CURVE SMOOTH",
"71 10 LINE",
"147 4 OFFCURVE",
"195 -11 OFFCURVE",
"256 -11 CURVE SMOOTH"
);
}
);
width = 510;
},
{
layerId = "C3548BD9-1E85-4E1D-92F7-AFAA54E0B7ED";
paths = (
{
closed = 1;
nodes = (
"426 -11 OFFCURVE",
"493 50 OFFCURVE",
"493 184 CURVE SMOOTH",
"493 354 LINE SMOOTH",
"493 462 OFFCURVE",
"451 511 OFFCURVE",
"359 511 CURVE SMOOTH",
"304 511 OFFCURVE",
"252 488 OFFCURVE",
"201 441 CURVE",
"200 326 LINE",
"227 348 OFFCURVE",
"254 361 OFFCURVE",
"277 361 CURVE SMOOTH",
"306 361 OFFCURVE",
"318 346 OFFCURVE",
"318 311 CURVE SMOOTH",
"318 197 LINE SMOOTH",
"318 151 OFFCURVE",
"300 129 OFFCURVE",
"264 129 CURVE SMOOTH",
"245 129 OFFCURVE",
"230 132 OFFCURVE",
"215 135 CURVE",
"215 668 LINE SMOOTH",
"215 677 OFFCURVE",
"209 683 OFFCURVE",
"201 683 CURVE SMOOTH",
"54 683 LINE SMOOTH",
"46 683 OFFCURVE",
"40 677 OFFCURVE",
"40 668 CURVE SMOOTH",
"40 13 LINE",
"118 6 OFFCURVE",
"184 -11 OFFCURVE",
"276 -11 CURVE SMOOTH"
);
}
);
width = 525;
}
);
leftKerningGroup = h;
leftMetricsKey = h;
rightKerningGroup = o;
rightMetricsKey = "=o+2";
unicode = 0062;
},
{
glyphname = c;
lastChange = "2022-11-08 22:11:58 +0000";
layers = (
{
anchors = (
{
name = bottom;
position = "{235, 0}";
},
{
name = ogonek;
position = "{315, 10}";
},
{
name = top;
position = "{235, 478}";
}
);
layerId = "AC740033-F94D-4FA6-A763-4DA6F9230F00";
paths = (
{
closed = 1;
nodes = (
"350 -10 OFFCURVE",
"401 41 OFFCURVE",
"401 139 CURVE SMOOTH",
"401 141 OFFCURVE",
"400 142 OFFCURVE",
"398 142 CURVE SMOOTH",
"388 142 LINE SMOOTH",
"386 142 OFFCURVE",
"385 141 OFFCURVE",
"385 139 CURVE SMOOTH",
"386 50 OFFCURVE",
"339 5 OFFCURVE",
"243 5 CURVE SMOOTH",
"138 5 OFFCURVE",
"86 57 OFFCURVE",
"86 160 CURVE SMOOTH",
"86 311 LINE SMOOTH",
"86 417 OFFCURVE",
"137 473 OFFCURVE",
"238 473 CURVE SMOOTH",
"329 473 OFFCURVE",
"386 425 OFFCURVE",
"385 348 CURVE SMOOTH",
"385 346 OFFCURVE",
"386 345 OFFCURVE",
"388 345 CURVE SMOOTH",
"398 345 LINE SMOOTH",
"400 345 OFFCURVE",
"401 347 OFFCURVE",
"401 348 CURVE SMOOTH",
"402 435 OFFCURVE",
"339 489 OFFCURVE",
"238 489 CURVE SMOOTH",
"127 489 OFFCURVE",
"70 428 OFFCURVE",
"70 311 CURVE SMOOTH",
"70 158 LINE SMOOTH",
"70 48 OFFCURVE",
"130 -12 OFFCURVE",
"243 -11 CURVE SMOOTH"
);
}
);
width = 469;
},
{
anchors = (
{
name = bottom;
position = "{255, 0}";
},
{
name = ogonek;
position = "{318, 10}";
},
{
name = top;
position = "{246, 487}";
}
);
layerId = "2868C049-E6E5-4053-858B-0FFDC5626279";
paths = (
{
closed = 1;
nodes = (
"369 -11 OFFCURVE",
"432 47 OFFCURVE",
"432 146 CURVE SMOOTH",
"432 151 OFFCURVE",
"428 154 OFFCURVE",
"423 154 CURVE SMOOTH",
"362 154 LINE SMOOTH",
"356 154 OFFCURVE",
"353 150 OFFCURVE",
"353 141 CURVE SMOOTH",
"354 91 OFFCURVE",
"317 60 OFFCURVE",
"253 60 CURVE SMOOTH",
"176 60 OFFCURVE",
"138 100 OFFCURVE",
"138 184 CURVE SMOOTH",
"138 303 LINE SMOOTH",
"138 388 OFFCURVE",
"176 427 OFFCURVE",
"253 427 CURVE SMOOTH",
"316 427 OFFCURVE",
"355 398 OFFCURVE",
"354 347 CURVE SMOOTH",
"354 338 OFFCURVE",
"357 334 OFFCURVE",
"363 334 CURVE SMOOTH",
"423 334 LINE SMOOTH",
"430 334 OFFCURVE",
"433 339 OFFCURVE",
"433 353 CURVE SMOOTH",
"434 441 OFFCURVE",
"365 499 OFFCURVE",
"253 499 CURVE SMOOTH",
"127 499 OFFCURVE",
"59 432 OFFCURVE",
"59 309 CURVE SMOOTH",
"59 178 LINE SMOOTH",
"59 55 OFFCURVE",
"125 -11 OFFCURVE",
"252 -11 CURVE SMOOTH"
);
}
);
width = 490;
},
{
anchors = (
{
name = bottom;
position = "{280, 0}";
},
{
name = ogonek;
position = "{328, 10}";
},
{
name = top;
position = "{261, 500}";
}
);
layerId = "C3548BD9-1E85-4E1D-92F7-AFAA54E0B7ED";
paths = (
{
closed = 1;
nodes = (
"421 -11 OFFCURVE",
"496 67 OFFCURVE",
"489 192 CURVE SMOOTH",
"488 200 OFFCURVE",
"482 207 OFFCURVE",
"473 207 CURVE SMOOTH",
"342 207 LINE SMOOTH",
"334 207 OFFCURVE",
"327 201 OFFCURVE",
"327 193 CURVE SMOOTH",
"327 157 OFFCURVE",
"311 137 OFFCURVE",
"267 137 CURVE SMOOTH",
"225 137 OFFCURVE",
"205 157 OFFCURVE",
"205 215 CURVE SMOOTH",
"205 287 LINE SMOOTH",
"205 344 OFFCURVE",
"225 364 OFFCURVE",
"268 364 CURVE SMOOTH",
"306 364 OFFCURVE",
"328 347 OFFCURVE",
"328 308 CURVE SMOOTH",
"328 300 OFFCURVE",
"335 294 OFFCURVE",
"343 294 CURVE SMOOTH",
"474 294 LINE SMOOTH",
"483 294 OFFCURVE",
"489 301 OFFCURVE",
"490 310 CURVE SMOOTH",
"501 420 OFFCURVE",
"420 511 OFFCURVE",
"265 511 CURVE SMOOTH",
"116 511 OFFCURVE",
"30 436 OFFCURVE",
"30 301 CURVE SMOOTH",
"30 200 LINE SMOOTH",
"30 64 OFFCURVE",
"116 -11 OFFCURVE",
"266 -11 CURVE SMOOTH"
);
}
);
width = 521;
}
);
leftKerningGroup = o;
leftMetricsKey = o;
rightKerningGroup = c;
unicode = 0063;
},
{
glyphname = d;
lastChange = "2022-11-08 22:11:58 +0000";
layers = (
{
anchors = (
{
name = bottom;
position = "{248, 0}";
},
{
name = center;
position = "{248, 239}";
},
{
name = top;
position = "{248, 478}";
},
{
name = topright;
position = "{481, 478}";
}
);
layerId = "AC740033-F94D-4FA6-A763-4DA6F9230F00";
paths = (
{
closed = 1;
nodes = (
"276 -11 OFFCURVE",
"332 29 OFFCURVE",
"399 106 CURVE",
"399 128 LINE",
"338 55 OFFCURVE",
"276 5 OFFCURVE",
"204 5 CURVE SMOOTH",
"125 5 OFFCURVE",
"88 47 OFFCURVE",
"88 144 CURVE SMOOTH",
"88 321 LINE SMOOTH",
"88 427 OFFCURVE",
"149 473 OFFCURVE",
"237 473 CURVE SMOOTH",
"294 473 OFFCURVE",
"344 454 OFFCURVE",
"404 420 CURVE",
"404 438 LINE",
"348 469 OFFCURVE",
"296 489 OFFCURVE",
"237 489 CURVE SMOOTH",
"136 489 OFFCURVE",
"72 436 OFFCURVE",
"72 321 CURVE SMOOTH",
"72 144 LINE SMOOTH",
"72 36 OFFCURVE",
"115 -11 OFFCURVE",
"204 -11 CURVE SMOOTH"
);
},
{
closed = 1;
nodes = (
"412 0 LINE SMOOTH",
"414 0 OFFCURVE",
"415 1 OFFCURVE",
"415 3 CURVE SMOOTH",
"413 39 OFFCURVE",
"411 73 OFFCURVE",
"411 110 CURVE SMOOTH",
"411 680 LINE SMOOTH",
"411 682 OFFCURVE",
"410 683 OFFCURVE",
"408 683 CURVE SMOOTH",
"398 683 LINE SMOOTH",
"396 683 OFFCURVE",
"395 682 OFFCURVE",
"395 680 CURVE SMOOTH",
"395 115 LINE",
"395 107 LINE",
"395 72 OFFCURVE",
"397 38 OFFCURVE",
"400 3 CURVE SMOOTH",
"400 1 OFFCURVE",
"401 0 OFFCURVE",
"403 0 CURVE SMOOTH"
);
}
);
width = 500;
},
{
anchors = (
{
name = bottom;
position = "{256, 0}";
},
{
name = center;
position = "{256, 244}";
},
{
name = top;
position = "{256, 487}";
},
{
name = topright;
position = "{493, 487}";
}
);
layerId = "2868C049-E6E5-4053-858B-0FFDC5626279";
paths = (
{
closed = 1;
nodes = (
"263 -11 OFFCURVE",
"315 21 OFFCURVE",
"378 89 CURVE",
"378 157 LINE",
"309 87 OFFCURVE",
"269 60 OFFCURVE",
"220 60 CURVE SMOOTH",
"166 60 OFFCURVE",
"141 93 OFFCURVE",
"141 161 CURVE SMOOTH",
"141 301 LINE SMOOTH",
"141 386 OFFCURVE",
"177 428 OFFCURVE",
"246 428 CURVE SMOOTH",
"284 428 OFFCURVE",
"333 416 OFFCURVE",
"376 394 CURVE",
"372 461 LINE",
"339 483 OFFCURVE",
"281 499 OFFCURVE",
"229 499 CURVE SMOOTH",
"123 499 OFFCURVE",
"61 430 OFFCURVE",
"61 310 CURVE SMOOTH",
"61 163 LINE SMOOTH",
"61 47 OFFCURVE",
"107 -11 OFFCURVE",
"197 -11 CURVE SMOOTH"
);
},
{
closed = 1;
nodes = (
"439 0 LINE SMOOTH",
"446 0 OFFCURVE",
"450 4 OFFCURVE",
"448 13 CURVE SMOOTH",
"445 34 OFFCURVE",
"442 82 OFFCURVE",
"442 115 CURVE SMOOTH",
"442 674 LINE SMOOTH",
"442 679 OFFCURVE",
"438 683 OFFCURVE",
"432.994 683 CURVE SMOOTH",
"371 683 LINE SMOOTH",
"366 683 OFFCURVE",
"362 679 OFFCURVE",
"362 674 CURVE SMOOTH",
"362 127 LINE",
"367 92 LINE",
"367 69 OFFCURVE",
"371 32 OFFCURVE",
"374 10 CURVE SMOOTH",
"375 3 OFFCURVE",
"378 0 OFFCURVE",
"385 0 CURVE SMOOTH"
);
}
);
width = 514;
},
{
anchors = (
{
name = bottom;
position = "{267, 0}";
},
{
name = center;
position = "{267, 250}";
},
{
name = top;
position = "{267, 500}";
},
{
name = topright;
position = "{512, 500}";
}
);
layerId = "C3548BD9-1E85-4E1D-92F7-AFAA54E0B7ED";
paths = (
{
closed = 1;
nodes = (
"253 -11 OFFCURVE",
"310 43 OFFCURVE",
"350 88 CURVE",
"333 184 LINE",
"312 161 OFFCURVE",
"280 139 OFFCURVE",
"249 139 CURVE SMOOTH",
"218 139 OFFCURVE",
"207 155 OFFCURVE",
"207 188 CURVE SMOOTH",
"207 303 LINE SMOOTH",
"207 346 OFFCURVE",
"223 371 OFFCURVE",
"258 371 CURVE SMOOTH",
"278 371 OFFCURVE",
"306 365 OFFCURVE",
"331 351 CURVE",
"329 480 LINE",
"292 500 OFFCURVE",
"235 511 OFFCURVE",
"195 511 CURVE SMOOTH",
"91 511 OFFCURVE",
"32 457 OFFCURVE",
"32 316 CURVE SMOOTH",
"32 146 LINE SMOOTH",
"32 36 OFFCURVE",
"76 -11 OFFCURVE",
"166 -11 CURVE SMOOTH"
);
},
{
closed = 1;
nodes = (
"481 0 LINE SMOOTH",
"491 0 OFFCURVE",
"495 6 OFFCURVE",
"494 16 CURVE SMOOTH",
"491 50 OFFCURVE",
"490 88 OFFCURVE",
"490 131 CURVE SMOOTH",
"490 668 LINE SMOOTH",
"490 677 OFFCURVE",
"484 683 OFFCURVE",
"475 683 CURVE SMOOTH",
"329 683 LINE SMOOTH",
"320 683 OFFCURVE",
"315 677 OFFCURVE",
"315 668 CURVE SMOOTH",
"315 149 LINE",
"332 89 LINE",
"333 62 OFFCURVE",
"336 33 OFFCURVE",
"341 12 CURVE SMOOTH",
"343 3 OFFCURVE",
"348 0 OFFCURVE",
"356 0 CURVE SMOOTH"
);
}
);
width = 530;
}
);
leftKerningGroup = o;
leftMetricsKey = "=o+2";
rightKerningGroup = d;
rightMetricsKey = u;
unicode = 0064;
},
{
glyphname = eth;
lastChange = "2022-11-08 22:11:58 +0000";
layers = (
{
layerId = "AC740033-F94D-4FA6-A763-4DA6F9230F00";
paths = (
{
closed = 1;
nodes = (
"353 -11 OFFCURVE",
"419 52 OFFCURVE",
"419 157 CURVE SMOOTH",
"419 363 LINE SMOOTH",
"419 527 OFFCURVE",
"344 641 OFFCURVE",
"198 693 CURVE SMOOTH",
"196 694 OFFCURVE",
"195 693 OFFCURVE",
"194 692 CURVE SMOOTH",
"189 682 LINE SMOOTH",
"188 681 OFFCURVE",
"188 679 OFFCURVE",
"190 678 CURVE SMOOTH",
"332 631 OFFCURVE",
"403 521 OFFCURVE",
"403 363 CURVE SMOOTH",
"403 160 LINE SMOOTH",
"403 62 OFFCURVE",
"344 5 OFFCURVE",
"244 5 CURVE SMOOTH",
"145 5 OFFCURVE",
"86 62 OFFCURVE",
"86 160 CURVE SMOOTH",
"86 281 LINE SMOOTH",
"86 367 OFFCURVE",
"132 419 OFFCURVE",
"209 419 CURVE SMOOTH",
"281 419 OFFCURVE",
"343 376 OFFCURVE",
"410 322 CURVE",
"410 342 LINE",
"349 390 OFFCURVE",
"285 435 OFFCURVE",
"209 435 CURVE SMOOTH",
"124 435 OFFCURVE",
"70 377 OFFCURVE",
"70 284 CURVE SMOOTH",
"70 157 LINE SMOOTH",
"70 52 OFFCURVE",
"136 -11 OFFCURVE",
"244 -11 CURVE SMOOTH"
);
},
{
closed = 1;
nodes = (
"416 652 LINE SMOOTH",
"418 653 OFFCURVE",
"418 654 OFFCURVE",
"417 656 CURVE SMOOTH",
"413 666 LINE SMOOTH",
"412 668 OFFCURVE",
"411 668 OFFCURVE",
"409 667 CURVE SMOOTH",
"169 549 LINE SMOOTH",
"167 548 OFFCURVE",
"167 547 OFFCURVE",
"168 545 CURVE SMOOTH",
"172 535 LINE SMOOTH",
"173 533 OFFCURVE",
"174 533 OFFCURVE",
"176 534 CURVE SMOOTH"
);
}
);
width = 489;
},
{
layerId = "2868C049-E6E5-4053-858B-0FFDC5626279";
paths = (
{
closed = 1;
nodes = (
"378 -11 OFFCURVE",
"446 59 OFFCURVE",
"446 186 CURVE SMOOTH",
"446 359 LINE SMOOTH",
"446 523 OFFCURVE",
"353 659 OFFCURVE",
"202 692 CURVE SMOOTH",
"193 694 OFFCURVE",
"188 694 OFFCURVE",
"184 687 CURVE SMOOTH",
"158 649 LINE SMOOTH",
"153 642 OFFCURVE",
"155 638 OFFCURVE",
"168 634 CURVE SMOOTH",
"298 599 OFFCURVE",
"381 483 OFFCURVE",
"368 321 CURVE SMOOTH",
"368 188 LINE SMOOTH",
"368 104 OFFCURVE",
"330 58 OFFCURVE",
"252 58 CURVE SMOOTH",
"175 58 OFFCURVE",
"138 93 OFFCURVE",
"138 178 CURVE SMOOTH",
"138 274 LINE SMOOTH",
"138 353 OFFCURVE",
"170 390 OFFCURVE",
"224 390 CURVE SMOOTH",
"280 390 OFFCURVE",
"335 357 OFFCURVE",
"374 304 CURVE",
"374 382 LINE",
"331 433 OFFCURVE",
"275 461 OFFCURVE",
"206 461 CURVE SMOOTH",
"116 461 OFFCURVE",
"59 400 OFFCURVE",
"59 284 CURVE SMOOTH",
"59 171 LINE SMOOTH",
"59 49 OFFCURVE",
"126 -11 OFFCURVE",
"252 -11 CURVE SMOOTH"
);
},
{
closed = 1;
nodes = (
"433 637 LINE SMOOTH",
"437 639 OFFCURVE",
"440 643 OFFCURVE",
"438 648 CURVE SMOOTH",
"421 682 LINE SMOOTH",
"418 689 OFFCURVE",
"415 690 OFFCURVE",
"410 687 CURVE SMOOTH",
"161 566 LINE SMOOTH",
"156 564 OFFCURVE",
"154 560 OFFCURVE",
"156 555 CURVE SMOOTH",
"173 521 LINE SMOOTH",
"176 515 OFFCURVE",
"179 513 OFFCURVE",
"184 516 CURVE SMOOTH"
);
}
);
width = 505;
},
{
layerId = "C3548BD9-1E85-4E1D-92F7-AFAA54E0B7ED";
paths = (
{
closed = 1;
nodes = (
"396 -11 OFFCURVE",
"489 66 OFFCURVE",
"489 200 CURVE SMOOTH",
"489 357 LINE SMOOTH",
"489 536 OFFCURVE",
"414 642 OFFCURVE",
"223 692 CURVE SMOOTH",
"213 695 OFFCURVE",
"208 694 OFFCURVE",
"201 685 CURVE SMOOTH",
"138 599 LINE SMOOTH",
"132 589 OFFCURVE",
"135 582 OFFCURVE",
"145 579 CURVE SMOOTH",
"310 535 OFFCURVE",
"328 482 OFFCURVE",
"314 329 CURVE SMOOTH",
"314 216 LINE SMOOTH",
"314 158 OFFCURVE",
"292 138 OFFCURVE",
"256 138 CURVE SMOOTH",
"221 138 OFFCURVE",
"205 156 OFFCURVE",
"205 192 CURVE SMOOTH",
"205 246 LINE SMOOTH",
"205 293 OFFCURVE",
"221 318 OFFCURVE",
"256 318 CURVE SMOOTH",
"277 318 OFFCURVE",
"305 308 OFFCURVE",
"329 286 CURVE",
"328 415 LINE",
"290 443 OFFCURVE",
"232 458 OFFCURVE",
"190 458 CURVE SMOOTH",
"84 458 OFFCURVE",
"30 400 OFFCURVE",
"30 259 CURVE SMOOTH",
"30 200 LINE SMOOTH",
"30 65 OFFCURVE",
"102 -11 OFFCURVE",
"249 -11 CURVE SMOOTH"
);
},
{
closed = 1;
nodes = (
"440 635 LINE SMOOTH",
"445 638 OFFCURVE",
"448 642 OFFCURVE",
"445 647 CURVE SMOOTH",
"425 682 LINE SMOOTH",
"422 690 OFFCURVE",
"419 692 OFFCURVE",
"413 689 CURVE SMOOTH",
"161 536 LINE SMOOTH",
"157 533 OFFCURVE",
"153 529 OFFCURVE",
"156 524 CURVE SMOOTH",
"177 489 LINE SMOOTH",
"181 482 OFFCURVE",
"183 480 OFFCURVE",
"189 483 CURVE SMOOTH"
);
}
);
width = 519;
}
);
leftKerningGroup = o;
leftMetricsKey = o;
rightKerningGroup = o;
rightMetricsKey = o;
unicode = 00F0;
},
{
glyphname = dcroat;
lastChange = "2022-11-08 22:11:58 +0000";
layers = (
{
components = (
{
alignment = -1;
name = d;
}
);
layerId = "AC740033-F94D-4FA6-A763-4DA6F9230F00";
paths = (
{
closed = 1;
nodes = (
"411 584 LINE",
"506 584 LINE SMOOTH",
"508 584 OFFCURVE",
"509 585 OFFCURVE",
"509 587 CURVE SMOOTH",
"509 597 LINE SMOOTH",
"509 599 OFFCURVE",
"508 600 OFFCURVE",
"506 600 CURVE SMOOTH",
"256 600 LINE SMOOTH",
"254 600 OFFCURVE",
"253 599 OFFCURVE",
"253 597 CURVE SMOOTH",
"253 587 LINE SMOOTH",
"253 585 OFFCURVE",
"254 584 OFFCURVE",
"256 584 CURVE SMOOTH"
);
}
);
width = 500;
},
{
components = (
{
alignment = -1;
name = d;
}
);
layerId = "2868C049-E6E5-4053-858B-0FFDC5626279";
paths = (
{
closed = 1;
nodes = (
"442 557 LINE",
"511 557 LINE SMOOTH",
"516 557 OFFCURVE",
"520 561 OFFCURVE",
"520 566 CURVE SMOOTH",
"520 612 LINE SMOOTH",
"520 618 OFFCURVE",
"516 621 OFFCURVE",
"511 621 CURVE SMOOTH",
"259 621 LINE SMOOTH",
"254 621 OFFCURVE",
"250 618 OFFCURVE",
"250 612 CURVE SMOOTH",
"250 566 LINE SMOOTH",
"250 561 OFFCURVE",
"254 557 OFFCURVE",
"259 557 CURVE SMOOTH"
);
}
);
width = 514;
},
{
components = (
{
alignment = -1;
name = d;
}
);
layerId = "C3548BD9-1E85-4E1D-92F7-AFAA54E0B7ED";
paths = (
{
closed = 1;
nodes = (
"490 547 LINE",
"528 547 LINE SMOOTH",
"536 547 OFFCURVE",
"542 553 OFFCURVE",
"542 562 CURVE SMOOTH",
"542 635 LINE SMOOTH",
"542 644 OFFCURVE",
"537 649 OFFCURVE",
"528 649 CURVE SMOOTH",
"251 649 LINE SMOOTH",
"243 649 OFFCURVE",
"237 644 OFFCURVE",
"237 635 CURVE SMOOTH",
"237 562 LINE SMOOTH",
"237 553 OFFCURVE",
"243 547 OFFCURVE",
"251 547 CURVE SMOOTH"
);
}
);
width = 539;
}
);
leftKerningGroup = o;
leftMetricsKey = "=o+2";
rightKerningGroup = dcroat;
unicode = 0111;
},
{
glyphname = e;
lastChange = "2022-11-08 22:11:58 +0000";
layers = (
{
anchors = (
{
name = bottom;
position = "{237, 0}";
},
{
name = ogonek;
position = "{328, 10}";
},
{
name = top;
position = "{237, 478}";
}
);
layerId = "AC740033-F94D-4FA6-A763-4DA6F9230F00";
paths = (
{
closed = 1;
nodes = (
"344 -10 OFFCURVE",
"396 38 OFFCURVE",
"396 119 CURVE SMOOTH",
"396 121 OFFCURVE",
"395 122 OFFCURVE",
"394 122 CURVE SMOOTH",
"383 122 LINE SMOOTH",
"381 122 OFFCURVE",
"380 121 OFFCURVE",
"380 119 CURVE SMOOTH",
"380 48 OFFCURVE",
"334 5 OFFCURVE",
"243 5 CURVE SMOOTH",
"138 5 OFFCURVE",
"86 58 OFFCURVE",
"86 161 CURVE SMOOTH",
"86 248 LINE",
"403 248 LINE SMOOTH",
"405 248 OFFCURVE",
"406 249 OFFCURVE",
"406 251 CURVE SMOOTH",
"406 311 LINE SMOOTH",
"406 428 OFFCURVE",
"348 489 OFFCURVE",
"238 489 CURVE SMOOTH",
"128 489 OFFCURVE",
"70 428 OFFCURVE",
"70 311 CURVE SMOOTH",
"70 159 LINE SMOOTH",
"70 49 OFFCURVE",
"130 -12 OFFCURVE",
"243 -11 CURVE SMOOTH"
);
},
{
closed = 1;
nodes = (
"86 311 LINE SMOOTH",
"86 416 OFFCURVE",
"138 473 OFFCURVE",
"238 473 CURVE SMOOTH",
"338 473 OFFCURVE",
"390 416 OFFCURVE",
"390 311 CURVE SMOOTH",
"390 264 LINE",
"86 264 LINE"
);
}
);
width = 474;
},
{
anchors = (
{
name = bottom;
position = "{249, 0}";
},
{
name = ogonek;
position = "{353, 11}";
},
{
name = top;
position = "{245, 496}";
}
);
layerId = "2868C049-E6E5-4053-858B-0FFDC5626279";
paths = (
{
closed = 1;
nodes = (
"364 -11 OFFCURVE",
"431 41 OFFCURVE",
"427 127 CURVE SMOOTH",
"426 132 OFFCURVE",
"423 135 OFFCURVE",
"418 135 CURVE SMOOTH",
"357 135 LINE SMOOTH",
"352 135 OFFCURVE",
"347 132 OFFCURVE",
"347 125 CURVE SMOOTH",
"348 82 OFFCURVE",
"314 59 OFFCURVE",
"252 59 CURVE SMOOTH",
"172 59 OFFCURVE",
"138 96 OFFCURVE",
"138 183 CURVE SMOOTH",
"138 226 LINE",
"427 226 LINE SMOOTH",
"432 226 OFFCURVE",
"436 229 OFFCURVE",
"436 235 CURVE SMOOTH",
"436 313 LINE SMOOTH",
"436 434 OFFCURVE",
"371 499 OFFCURVE",
"247 499 CURVE SMOOTH",
"125 499 OFFCURVE",
"59 433 OFFCURVE",
"59 309 CURVE SMOOTH",
"59 166 LINE SMOOTH",
"59 48 OFFCURVE",
"125 -11 OFFCURVE",
"248 -11 CURVE SMOOTH"
);
},
{
closed = 1;
nodes = (
"138 308 LINE SMOOTH",
"138 388 OFFCURVE",
"175 429 OFFCURVE",
"248 429 CURVE SMOOTH",
"321 429 OFFCURVE",
"356 390 OFFCURVE",
"356 308 CURVE SMOOTH",
"356 292 LINE",
"138 292 LINE"
);
}
);
width = 493;
},
{
anchors = (
{
name = bottom;
position = "{267, 0}";
},
{
name = ogonek;
position = "{407, 10}";
},
{
name = top;
position = "{263, 500}";
}
);
layerId = "C3548BD9-1E85-4E1D-92F7-AFAA54E0B7ED";
paths = (
{
closed = 1;
nodes = (
"420 -11 OFFCURVE",
"487 38 OFFCURVE",
"487 151 CURVE SMOOTH",
"487 161 OFFCURVE",
"482 165 OFFCURVE",
"473 165 CURVE SMOOTH",
"334 165 LINE SMOOTH",
"325 165 OFFCURVE",
"319 161 OFFCURVE",
"319 153 CURVE SMOOTH",
"319 127 OFFCURVE",
"297 116 OFFCURVE",
"262 116 CURVE SMOOTH",
"219 116 OFFCURVE",
"202 137 OFFCURVE",
"202 176 CURVE SMOOTH",
"202 210 LINE",
"483 210 LINE SMOOTH",
"492 210 OFFCURVE",
"498 216 OFFCURVE",
"498 225 CURVE SMOOTH",
"498 304 LINE SMOOTH",
"498 442 OFFCURVE",
"419 511 OFFCURVE",
"263 511 CURVE SMOOTH",
"104 511 OFFCURVE",
"30 437 OFFCURVE",
"30 298 CURVE SMOOTH",
"30 192 LINE SMOOTH",
"30 56 OFFCURVE",
"101 -11 OFFCURVE",
"267 -11 CURVE SMOOTH"
);
},
{
closed = 1;
nodes = (
"202 312 LINE SMOOTH",
"202 362 OFFCURVE",
"219 383 OFFCURVE",
"266 383 CURVE SMOOTH",
"309 383 OFFCURVE",
"327 363 OFFCURVE",
"327 312 CURVE SMOOTH",
"327 301 LINE",
"202 301 LINE"
);
}
);
width = 528;
}
);
leftKerningGroup = o;
leftMetricsKey = o;
rightKerningGroup = e;
unicode = 0065;
},
{
glyphname = f;
lastChange = "2022-11-08 22:11:58 +0000";
layers = (
{
anchors = (
{
name = bottom;
position = "{165, 0}";
},
{
name = top;
position = "{165, 478}";
}
);
layerId = "AC740033-F94D-4FA6-A763-4DA6F9230F00";
paths = (
{
closed = 1;
nodes = (
"128 0 LINE SMOOTH",
"130 0 OFFCURVE",
"131 1 OFFCURVE",
"131 3 CURVE SMOOTH",
"131 462 LINE",
"303 462 LINE SMOOTH",
"305 462 OFFCURVE",
"306 463 OFFCURVE",
"306 465 CURVE SMOOTH",
"306 475 LINE SMOOTH",
"306 477 OFFCURVE",
"305 478 OFFCURVE",
"303 478 CURVE SMOOTH",
"131 478 LINE",
"131 542 LINE SMOOTH",
"131 637 OFFCURVE",
"159 678 OFFCURVE",
"245 678 CURVE SMOOTH",
"270 678 OFFCURVE",
"301 675 OFFCURVE",
"326 666 CURVE SMOOTH",
"328 665 OFFCURVE",
"329 666 OFFCURVE",
"329 668 CURVE SMOOTH",
"329 679 LINE SMOOTH",
"329 680 OFFCURVE",
"329 681 OFFCURVE",
"327 682 CURVE SMOOTH",
"308 689 OFFCURVE",
"274 694 OFFCURVE",
"245 694 CURVE SMOOTH",
"152 694 OFFCURVE",
"115 650 OFFCURVE",
"115 543 CURVE SMOOTH",
"115 478 LINE",
"34 478 LINE SMOOTH",
"32 478 OFFCURVE",
"31 477 OFFCURVE",
"31 475 CURVE SMOOTH",
"31 465 LINE SMOOTH",
"31 463 OFFCURVE",
"32 462 OFFCURVE",
"34 462 CURVE SMOOTH",
"115 462 LINE",
"115 3 LINE SMOOTH",
"115 1 OFFCURVE",
"116 0 OFFCURVE",
"118 0 CURVE SMOOTH"
);
}
);
width = 325;
},
{
anchors = (
{
name = bottom;
position = "{175, 0}";
},
{
name = top;
position = "{175, 487}";
}
);
layerId = "2868C049-E6E5-4053-858B-0FFDC5626279";
paths = (
{
closed = 1;
nodes = (
"174 0 LINE SMOOTH",
"179 0 OFFCURVE",
"183 4 OFFCURVE",
"183 9 CURVE SMOOTH",
"183 418 LINE",
"320 418 LINE SMOOTH",
"326 418 OFFCURVE",
"329 422 OFFCURVE",
"329 427 CURVE SMOOTH",
"329 478 LINE SMOOTH",
"329 484 OFFCURVE",
"326 487 OFFCURVE",
"320 487 CURVE SMOOTH",
"183 487 LINE",
"183 538 LINE SMOOTH",
"183 596 OFFCURVE",
"209 625 OFFCURVE",
"265 625 CURVE SMOOTH",
"288 625 OFFCURVE",
"318 618 OFFCURVE",
"339 610 CURVE SMOOTH",
"353 604 OFFCURVE",
"358 607 OFFCURVE",
"358 614 CURVE SMOOTH",
"358 664 LINE SMOOTH",
"358 671 OFFCURVE",
"353 675 OFFCURVE",
"343 679 CURVE SMOOTH",
"321 687 OFFCURVE",
"286 694 OFFCURVE",
"255 694 CURVE SMOOTH",
"157 694 OFFCURVE",
"103 640 OFFCURVE",
"103 541 CURVE SMOOTH",
"103 487 LINE",
"30 487 LINE SMOOTH",
"24 487 OFFCURVE",
"21 484 OFFCURVE",
"21 478 CURVE SMOOTH",
"21 427 LINE SMOOTH",
"21 422 OFFCURVE",
"24 418 OFFCURVE",
"30 418 CURVE SMOOTH",
"103 418 LINE",
"103 9 LINE SMOOTH",
"103 4 OFFCURVE",
"106 0 OFFCURVE",
"112 0 CURVE SMOOTH"
);
}
);
width = 349;
},
{
anchors = (
{
name = bottom;
position = "{196, 0}";
},
{
name = top;
position = "{196, 499}";
}
);
layerId = "C3548BD9-1E85-4E1D-92F7-AFAA54E0B7ED";
paths = (
{
closed = 1;
nodes = (
"250 0 LINE SMOOTH",
"258 0 OFFCURVE",
"264 7 OFFCURVE",
"264 15 CURVE SMOOTH",
"264 355 LINE",
"357 355 LINE SMOOTH",
"365 355 OFFCURVE",
"372 362 OFFCURVE",
"372 370 CURVE SMOOTH",
"372 484 LINE SMOOTH",
"372 493 OFFCURVE",
"367 500 OFFCURVE",
"356 500 CURVE SMOOTH",
"264 500 LINE",
"264 510 LINE SMOOTH",
"264 543 OFFCURVE",
"279 559 OFFCURVE",
"319 559 CURVE SMOOTH",
"347 559 OFFCURVE",
"371 555 OFFCURVE",
"390 549 CURVE SMOOTH",
"402 546 OFFCURVE",
"407 550 OFFCURVE",
"407 561 CURVE SMOOTH",
"407 667 LINE SMOOTH",
"407 674 OFFCURVE",
"405 679 OFFCURVE",
"398 681 CURVE SMOOTH",
"375 687 OFFCURVE",
"324 694 OFFCURVE",
"270 694 CURVE SMOOTH",
"149 694 OFFCURVE",
"89 639 OFFCURVE",
"89 524 CURVE SMOOTH",
"89 500 LINE",
"25 500 LINE SMOOTH",
"17 500 OFFCURVE",
"10 493 OFFCURVE",
"10 485 CURVE SMOOTH",
"10 370 LINE SMOOTH",
"10 362 OFFCURVE",
"17 355 OFFCURVE",
"25 355 CURVE SMOOTH",
"89 355 LINE",
"89 15 LINE SMOOTH",
"89 7 OFFCURVE",
"96 0 OFFCURVE",
"104 0 CURVE SMOOTH"
);
}
);
width = 392;
}
);
leftKerningGroup = f;
rightKerningGroup = f;
unicode = 0066;
},
{
glyphname = g;
lastChange = "2022-11-08 22:11:58 +0000";
layers = (
{
anchors = (
{
name = bottom;
position = "{237, 0}";
},
{
name = top;
position = "{237, 478}";
}
);
layerId = "AC740033-F94D-4FA6-A763-4DA6F9230F00";
paths = (
{
closed = 1;
nodes = (
"378 -196 OFFCURVE",
"428 -159 OFFCURVE",
"428 -68 CURVE SMOOTH",
"428 15 OFFCURVE",
"391 44 OFFCURVE",
"310 50 CURVE SMOOTH",
"174 60 LINE SMOOTH",
"112 64 OFFCURVE",
"97 91 OFFCURVE",
"97 120 CURVE SMOOTH",
"97 158 OFFCURVE",
"121 180 OFFCURVE",
"161 202 CURVE",
"146 212 LINE",
"106 187 OFFCURVE",
"81 161 OFFCURVE",
"81 121 CURVE SMOOTH",
"81 79 OFFCURVE",
"104 50 OFFCURVE",
"161 46 CURVE SMOOTH",
"305 35 LINE SMOOTH",
"383 29 OFFCURVE",
"412 4 OFFCURVE",
"412 -68 CURVE SMOOTH",
"412 -147 OFFCURVE",
"370 -180 OFFCURVE",
"238 -180 CURVE SMOOTH",
"111 -180 OFFCURVE",
"61 -150 OFFCURVE",
"61 -73 CURVE SMOOTH",
"61 -4 OFFCURVE",
"95 29 OFFCURVE",
"171 55 CURVE",
"146 59 LINE",
"77 34 OFFCURVE",
"45 -3 OFFCURVE",
"45 -73 CURVE SMOOTH",
"45 -159 OFFCURVE",
"98 -196 OFFCURVE",
"238 -196 CURVE SMOOTH"
);
},
{
closed = 1;
nodes = (
"351 180 OFFCURVE",
"405 233 OFFCURVE",
"405 335 CURVE SMOOTH",
"405 436 OFFCURVE",
"351 489 OFFCURVE",
"245 489 CURVE SMOOTH",
"139 489 OFFCURVE",
"86 436 OFFCURVE",
"86 335 CURVE SMOOTH",
"86 233 OFFCURVE",
"139 180 OFFCURVE",
"245 180 CURVE SMOOTH"
);
},
{
closed = 1;
nodes = (
"148 196 OFFCURVE",
"102 242 OFFCURVE",
"102 335 CURVE SMOOTH",
"102 428 OFFCURVE",
"148 473 OFFCURVE",
"245 473 CURVE SMOOTH",
"342 473 OFFCURVE",
"389 428 OFFCURVE",
"389 335 CURVE SMOOTH",
"389 242 OFFCURVE",
"342 196 OFFCURVE",
"245 196 CURVE SMOOTH"
);
},
{
closed = 1;
nodes = (
"340 515 OFFCURVE",
"351 570 OFFCURVE",
"362 604 CURVE SMOOTH",
"363 607 OFFCURVE",
"362 608 OFFCURVE",
"359 608 CURVE SMOOTH",
"350 608 LINE SMOOTH",
"348 608 OFFCURVE",
"346 607 OFFCURVE",
"345 604 CURVE SMOOTH",
"335 571 OFFCURVE",
"324 515 OFFCURVE",
"318 469 CURVE",
"334 469 LINE"
);
}
);
width = 471;
},
{
anchors = (
{
name = bottom;
position = "{246, 0}";
},
{
name = top;
position = "{246, 487}";
}
);
layerId = "2868C049-E6E5-4053-858B-0FFDC5626279";
paths = (
{
closed = 1;
nodes = (
"394 -196 OFFCURVE",
"458 -155 OFFCURVE",
"458 -55 CURVE SMOOTH",
"458 32 OFFCURVE",
"420 74 OFFCURVE",
"340 80 CURVE SMOOTH",
"191 90 LINE SMOOTH",
"154 92 OFFCURVE",
"140 104 OFFCURVE",
"140 127 CURVE SMOOTH",
"140 150 OFFCURVE",
"155 168 OFFCURVE",
"184 181 CURVE",
"134 210 LINE",
"89 178 OFFCURVE",
"68 153 OFFCURVE",
"68 110 CURVE SMOOTH",
"68 53 OFFCURVE",
"104 24 OFFCURVE",
"150 21 CURVE SMOOTH",
"315 11 LINE SMOOTH",
"362 9 OFFCURVE",
"380 -9 OFFCURVE",
"380 -52 CURVE SMOOTH",
"380 -109 OFFCURVE",
"346 -128 OFFCURVE",
"246 -128 CURVE SMOOTH",
"150 -128 OFFCURVE",
"115 -109 OFFCURVE",
"115 -56 CURVE SMOOTH",
"115 -16 OFFCURVE",
"135 13 OFFCURVE",
"177 27 CURVE",
"114 51 LINE",
"60 25 OFFCURVE",
"33 -14 OFFCURVE",
"33 -71 CURVE SMOOTH",
"33 -156 OFFCURVE",
"94 -196 OFFCURVE",
"242 -196 CURVE SMOOTH"
);
},
{
closed = 1;
nodes = (
"370 161 OFFCURVE",
"425 214 OFFCURVE",
"425 329 CURVE SMOOTH",
"425 444 OFFCURVE",
"369 499 OFFCURVE",
"252 499 CURVE SMOOTH",
"131 499 OFFCURVE",
"75 444 OFFCURVE",
"75 330 CURVE SMOOTH",
"75 215 OFFCURVE",
"130 161 OFFCURVE",
"250 161 CURVE SMOOTH"
);
},
{
closed = 1;
nodes = (
"179 229 OFFCURVE",
"154 256 OFFCURVE",
"154 329 CURVE SMOOTH",
"154 402 OFFCURVE",
"180 430 OFFCURVE",
"250 430 CURVE SMOOTH",
"320 430 OFFCURVE",
"346 402 OFFCURVE",
"346 329 CURVE SMOOTH",
"346 256 OFFCURVE",
"321 229 OFFCURVE",
"250 229 CURVE SMOOTH"
);
},
{
closed = 1;
nodes = (
"375 524 OFFCURVE",
"384 566 OFFCURVE",
"396 608 CURVE SMOOTH",
"398 614 OFFCURVE",
"396 617 OFFCURVE",
"388 617 CURVE SMOOTH",
"331 617 LINE SMOOTH",
"326 617 OFFCURVE",
"323 614 OFFCURVE",
"321 606 CURVE SMOOTH",
"314 576 OFFCURVE",
"307 533 OFFCURVE",
"301 475 CURVE",
"365 448 LINE"
);
}
);
width = 490;
},
{
anchors = (
{
name = bottom;
position = "{250, 0}";
},
{
name = top;
position = "{250, 500}";
}
);
layerId = "C3548BD9-1E85-4E1D-92F7-AFAA54E0B7ED";
paths = (
{
closed = 1;
nodes = (
"425 -196 OFFCURVE",
"501 -147 OFFCURVE",
"501 -35 CURVE SMOOTH",
"501 62 OFFCURVE",
"461 111 OFFCURVE",
"349 119 CURVE SMOOTH",
"207 129 LINE SMOOTH",
"187 131 OFFCURVE",
"181 136 OFFCURVE",
"181 145 CURVE SMOOTH",
"181 154 OFFCURVE",
"187 166 OFFCURVE",
"209 173 CURVE",
"109 206 LINE",
"56 180 OFFCURVE",
"37 141 OFFCURVE",
"37 96 CURVE SMOOTH",
"37 39 OFFCURVE",
"72 3 OFFCURVE",
"138 -2 CURVE SMOOTH",
"302 -15 LINE SMOOTH",
"323 -16 OFFCURVE",
"331 -24 OFFCURVE",
"331 -41 CURVE SMOOTH",
"331 -63 OFFCURVE",
"320 -71 OFFCURVE",
"252 -70 CURVE SMOOTH",
"198 -69 OFFCURVE",
"179 -61 OFFCURVE",
"179 -39 CURVE SMOOTH",
"179 -23 OFFCURVE",
"187 -10 OFFCURVE",
"210 2 CURVE",
"81 35 LINE",
"26 6 OFFCURVE",
"6 -34 OFFCURVE",
"6 -79 CURVE SMOOTH",
"6 -156 OFFCURVE",
"77 -196 OFFCURVE",
"243 -196 CURVE SMOOTH"
);
},
{
closed = 1;
nodes = (
"396 161 OFFCURVE",
"461 216 OFFCURVE",
"461 334 CURVE SMOOTH",
"461 454 OFFCURVE",
"397 511 OFFCURVE",
"255 511 CURVE SMOOTH",
"113 511 OFFCURVE",
"49 454 OFFCURVE",
"49 334 CURVE SMOOTH",
"49 216 OFFCURVE",
"114 161 OFFCURVE",
"255 161 CURVE SMOOTH"
);
},
{
closed = 1;
nodes = (
"222 283 OFFCURVE",
"212 298 OFFCURVE",
"212 336 CURVE SMOOTH",
"212 374 OFFCURVE",
"222 389 OFFCURVE",
"255 389 CURVE SMOOTH",
"288 389 OFFCURVE",
"299 374 OFFCURVE",
"299 336 CURVE SMOOTH",
"299 297 OFFCURVE",
"288 283 OFFCURVE",
"255 283 CURVE SMOOTH"
);
},
{
closed = 1;
nodes = (
"403 503 OFFCURVE",
"415 556 OFFCURVE",
"431 609 CURVE SMOOTH",
"434 620 OFFCURVE",
"431 626 OFFCURVE",
"418 626 CURVE SMOOTH",
"310 626 LINE SMOOTH",
"304 626 OFFCURVE",
"299 622 OFFCURVE",
"298 614 CURVE SMOOTH",
"294 582 OFFCURVE",
"289 536 OFFCURVE",
"291 495 CURVE",
"402 457 LINE"
);
}
);
width = 507;
}
);
leftKerningGroup = g;
rightKerningGroup = g;
unicode = 0067;
},
{
glyphname = h;
lastChange = "2022-11-08 22:11:58 +0000";
layers = (
{
anchors = (
{
name = bottom;
position = "{263, 0}";
},
{
name = center;
position = "{263, 239}";
},
{
name = top;
position = "{263, 478}";
}
);
layerId = "AC740033-F94D-4FA6-A763-4DA6F9230F00";
paths = (
{
closed = 1;
nodes = (
"432 0 LINE SMOOTH",
"434 0 OFFCURVE",
"435 1 OFFCURVE",
"435 3 CURVE SMOOTH",
"435 332 LINE SMOOTH",
"435 442 OFFCURVE",
"391 489 OFFCURVE",
"309 489 CURVE SMOOTH",
"238 489 OFFCURVE",
"169 444 OFFCURVE",
"102 370 CURVE",
"102 349 LINE",
"167 422 OFFCURVE",
"235 473 OFFCURVE",
"308 473 CURVE SMOOTH",
"383 473 OFFCURVE",
"419 429 OFFCURVE",
"419 330 CURVE SMOOTH",
"419 3 LINE SMOOTH",
"419 1 OFFCURVE",
"420 0 OFFCURVE",
"422 0 CURVE SMOOTH"
);
},
{
closed = 1;
nodes = (
"103 0 LINE SMOOTH",
"105 0 OFFCURVE",
"106 1 OFFCURVE",
"106 3 CURVE SMOOTH",
"106 680 LINE SMOOTH",
"106 682 OFFCURVE",
"105 683 OFFCURVE",
"103 683 CURVE SMOOTH",
"93 683 LINE SMOOTH",
"91 683 OFFCURVE",
"90 682 OFFCURVE",
"90 680 CURVE SMOOTH",
"90 3 LINE SMOOTH",
"90 1 OFFCURVE",
"91 0 OFFCURVE",
"92 0 CURVE SMOOTH"
);
}
);
width = 524;
},
{
anchors = (
{
name = bottom;
position = "{270, 0}";
},
{
name = center;
position = "{263, 244}";
},
{
name = top;
position = "{237, 624}";
}
);
layerId = "2868C049-E6E5-4053-858B-0FFDC5626279";
paths = (
{
closed = 1;
nodes = (
"447 0 LINE SMOOTH",
"453 0 OFFCURVE",
"456 4 OFFCURVE",
"456 9 CURVE SMOOTH",
"456 338 LINE SMOOTH",
"456 445 OFFCURVE",
"409 499 OFFCURVE",
"320 499 CURVE SMOOTH",
"254 499 OFFCURVE",
"199 467 OFFCURVE",
"138 400 CURVE",
"139 332 LINE",
"197 396 OFFCURVE",
"247 427 OFFCURVE",
"298 427 CURVE SMOOTH",
"351 427 OFFCURVE",
"376 397 OFFCURVE",
"376 333 CURVE SMOOTH",
"376 9 LINE SMOOTH",
"376 4 OFFCURVE",
"380 0 OFFCURVE",
"385 0 CURVE SMOOTH"
);
},
{
closed = 1;
nodes = (
"142 0 LINE SMOOTH",
"148 0 OFFCURVE",
"151 4 OFFCURVE",
"151 9 CURVE SMOOTH",
"151 674 LINE SMOOTH",
"151 679 OFFCURVE",
"148 683 OFFCURVE",
"142 683 CURVE SMOOTH",
"80 683 LINE SMOOTH",
"75 683 OFFCURVE",
"71 679 OFFCURVE",
"71 674 CURVE SMOOTH",
"71 9 LINE SMOOTH",
"71 4 OFFCURVE",
"75 0 OFFCURVE",
"80 0 CURVE SMOOTH"
);
}
);
width = 528;
},
{
anchors = (
{
name = bottom;
position = "{270, 0}";
},
{
name = center;
position = "{270, 250}";
},
{
name = top;
position = "{272, 507}";
}
);
layerId = "C3548BD9-1E85-4E1D-92F7-AFAA54E0B7ED";
paths = (
{
closed = 1;
nodes = (
"485 0 LINE SMOOTH",
"494 0 OFFCURVE",
"499 6 OFFCURVE",
"499 15 CURVE SMOOTH",
"499 353 LINE SMOOTH",
"499 463 OFFCURVE",
"455 511 OFFCURVE",
"366 511 CURVE SMOOTH",
"279 511 OFFCURVE",
"222 458 OFFCURVE",
"182 413 CURVE",
"199 316 LINE",
"219 338 OFFCURVE",
"251 361 OFFCURVE",
"283 361 CURVE SMOOTH",
"313 361 OFFCURVE",
"324 345 OFFCURVE",
"324 311 CURVE SMOOTH",
"324 15 LINE SMOOTH",
"324 6 OFFCURVE",
"330 0 OFFCURVE",
"339 0 CURVE SMOOTH"
);
},
{
closed = 1;
nodes = (
"201 0 LINE SMOOTH",
"209 0 OFFCURVE",
"215 6 OFFCURVE",
"215 15 CURVE SMOOTH",
"215 668 LINE SMOOTH",
"215 677 OFFCURVE",
"209 683 OFFCURVE",
"201 683 CURVE SMOOTH",
"54 683 LINE SMOOTH",
"46 683 OFFCURVE",
"40 677 OFFCURVE",
"40 668 CURVE SMOOTH",
"40 15 LINE SMOOTH",
"40 6 OFFCURVE",
"46 0 OFFCURVE",
"54 0 CURVE SMOOTH"
);
}
);
width = 539;
}
);
leftKerningGroup = h;
rightKerningGroup = n;
rightMetricsKey = n;
unicode = 0068;
},
{
glyphname = hbar;
lastChange = "2022-11-09 20:08:32 +0000";
layers = (
{
components = (
{
alignment = -1;
name = h;
transform = "{1, 0, 0, 1, -1, 0}";
}
);
layerId = "AC740033-F94D-4FA6-A763-4DA6F9230F00";
paths = (
{
closed = 1;
nodes = (
"90 584 LINE",
"245 584 LINE SMOOTH",
"247 584 OFFCURVE",
"248 585 OFFCURVE",
"248 587 CURVE SMOOTH",
"248 597 LINE SMOOTH",
"248 599 OFFCURVE",
"247 600 OFFCURVE",
"245 600 CURVE SMOOTH",
"-6 600 LINE SMOOTH",
"-8 600 OFFCURVE",
"-9 599 OFFCURVE",
"-9 597 CURVE SMOOTH",
"-9 587 LINE SMOOTH",
"-9 585 OFFCURVE",
"-8 584 OFFCURVE",
"-6 584 CURVE SMOOTH"
);
}
);
width = 523;
},
{
components = (
{
alignment = -1;
name = h;
transform = "{1, 0, 0, 1, 1, 0}";
}
);
layerId = "2868C049-E6E5-4053-858B-0FFDC5626279";
paths = (
{
closed = 1;
nodes = (
"72 557 LINE",
"255 557 LINE SMOOTH",
"260 557 OFFCURVE",
"264 561 OFFCURVE",
"264 566 CURVE SMOOTH",
"264 612 LINE SMOOTH",
"264 618 OFFCURVE",
"260 621 OFFCURVE",
"255 621 CURVE SMOOTH",
"3 621 LINE SMOOTH",
"-2 621 OFFCURVE",
"-6 618 OFFCURVE",
"-6 612 CURVE SMOOTH",
"-6 566 LINE SMOOTH",
"-6 561 OFFCURVE",
"-2 557 OFFCURVE",
"3 557 CURVE SMOOTH"
);
}
);
width = 529;
},
{
components = (
{
alignment = -1;
name = h;
transform = "{1, 0, 0, 1, 10, 0}";
}
);
layerId = "C3548BD9-1E85-4E1D-92F7-AFAA54E0B7ED";
paths = (
{
closed = 1;
nodes = (
"50 547 LINE",
"288 547 LINE SMOOTH",
"297 547 OFFCURVE",
"303 553 OFFCURVE",
"303 562 CURVE SMOOTH",
"303 635 LINE SMOOTH",
"303 644 OFFCURVE",
"297 649 OFFCURVE",
"288 649 CURVE SMOOTH",
"12 649 LINE SMOOTH",
"3 649 OFFCURVE",
"-3 644 OFFCURVE",
"-3 635 CURVE SMOOTH",
"-3 562 LINE SMOOTH",
"-3 553 OFFCURVE",
"3 547 OFFCURVE",
"12 547 CURVE SMOOTH"
);
}
);
width = 549;
}
);
leftKerningGroup = hbar;
leftMetricsKey = "=|dcroat";
rightKerningGroup = n;
rightMetricsKey = h;
unicode = 0127;
},
{
glyphname = idotless;
lastChange = "2022-11-08 22:11:58 +0000";
layers = (
{
anchors = (
{
name = bottom;
position = "{98, 0}";
},
{
name = ogonek;
position = "{117, 10}";
},
{
name = top;
position = "{98, 478}";
}
);
layerId = "AC740033-F94D-4FA6-A763-4DA6F9230F00";
paths = (
{
closed = 1;
nodes = (
"103 0 LINE SMOOTH",
"105 0 OFFCURVE",
"106 1 OFFCURVE",
"106 3 CURVE SMOOTH",
"106 475 LINE SMOOTH",
"106 477 OFFCURVE",
"105 478 OFFCURVE",
"103 478 CURVE SMOOTH",
"93 478 LINE SMOOTH",
"91 478 OFFCURVE",
"90 477 OFFCURVE",
"90 475 CURVE SMOOTH",
"90 3 LINE SMOOTH",
"90 1 OFFCURVE",
"91 0 OFFCURVE",
"93 0 CURVE SMOOTH"
);
}
);
width = 195;
},
{
anchors = (
{
name = bottom;
position = "{112, 0}";
},
{
name = ogonek;
position = "{156, 10}";
},
{
name = top;
position = "{112, 487}";
}
);
layerId = "2868C049-E6E5-4053-858B-0FFDC5626279";
paths = (
{
closed = 1;
nodes = (
"142 0 LINE SMOOTH",
"148 0 OFFCURVE",
"151 4 OFFCURVE",
"151 9 CURVE SMOOTH",
"151 478 LINE SMOOTH",
"151 484 OFFCURVE",
"148 487 OFFCURVE",
"142 487 CURVE SMOOTH",
"80 487 LINE SMOOTH",
"75 487 OFFCURVE",
"71 484 OFFCURVE",
"71 478 CURVE SMOOTH",
"71 9 LINE SMOOTH",
"71 4 OFFCURVE",
"75 0 OFFCURVE",
"80 0 CURVE SMOOTH"
);
}
);
width = 223;
},
{
anchors = (
{
name = bottom;
position = "{127, 0}";
},
{
name = ogonek;
position = "{216, 10}";
},
{
name = top;
position = "{127, 500}";
}
);
layerId = "C3548BD9-1E85-4E1D-92F7-AFAA54E0B7ED";
paths = (
{
closed = 1;
nodes = (
"201 0 LINE SMOOTH",
"209 0 OFFCURVE",
"215 6 OFFCURVE",
"215 15 CURVE SMOOTH",
"215 485 LINE SMOOTH",
"215 494 OFFCURVE",
"209 500 OFFCURVE",
"201 500 CURVE SMOOTH",
"54 500 LINE SMOOTH",
"46 500 OFFCURVE",
"40 494 OFFCURVE",
"40 485 CURVE SMOOTH",
"40 15 LINE SMOOTH",
"40 6 OFFCURVE",
"46 0 OFFCURVE",
"54 0 CURVE SMOOTH"
);
}
);
width = 255;
}
);
leftKerningGroup = n;
leftMetricsKey = u;
rightKerningGroup = u;
rightMetricsKey = n;
unicode = 0131;
},
{
glyphname = jdotless;
lastChange = "2022-11-08 22:11:58 +0000";
layers = (
{
anchors = (
{
name = bottom;
position = "{97, 0}";
},
{
name = top;
position = "{97, 478}";
}
);
layerId = "AC740033-F94D-4FA6-A763-4DA6F9230F00";
paths = (
{
closed = 1;
nodes = (
"81 -118 OFFCURVE",
"105 -76 OFFCURVE",
"105 24 CURVE SMOOTH",
"105 475 LINE SMOOTH",
"105 477 OFFCURVE",
"104 478 OFFCURVE",
"102 478 CURVE SMOOTH",
"92 478 LINE SMOOTH",
"90 478 OFFCURVE",
"89 477 OFFCURVE",
"89 475 CURVE SMOOTH",
"89 24 LINE SMOOTH",
"89 -68 OFFCURVE",
"66 -109 OFFCURVE",
"6 -168 CURVE SMOOTH",
"5 -169 OFFCURVE",
"5 -171 OFFCURVE",
"6 -172 CURVE SMOOTH",
"13 -182 LINE SMOOTH",
"14 -183 OFFCURVE",
"16 -183 OFFCURVE",
"17 -182 CURVE SMOOTH"
);
}
);
width = 193;
},
{
anchors = (
{
name = bottom;
position = "{111, 0}";
},
{
name = top;
position = "{111, 487}";
}
);
layerId = "2868C049-E6E5-4053-858B-0FFDC5626279";
paths = (
{
closed = 1;
nodes = (
"119 -137 OFFCURVE",
"151 -63 OFFCURVE",
"151 56 CURVE SMOOTH",
"151 478 LINE SMOOTH",
"151 484 OFFCURVE",
"147 487 OFFCURVE",
"142 487 CURVE SMOOTH",
"80 487 LINE SMOOTH",
"74 487 OFFCURVE",
"71 484 OFFCURVE",
"71 478 CURVE SMOOTH",
"71 60 LINE SMOOTH",
"71 -32 OFFCURVE",
"44 -88 OFFCURVE",
"-7 -127 CURVE SMOOTH",
"-12 -131 OFFCURVE",
"-13 -135 OFFCURVE",
"-9 -140 CURVE SMOOTH",
"28 -186 LINE SMOOTH",
"32 -191 OFFCURVE",
"36 -191 OFFCURVE",
"40 -189 CURVE SMOOTH"
);
}
);
width = 222;
},
{
anchors = (
{
name = bottom;
position = "{130, 0}";
},
{
name = top;
position = "{130, 500}";
}
);
layerId = "C3548BD9-1E85-4E1D-92F7-AFAA54E0B7ED";
paths = (
{
closed = 1;
nodes = (
"184 -126 OFFCURVE",
"215 -47 OFFCURVE",
"215 98 CURVE SMOOTH",
"215 485 LINE SMOOTH",
"215 493 OFFCURVE",
"208 500 OFFCURVE",
"201 500 CURVE SMOOTH",
"54 500 LINE SMOOTH",
"47 500 OFFCURVE",
"40 493 OFFCURVE",
"40 485 CURVE SMOOTH",
"40 96 LINE SMOOTH",
"40 12 OFFCURVE",
"22 -35 OFFCURVE",
"-21 -70 CURVE SMOOTH",
"-29 -76 OFFCURVE",
"-28 -86 OFFCURVE",
"-23 -92 CURVE SMOOTH",
"64 -188 LINE SMOOTH",
"68 -193 OFFCURVE",
"75 -194 OFFCURVE",
"79 -191 CURVE SMOOTH"
);
}
);
width = 255;
}
);
leftKerningGroup = j;
rightKerningGroup = j;
unicode = 0237;
},
{
glyphname = k;
lastChange = "2022-11-08 22:11:58 +0000";
layers = (
{
anchors = (
{
name = bottom;
position = "{232, 0}";
},
{
name = top;
position = "{227, 478}";
}
);
layerId = "AC740033-F94D-4FA6-A763-4DA6F9230F00";
paths = (
{
closed = 1;
nodes = (
"103 0 LINE SMOOTH",
"105 0 OFFCURVE",
"106 1 OFFCURVE",
"106 3 CURVE SMOOTH",
"106 166 LINE",
"211 278 LINE",
"401 2 LINE",
"402 0 OFFCURVE",
"403 0 OFFCURVE",
"404 0 CURVE SMOOTH",
"417 0 LINE SMOOTH",
"419 0 OFFCURVE",
"420 2 OFFCURVE",
"419 4 CURVE",
"222 291 LINE",
"393 474 LINE SMOOTH",
"395 476 OFFCURVE",
"394 478 OFFCURVE",
"392 478 CURVE SMOOTH",
"377 478 LINE SMOOTH",
"376 478 OFFCURVE",
"374 477 OFFCURVE",
"373 476 CURVE SMOOTH",
"189 278 LINE SMOOTH",
"161 248 OFFCURVE",
"134 219 OFFCURVE",
"107 189 CURVE",
"106 189 LINE",
"106 237 OFFCURVE",
"106 283 OFFCURVE",
"106 331 CURVE SMOOTH",
"106 680 LINE SMOOTH",
"106 682 OFFCURVE",
"105 683 OFFCURVE",
"103 683 CURVE SMOOTH",
"93 683 LINE SMOOTH",
"91 683 OFFCURVE",
"90 682 OFFCURVE",
"90 680 CURVE SMOOTH",
"90 3 LINE SMOOTH",
"90 1 OFFCURVE",
"91 0 OFFCURVE",
"93 0 CURVE SMOOTH"
);
}
);
width = 443;
},
{
anchors = (
{
name = bottom;
position = "{244, 0}";
},
{
name = top;
position = "{236, 487}";
}
);
layerId = "2868C049-E6E5-4053-858B-0FFDC5626279";
paths = (
{
closed = 1;
nodes = (
"142 0 LINE SMOOTH",
"148 0 OFFCURVE",
"151 4 OFFCURVE",
"151 9 CURVE SMOOTH",
"151 168 LINE",
"220 240 LINE",
"361 6 LINE",
"363 3 OFFCURVE",
"367 0 OFFCURVE",
"372 0 CURVE SMOOTH",
"444 0 LINE SMOOTH",
"451 0 OFFCURVE",
"454 5 OFFCURVE",
"451 11 CURVE",
"277 302 LINE",
"435 476 LINE SMOOTH",
"440 482 OFFCURVE",
"438 487 OFFCURVE",
"431 487 CURVE SMOOTH",
"350 487 LINE SMOOTH",
"345 487 OFFCURVE",
"342 486 OFFCURVE",
"339 483 CURVE SMOOTH",
"222 351 LINE SMOOTH",
"197 323 OFFCURVE",
"174 296 OFFCURVE",
"151 267 CURVE",
"150 267 LINE",
"151 313 OFFCURVE",
"151 360 OFFCURVE",
"151 405 CURVE SMOOTH",
"151 674 LINE SMOOTH",
"151 679 OFFCURVE",
"148 683 OFFCURVE",
"142 683 CURVE SMOOTH",
"80 683 LINE SMOOTH",
"75 683 OFFCURVE",
"71 679 OFFCURVE",
"71 674 CURVE SMOOTH",
"71 9 LINE SMOOTH",
"71 4 OFFCURVE",
"75 0 OFFCURVE",
"80 0 CURVE SMOOTH"
);
}
);
width = 468;
},
{
anchors = (
{
name = bottom;
position = "{272, 0}";
},
{
name = top;
position = "{270, 499}";
}
);
layerId = "C3548BD9-1E85-4E1D-92F7-AFAA54E0B7ED";
paths = (
{
closed = 1;
nodes = (
"201 0 LINE SMOOTH",
"209 0 OFFCURVE",
"215 6 OFFCURVE",
"215 15 CURVE SMOOTH",
"215 116 LINE",
"246 156 LINE",
"337 9 LINE",
"340 3 OFFCURVE",
"346 0 OFFCURVE",
"354 0 CURVE SMOOTH",
"525 0 LINE SMOOTH",
"537 0 OFFCURVE",
"541 8 OFFCURVE",
"534 18 CURVE",
"366 274 LINE",
"522 482 LINE SMOOTH",
"530 492 OFFCURVE",
"526 500 OFFCURVE",
"514 500 CURVE SMOOTH",
"341 500 LINE SMOOTH",
"333 500 OFFCURVE",
"328 497 OFFCURVE",
"324 491 CURVE SMOOTH",
"272 412 LINE SMOOTH",
"252 382 OFFCURVE",
"231 346 OFFCURVE",
"213 311 CURVE",
"209 311 LINE",
"213 358 OFFCURVE",
"215 410 OFFCURVE",
"215 455 CURVE SMOOTH",
"215 668 LINE SMOOTH",
"215 677 OFFCURVE",
"209 683 OFFCURVE",
"200 683 CURVE SMOOTH",
"54 683 LINE SMOOTH",
"46 683 OFFCURVE",
"40 677 OFFCURVE",
"40 668 CURVE SMOOTH",
"40 15 LINE SMOOTH",
"40 6 OFFCURVE",
"46 0 OFFCURVE",
"54 0 CURVE SMOOTH"
);
}
);
width = 541;
}
);
leftKerningGroup = h;
leftMetricsKey = h;
rightKerningGroup = k;
unicode = 006B;
},
{
glyphname = kgreenlandic;
lastChange = "2022-11-08 22:11:58 +0000";
layers = (
{
anchors = (
{
name = bottom;
position = "{223, 0}";
},
{
name = top;
position = "{223, 478}";
}
);
layerId = "AC740033-F94D-4FA6-A763-4DA6F9230F00";
paths = (
{
closed = 1;
nodes = (
"103 0 LINE SMOOTH",
"105 0 OFFCURVE",
"106 1 OFFCURVE",
"106 3 CURVE SMOOTH",
"106 166 LINE",
"211 278 LINE",
"401 2 LINE",
"402 0 OFFCURVE",
"403 0 OFFCURVE",
"404 0 CURVE SMOOTH",
"417 0 LINE SMOOTH",
"419 0 OFFCURVE",
"420 2 OFFCURVE",
"419 4 CURVE",
"222 291 LINE",
"393 474 LINE SMOOTH",
"395 476 OFFCURVE",
"394 478 OFFCURVE",
"392 478 CURVE SMOOTH",
"377 478 LINE SMOOTH",
"376 478 OFFCURVE",
"374 477 OFFCURVE",
"373 476 CURVE SMOOTH",
"189 278 LINE SMOOTH",
"161 248 OFFCURVE",
"134 219 OFFCURVE",
"107 189 CURVE",
"106 189 LINE",
"106 237 OFFCURVE",
"106 283 OFFCURVE",
"106 331 CURVE SMOOTH",
"106 475 LINE SMOOTH",
"106 477 OFFCURVE",
"105 478 OFFCURVE",
"103 478 CURVE SMOOTH",
"93 478 LINE SMOOTH",
"91 478 OFFCURVE",
"90 477 OFFCURVE",
"90 475 CURVE SMOOTH",
"90 3 LINE SMOOTH",
"90 1 OFFCURVE",
"91 0 OFFCURVE",
"93 0 CURVE SMOOTH"
);
}
);
width = 443;
},
{
anchors = (
{
name = bottom;
position = "{235, 0}";
},
{
name = top;
position = "{234, 487}";
}
);
layerId = "2868C049-E6E5-4053-858B-0FFDC5626279";
paths = (
{
closed = 1;
nodes = (
"142 0 LINE SMOOTH",
"148 0 OFFCURVE",
"151 4 OFFCURVE",
"151 9 CURVE SMOOTH",
"151 168 LINE",
"220 241 LINE",
"361 6 LINE",
"363 3 OFFCURVE",
"367 0 OFFCURVE",
"372 0 CURVE SMOOTH",
"444 0 LINE SMOOTH",
"451 0 OFFCURVE",
"454 5 OFFCURVE",
"451 11 CURVE",
"277 302 LINE",
"435 476 LINE SMOOTH",
"440 482 OFFCURVE",
"438 487 OFFCURVE",
"431 487 CURVE SMOOTH",
"350 487 LINE SMOOTH",
"345 487 OFFCURVE",
"342 486 OFFCURVE",
"339 483 CURVE SMOOTH",
"222 351 LINE SMOOTH",
"197 323 OFFCURVE",
"174 295 OFFCURVE",
"151 267 CURVE",
"150 267 LINE",
"151 313 OFFCURVE",
"151 360 OFFCURVE",
"151 405 CURVE SMOOTH",
"151 478 LINE SMOOTH",
"151 484 OFFCURVE",
"148 487 OFFCURVE",
"142 487 CURVE SMOOTH",
"80 487 LINE SMOOTH",
"75 487 OFFCURVE",
"71 484 OFFCURVE",
"71 478 CURVE SMOOTH",
"71 9 LINE SMOOTH",
"71 4 OFFCURVE",
"75 0 OFFCURVE",
"80 0 CURVE SMOOTH"
);
}
);
width = 468;
},
{
anchors = (
{
name = bottom;
position = "{271, 0}";
},
{
name = top;
position = "{271, 500}";
}
);
layerId = "C3548BD9-1E85-4E1D-92F7-AFAA54E0B7ED";
paths = (
{
closed = 1;
nodes = (
"201 0 LINE SMOOTH",
"209 0 OFFCURVE",
"215 6 OFFCURVE",
"215 15 CURVE SMOOTH",
"215 116 LINE",
"246 156 LINE",
"337 9 LINE",
"340 3 OFFCURVE",
"346 0 OFFCURVE",
"354 0 CURVE SMOOTH",
"525 0 LINE SMOOTH",
"537 0 OFFCURVE",
"541 8 OFFCURVE",
"534 18 CURVE",
"366 274 LINE",
"522 482 LINE SMOOTH",
"530 492 OFFCURVE",
"526 500 OFFCURVE",
"514 500 CURVE SMOOTH",
"341 500 LINE SMOOTH",
"333 500 OFFCURVE",
"328 497 OFFCURVE",
"324 491 CURVE SMOOTH",
"272 412 LINE SMOOTH",
"252 382 OFFCURVE",
"231 346 OFFCURVE",
"213 311 CURVE",
"209 311 LINE",
"213 358 OFFCURVE",
"215 410 OFFCURVE",
"215 454 CURVE SMOOTH",
"215 485 LINE SMOOTH",
"215 494 OFFCURVE",
"209 500 OFFCURVE",
"200 500 CURVE SMOOTH",
"54 500 LINE SMOOTH",
"46 500 OFFCURVE",
"40 494 OFFCURVE",
"40 485 CURVE SMOOTH",
"40 15 LINE SMOOTH",
"40 6 OFFCURVE",
"46 0 OFFCURVE",
"54 0 CURVE SMOOTH"
);
}
);
width = 541;
}
);
leftKerningGroup = u;
leftMetricsKey = u;
rightKerningGroup = k;
rightMetricsKey = k;
unicode = 0138;
},
{
glyphname = l;
lastChange = "2022-11-09 20:08:32 +0000";
layers = (
{
anchors = (
{
name = bottom;
position = "{98, 0}";
},
{
name = center;
position = "{98, 239}";
},
{
name = top;
position = "{98, 683}";
},
{
name = topright;
position = "{175, 478}";
}
);
layerId = "AC740033-F94D-4FA6-A763-4DA6F9230F00";
paths = (
{
closed = 1;
nodes = (
"103 0 LINE SMOOTH",
"105 0 OFFCURVE",
"106 1 OFFCURVE",
"106 3 CURVE SMOOTH",
"106 680 LINE SMOOTH",
"106 682 OFFCURVE",
"105 683 OFFCURVE",
"103 683 CURVE SMOOTH",
"93 683 LINE SMOOTH",
"91 683 OFFCURVE",
"90 682 OFFCURVE",
"90 680 CURVE SMOOTH",
"90 3 LINE SMOOTH",
"90 1 OFFCURVE",
"91 0 OFFCURVE",
"93 0 CURVE SMOOTH"
);
}
);
width = 196;
},
{
anchors = (
{
name = bottom;
position = "{112, 0}";
},
{
name = center;
position = "{112, 244}";
},
{
name = top;
position = "{112, 683}";
},
{
name = topright;
position = "{203, 487}";
}
);
layerId = "2868C049-E6E5-4053-858B-0FFDC5626279";
paths = (
{
closed = 1;
nodes = (
"142 0 LINE SMOOTH",
"148 0 OFFCURVE",
"151 4 OFFCURVE",
"151 9 CURVE SMOOTH",
"151 674 LINE SMOOTH",
"151 679 OFFCURVE",
"148 683 OFFCURVE",
"142 683 CURVE SMOOTH",
"80 683 LINE SMOOTH",
"75 683 OFFCURVE",
"71 679 OFFCURVE",
"71 674 CURVE SMOOTH",
"71 9 LINE SMOOTH",
"71 4 OFFCURVE",
"75 0 OFFCURVE",
"80 0 CURVE SMOOTH"
);
}
);
width = 222;
},
{
anchors = (
{
name = bottom;
position = "{129, 0}";
},
{
name = center;
position = "{127, 250}";
},
{
name = top;
position = "{127, 683}";
},
{
name = topright;
position = "{235, 500}";
}
);
layerId = "C3548BD9-1E85-4E1D-92F7-AFAA54E0B7ED";
paths = (
{
closed = 1;
nodes = (
"201 0 LINE SMOOTH",
"209 0 OFFCURVE",
"215 6 OFFCURVE",
"215 15 CURVE SMOOTH",
"215 668 LINE SMOOTH",
"215 677 OFFCURVE",
"209 683 OFFCURVE",
"201 683 CURVE SMOOTH",
"54 683 LINE SMOOTH",
"46 683 OFFCURVE",
"40 677 OFFCURVE",
"40 668 CURVE SMOOTH",
"40 15 LINE SMOOTH",
"40 6 OFFCURVE",
"46 0 OFFCURVE",
"54 0 CURVE SMOOTH"
);
}
);
width = 255;
}
);
leftKerningGroup = h;
leftMetricsKey = h;
rightKerningGroup = l;
rightMetricsKey = "=|h";
unicode = 006C;
},
{
glyphname = lslash;
lastChange = "2022-11-08 22:11:58 +0000";
layers = (
{
components = (
{
alignment = -1;
name = l;
transform = "{1, 0, 0, 1, 1, 0}";
}
);
layerId = "AC740033-F94D-4FA6-A763-4DA6F9230F00";
paths = (
{
closed = 1;
nodes = (
"90 412 LINE",
"188 458 LINE SMOOTH",
"190 459 OFFCURVE",
"190 460 OFFCURVE",
"190 462 CURVE SMOOTH",
"190 474 LINE SMOOTH",
"190 477 OFFCURVE",
"188 476 OFFCURVE",
"187 475 CURVE SMOOTH",
"8 390 LINE SMOOTH",
"6 389 OFFCURVE",
"6 388 OFFCURVE",
"6 386 CURVE SMOOTH",
"6 374 LINE SMOOTH",
"6 371 OFFCURVE",
"8 372 OFFCURVE",
"10 373 CURVE SMOOTH"
);
}
);
width = 197;
},
{
components = (
{
alignment = -1;
name = l;
}
);
layerId = "2868C049-E6E5-4053-858B-0FFDC5626279";
paths = (
{
closed = 1;
nodes = (
"71 370 LINE",
"220 442 LINE SMOOTH",
"225 444 OFFCURVE",
"227 448 OFFCURVE",
"227 453 CURVE SMOOTH",
"227 506 LINE SMOOTH",
"227 512 OFFCURVE",
"223 515 OFFCURVE",
"217 512 CURVE SMOOTH",
"2 409 LINE SMOOTH",
"-2 407 OFFCURVE",
"-4 404 OFFCURVE",
"-4 399 CURVE SMOOTH",
"-4 345 LINE SMOOTH",
"-4 339 OFFCURVE",
"0 336 OFFCURVE",
"6 339 CURVE SMOOTH"
);
}
);
width = 223;
},
{
components = (
{
alignment = -1;
name = l;
transform = "{1, 0, 0, 1, 5, 0}";
}
);
layerId = "C3548BD9-1E85-4E1D-92F7-AFAA54E0B7ED";
paths = (
{
closed = 1;
nodes = (
"45 320 LINE",
"258 388 LINE SMOOTH",
"265 390 OFFCURVE",
"270 396 OFFCURVE",
"270 404 CURVE SMOOTH",
"270 492 LINE SMOOTH",
"270 501 OFFCURVE",
"263 507 OFFCURVE",
"254 504 CURVE SMOOTH",
"5 424 LINE SMOOTH",
"-3 422 OFFCURVE",
"-7 416 OFFCURVE",
"-7 408 CURVE SMOOTH",
"-7 320 LINE SMOOTH",
"-7 311 OFFCURVE",
"0 306 OFFCURVE",
"9 309 CURVE SMOOTH"
);
}
);
width = 263;
}
);
leftKerningGroup = lslash;
rightKerningGroup = lslash;
unicode = 0142;
},
{
glyphname = m;
lastChange = "2022-11-09 20:08:32 +0000";
layers = (
{
anchors = (
{
name = bottom;
position = "{396, 0}";
},
{
name = top;
position = "{396, 478}";
}
);
layerId = "AC740033-F94D-4FA6-A763-4DA6F9230F00";
paths = (
{
closed = 1;
nodes = (
"103 0 LINE SMOOTH",
"105 0 OFFCURVE",
"106 1 OFFCURVE",
"106 3 CURVE SMOOTH",
"106 353 LINE",
"176 431 OFFCURVE",
"235 473 OFFCURVE",
"290 473 CURVE SMOOTH",
"357 473 OFFCURVE",
"388 425 OFFCURVE",
"388 343 CURVE SMOOTH",
"388 3 LINE SMOOTH",
"388 1 OFFCURVE",
"389 0 OFFCURVE",
"391 0 CURVE SMOOTH",
"401 0 LINE SMOOTH",
"403 0 OFFCURVE",
"404 1 OFFCURVE",
"404 3 CURVE SMOOTH",
"404 353 LINE",
"474 431 OFFCURVE",
"533 473 OFFCURVE",
"588 473 CURVE SMOOTH",
"655 473 OFFCURVE",
"687 425 OFFCURVE",
"687 343 CURVE SMOOTH",
"687 3 LINE SMOOTH",
"687 1 OFFCURVE",
"688 0 OFFCURVE",
"690 0 CURVE SMOOTH",
"700 0 LINE SMOOTH",
"702 0 OFFCURVE",
"703 1 OFFCURVE",
"703 3 CURVE SMOOTH",
"703 345 LINE SMOOTH",
"703 436 OFFCURVE",
"665 489 OFFCURVE",
"590 489 CURVE SMOOTH",
"530 489 OFFCURVE",
"472 449 OFFCURVE",
"402 374 CURVE",
"396 447 OFFCURVE",
"358 489 OFFCURVE",
"292 489 CURVE SMOOTH",
"233 489 OFFCURVE",
"173 449 OFFCURVE",
"106 375 CURVE",
"105 411 OFFCURVE",
"104 442 OFFCURVE",
"101 475 CURVE",
"101 477 OFFCURVE",
"100 478 OFFCURVE",
"98 478 CURVE SMOOTH",
"88 478 LINE SMOOTH",
"86 478 OFFCURVE",
"85 477 OFFCURVE",
"85 475 CURVE",
"88 440 OFFCURVE",
"90 405 OFFCURVE",
"90 368 CURVE SMOOTH",
"90 3 LINE SMOOTH",
"90 1 OFFCURVE",
"91 0 OFFCURVE",
"93 0 CURVE SMOOTH"
);
}
);
width = 792;
},
{
anchors = (
{
name = bottom;
position = "{399, 0}";
},
{
name = top;
position = "{399, 487}";
}
);
layerId = "2868C049-E6E5-4053-858B-0FFDC5626279";
paths = (
{
closed = 1;
nodes = (
"142 0 LINE SMOOTH",
"148 0 OFFCURVE",
"151 4 OFFCURVE",
"151 9 CURVE SMOOTH",
"151 345 LINE",
"207 401 OFFCURVE",
"249 427 OFFCURVE",
"290 427 CURVE SMOOTH",
"337 427 OFFCURVE",
"359 396 OFFCURVE",
"359 335 CURVE SMOOTH",
"359 9 LINE SMOOTH",
"359 4 OFFCURVE",
"363 0 OFFCURVE",
"369 0 CURVE SMOOTH",
"430 0 LINE SMOOTH",
"436 0 OFFCURVE",
"439 4 OFFCURVE",
"439 9 CURVE SMOOTH",
"439 345 LINE",
"495 401 OFFCURVE",
"537 427 OFFCURVE",
"579 427 CURVE SMOOTH",
"626 427 OFFCURVE",
"648 396 OFFCURVE",
"648 335 CURVE SMOOTH",
"648 9 LINE SMOOTH",
"648 4 OFFCURVE",
"651 0 OFFCURVE",
"657 0 CURVE SMOOTH",
"719 0 LINE SMOOTH",
"724 0 OFFCURVE",
"728 4 OFFCURVE",
"728 9 CURVE SMOOTH",
"728 341 LINE SMOOTH",
"728 444 OFFCURVE",
"684 499 OFFCURVE",
"602 499 CURVE SMOOTH",
"541 499 OFFCURVE",
"492 469 OFFCURVE",
"432 407 CURVE",
"417 467 OFFCURVE",
"377 499 OFFCURVE",
"314 499 CURVE SMOOTH",
"254 499 OFFCURVE",
"205 470 OFFCURVE",
"148 411 CURVE",
"146 436 OFFCURVE",
"143 459 OFFCURVE",
"140 480 CURVE",
"139 486 OFFCURVE",
"137 487 OFFCURVE",
"131 487 CURVE SMOOTH",
"75 487 LINE SMOOTH",
"68 487 OFFCURVE",
"64 483 OFFCURVE",
"65 476 CURVE",
"70 445 OFFCURVE",
"71 405 OFFCURVE",
"71 366 CURVE SMOOTH",
"71 9 LINE SMOOTH",
"71 4 OFFCURVE",
"75 0 OFFCURVE",
"80 0 CURVE SMOOTH"
);
}
);
width = 800;
},
{
anchors = (
{
name = bottom;
position = "{397, 0}";
},
{
name = top;
position = "{397, 500}";
}
);
layerId = "C3548BD9-1E85-4E1D-92F7-AFAA54E0B7ED";
paths = (
{
closed = 1;
nodes = (
"200 0 LINE SMOOTH",
"209 0 OFFCURVE",
"215 6 OFFCURVE",
"215 15 CURVE SMOOTH",
"215 335 LINE",
"231 348 OFFCURVE",
"249 361 OFFCURVE",
"271 361 CURVE SMOOTH",
"300 361 OFFCURVE",
"310 345 OFFCURVE",
"310 311 CURVE SMOOTH",
"310 15 LINE SMOOTH",
"310 6 OFFCURVE",
"316 0 OFFCURVE",
"325 0 CURVE SMOOTH",
"471 0 LINE SMOOTH",
"480 0 OFFCURVE",
"485 6 OFFCURVE",
"485 15 CURVE SMOOTH",
"485 335 LINE",
"501 348 OFFCURVE",
"519 361 OFFCURVE",
"542 361 CURVE SMOOTH",
"571 361 OFFCURVE",
"581 345 OFFCURVE",
"581 311 CURVE SMOOTH",
"581 15 LINE SMOOTH",
"581 6 OFFCURVE",
"587 0 OFFCURVE",
"595 0 CURVE SMOOTH",
"742 0 LINE SMOOTH",
"750 0 OFFCURVE",
"756 6 OFFCURVE",
"756 15 CURVE SMOOTH",
"756 353 LINE SMOOTH",
"756 463 OFFCURVE",
"712 511 OFFCURVE",
"622 511 CURVE SMOOTH",
"555 511 OFFCURVE",
"504 472 OFFCURVE",
"468 436 CURVE",
"451 487 OFFCURVE",
"420 511 OFFCURVE",
"352 511 CURVE SMOOTH",
"279 511 OFFCURVE",
"234 469 OFFCURVE",
"197 429 CURVE",
"195 450 OFFCURVE",
"192 473 OFFCURVE",
"189 488 CURVE",
"187 497 OFFCURVE",
"182 500 OFFCURVE",
"174 500 CURVE SMOOTH",
"49 500 LINE SMOOTH",
"39 500 OFFCURVE",
"34 494 OFFCURVE",
"35 484 CURVE",
"38 449 OFFCURVE",
"40 412 OFFCURVE",
"40 369 CURVE SMOOTH",
"40 15 LINE SMOOTH",
"40 6 OFFCURVE",
"46 0 OFFCURVE",
"54 0 CURVE SMOOTH"
);
}
);
width = 796;
}
);
leftKerningGroup = n;
leftMetricsKey = n;
rightKerningGroup = n;
rightMetricsKey = n;
unicode = 006D;
},
{
glyphname = n;
lastChange = "2022-11-08 22:11:58 +0000";
layers = (
{
anchors = (
{
name = apo;
position = "{10, 488}";
},
{
name = bottom;
position = "{263, 0}";
},
{
name = top;
position = "{263, 478}";
}
);
layerId = "AC740033-F94D-4FA6-A763-4DA6F9230F00";
paths = (
{
closed = 1;
nodes = (
"432 0 LINE SMOOTH",
"434 0 OFFCURVE",
"435 1 OFFCURVE",
"435 3 CURVE SMOOTH",
"435 332 LINE SMOOTH",
"435 442 OFFCURVE",
"391 489 OFFCURVE",
"309 489 CURVE SMOOTH",
"238 489 OFFCURVE",
"169 444 OFFCURVE",
"102 370 CURVE",
"102 349 LINE",
"167 422 OFFCURVE",
"235 473 OFFCURVE",
"308 473 CURVE SMOOTH",
"383 473 OFFCURVE",
"419 427 OFFCURVE",
"419 330 CURVE SMOOTH",
"419 3 LINE SMOOTH",
"419 1 OFFCURVE",
"420 0 OFFCURVE",
"422 0 CURVE SMOOTH"
);
},
{
closed = 1;
nodes = (
"103 0 LINE SMOOTH",
"105 0 OFFCURVE",
"106 1 OFFCURVE",
"106 3 CURVE SMOOTH",
"106 363 LINE",
"106 370 LINE",
"106 405 OFFCURVE",
"104 442 OFFCURVE",
"101 475 CURVE SMOOTH",
"101 477 OFFCURVE",
"100 478 OFFCURVE",
"98 478 CURVE SMOOTH",
"88 478 LINE SMOOTH",
"86 478 OFFCURVE",
"85 477 OFFCURVE",
"85 475 CURVE SMOOTH",
"88 440 OFFCURVE",
"90 403 OFFCURVE",
"90 368 CURVE SMOOTH",
"90 3 LINE SMOOTH",
"90 1 OFFCURVE",
"91 0 OFFCURVE",
"93 0 CURVE SMOOTH"
);
}
);
width = 524;
},
{
anchors = (
{
name = apo;
position = "{8, 489}";
},
{
name = bottom;
position = "{270.002, 0}";
},
{
name = top;
position = "{267, 487}";
}
);
layerId = "2868C049-E6E5-4053-858B-0FFDC5626279";
paths = (
{
closed = 1;
nodes = (
"447 0 LINE SMOOTH",
"453 0 OFFCURVE",
"456 4 OFFCURVE",
"456 9 CURVE SMOOTH",
"456 338 LINE SMOOTH",
"456 445 OFFCURVE",
"409 499 OFFCURVE",
"319 499 CURVE SMOOTH",
"253 499 OFFCURVE",
"199 467 OFFCURVE",
"135 399 CURVE",
"137 332 LINE",
"204 399 OFFCURVE",
"248 427 OFFCURVE",
"298 427 CURVE SMOOTH",
"351 427 OFFCURVE",
"376 398 OFFCURVE",
"376 333 CURVE SMOOTH",
"376 9 LINE SMOOTH",
"376 4 OFFCURVE",
"380 0 OFFCURVE",
"385 0 CURVE SMOOTH"
);
},
{
closed = 1;
nodes = (
"142 0 LINE SMOOTH",
"148 0 OFFCURVE",
"151 4 OFFCURVE",
"151 9 CURVE SMOOTH",
"151 362 LINE",
"150 385 LINE",
"149 412 OFFCURVE",
"145 458 OFFCURVE",
"141 478 CURVE SMOOTH",
"139 486 OFFCURVE",
"137 487 OFFCURVE",
"131 487 CURVE SMOOTH",
"74 487 LINE SMOOTH",
"67 487 OFFCURVE",
"64 483 OFFCURVE",
"65 476 CURVE SMOOTH",
"68 450 OFFCURVE",
"71 403 OFFCURVE",
"71 366 CURVE SMOOTH",
"71 9 LINE SMOOTH",
"71 4 OFFCURVE",
"75 0 OFFCURVE",
"80 0 CURVE SMOOTH"
);
}
);
width = 528;
},
{
anchors = (
{
name = apo;
position = "{-36, 499}";
},
{
name = bottom;
position = "{276, 0}";
},
{
name = top;
position = "{268, 500}";
}
);
layerId = "C3548BD9-1E85-4E1D-92F7-AFAA54E0B7ED";
paths = (
{
closed = 1;
nodes = (
"485 0 LINE SMOOTH",
"494 0 OFFCURVE",
"499 6 OFFCURVE",
"499 15 CURVE SMOOTH",
"499 353 LINE SMOOTH",
"499 463 OFFCURVE",
"455 511 OFFCURVE",
"366 511 CURVE SMOOTH",
"279 511 OFFCURVE",
"222 458 OFFCURVE",
"182 413 CURVE",
"199 316 LINE",
"219 338 OFFCURVE",
"251 361 OFFCURVE",
"283 361 CURVE SMOOTH",
"313 361 OFFCURVE",
"324 345 OFFCURVE",
"324 311 CURVE SMOOTH",
"324 15 LINE SMOOTH",
"324 6 OFFCURVE",
"330 0 OFFCURVE",
"339 0 CURVE SMOOTH"
);
},
{
closed = 1;
nodes = (
"200 0 LINE SMOOTH",
"209 0 OFFCURVE",
"215 6 OFFCURVE",
"215 15 CURVE SMOOTH",
"215 349 LINE",
"198 411 LINE",
"197 438 OFFCURVE",
"193 467 OFFCURVE",
"189 488 CURVE SMOOTH",
"187 497 OFFCURVE",
"182 500 OFFCURVE",
"174 500 CURVE SMOOTH",
"49 500 LINE SMOOTH",
"39 500 OFFCURVE",
"34 494 OFFCURVE",
"35 484 CURVE SMOOTH",
"38 449 OFFCURVE",
"40 412 OFFCURVE",
"40 369 CURVE SMOOTH",
"40 15 LINE SMOOTH",
"40 6 OFFCURVE",
"46 0 OFFCURVE",
"55 0 CURVE SMOOTH"
);
}
);
width = 539;
}
);
leftKerningGroup = n;
rightKerningGroup = n;
unicode = 006E;
},
{
glyphname = eng;
lastChange = "2022-11-08 22:11:58 +0000";
layers = (
{
layerId = "AC740033-F94D-4FA6-A763-4DA6F9230F00";
paths = (
{
closed = 1;
nodes = (
"411 -105 OFFCURVE",
"435 -59 OFFCURVE",
"435 37 CURVE SMOOTH",
"435 332 LINE SMOOTH",
"435 442 OFFCURVE",
"391 489 OFFCURVE",
"309 489 CURVE SMOOTH",
"239 489 OFFCURVE",
"171 446 OFFCURVE",
"106 374 CURVE",
"105 409 OFFCURVE",
"103 444 OFFCURVE",
"101 475 CURVE",
"101 477 OFFCURVE",
"100 478 OFFCURVE",
"98 478 CURVE SMOOTH",
"88 478 LINE SMOOTH",
"86 478 OFFCURVE",
"85 477 OFFCURVE",
"85 475 CURVE",
"88 440 OFFCURVE",
"90 403 OFFCURVE",
"90 368 CURVE SMOOTH",
"90 3 LINE SMOOTH",
"90 1 OFFCURVE",
"91 0 OFFCURVE",
"93 0 CURVE SMOOTH",
"103 0 LINE SMOOTH",
"105 0 OFFCURVE",
"106 1 OFFCURVE",
"106 3 CURVE SMOOTH",
"106 353 LINE",
"170 425 OFFCURVE",
"236 473 OFFCURVE",
"308 473 CURVE SMOOTH",
"383 473 OFFCURVE",
"419 429 OFFCURVE",
"419 330 CURVE SMOOTH",
"419 37 LINE SMOOTH",
"419 -55 OFFCURVE",
"396 -96 OFFCURVE",
"336 -155 CURVE SMOOTH",
"335 -156 OFFCURVE",
"335 -158 OFFCURVE",
"336 -159 CURVE",
"343 -169 LINE",
"344 -170 OFFCURVE",
"346 -170 OFFCURVE",
"347 -169 CURVE SMOOTH"
);
}
);
width = 524;
},
{
layerId = "2868C049-E6E5-4053-858B-0FFDC5626279";
paths = (
{
closed = 1;
nodes = (
"422 -138 OFFCURVE",
"456 -62 OFFCURVE",
"456 58 CURVE SMOOTH",
"456 338 LINE SMOOTH",
"456 445 OFFCURVE",
"409 499 OFFCURVE",
"319 499 CURVE SMOOTH",
"257 499 OFFCURVE",
"206 471 OFFCURVE",
"148 412 CURVE",
"146 437 OFFCURVE",
"144 463 OFFCURVE",
"141 478 CURVE",
"139 486 OFFCURVE",
"137 487 OFFCURVE",
"131 487 CURVE SMOOTH",
"74 487 LINE SMOOTH",
"67 487 OFFCURVE",
"64 483 OFFCURVE",
"65 476 CURVE",
"68 450 OFFCURVE",
"71 403 OFFCURVE",
"71 366 CURVE SMOOTH",
"71 9 LINE SMOOTH",
"71 4 OFFCURVE",
"75 0 OFFCURVE",
"80 0 CURVE SMOOTH",
"142 0 LINE SMOOTH",
"148 0 OFFCURVE",
"151 4 OFFCURVE",
"151 9 CURVE SMOOTH",
"151 345 LINE",
"210 403 OFFCURVE",
"251 427 OFFCURVE",
"298 427 CURVE SMOOTH",
"351 427 OFFCURVE",
"376 398 OFFCURVE",
"376 333 CURVE SMOOTH",
"376 62 LINE SMOOTH",
"376 -31 OFFCURVE",
"350 -86 OFFCURVE",
"299 -125 CURVE SMOOTH",
"294 -129 OFFCURVE",
"293 -133 OFFCURVE",
"297 -138 CURVE",
"334 -184 LINE",
"337 -189 OFFCURVE",
"342 -190 OFFCURVE",
"346 -187 CURVE SMOOTH"
);
}
);
width = 528;
},
{
layerId = "C3548BD9-1E85-4E1D-92F7-AFAA54E0B7ED";
paths = (
{
closed = 1;
nodes = (
"468 -126 OFFCURVE",
"499 -47 OFFCURVE",
"499 98 CURVE SMOOTH",
"499 353 LINE SMOOTH",
"499 463 OFFCURVE",
"455 511 OFFCURVE",
"366 511 CURVE SMOOTH",
"290 511 OFFCURVE",
"237 470 OFFCURVE",
"197 429 CURVE",
"195 450 OFFCURVE",
"192 471 OFFCURVE",
"189 488 CURVE",
"187 497 OFFCURVE",
"182 500 OFFCURVE",
"174 500 CURVE SMOOTH",
"49 500 LINE SMOOTH",
"39 500 OFFCURVE",
"34 494 OFFCURVE",
"35 484 CURVE",
"38 449 OFFCURVE",
"40 412 OFFCURVE",
"40 369 CURVE SMOOTH",
"40 15 LINE SMOOTH",
"40 6 OFFCURVE",
"46 0 OFFCURVE",
"55 0 CURVE SMOOTH",
"200 0 LINE SMOOTH",
"209 0 OFFCURVE",
"215 6 OFFCURVE",
"215 15 CURVE SMOOTH",
"215 332 LINE",
"235 348 OFFCURVE",
"259 361 OFFCURVE",
"283 361 CURVE SMOOTH",
"313 361 OFFCURVE",
"324 345 OFFCURVE",
"324 311 CURVE SMOOTH",
"324 96 LINE SMOOTH",
"324 12 OFFCURVE",
"306 -36 OFFCURVE",
"263 -70 CURVE SMOOTH",
"256 -76 OFFCURVE",
"256 -86 OFFCURVE",
"262 -92 CURVE",
"348 -188 LINE",
"352 -193 OFFCURVE",
"359 -194 OFFCURVE",
"364 -191 CURVE SMOOTH"
);
}
);
width = 539;
}
);
leftKerningGroup = n;
leftMetricsKey = n;
rightKerningGroup = n;
rightMetricsKey = n;
unicode = 014B;
},
{
glyphname = o;
lastChange = "2022-11-08 22:11:58 +0000";
layers = (
{
anchors = (
{
name = bottom;
position = "{244, 0}";
},
{
name = center;
position = "{244, 239}";
},
{
name = ogonek;
position = "{445, 10}";
},
{
name = top;
position = "{244, 478}";
},
{
name = topright;
position = "{477, 478}";
}
);
layerId = "AC740033-F94D-4FA6-A763-4DA6F9230F00";
paths = (
{
closed = 1;
nodes = (
"353 -11 OFFCURVE",
"419 51 OFFCURVE",
"419 158 CURVE SMOOTH",
"419 320 LINE SMOOTH",
"419 428 OFFCURVE",
"354 489 OFFCURVE",
"244 489 CURVE SMOOTH",
"136 489 OFFCURVE",
"70 426 OFFCURVE",
"70 320 CURVE SMOOTH",
"70 158 LINE SMOOTH",
"70 50 OFFCURVE",
"135 -11 OFFCURVE",
"244 -11 CURVE SMOOTH"
);
},
{
closed = 1;
nodes = (
"145 5 OFFCURVE",
"86 61 OFFCURVE",
"86 162 CURVE SMOOTH",
"86 316 LINE SMOOTH",
"86 417 OFFCURVE",
"145 473 OFFCURVE",
"244 473 CURVE SMOOTH",
"344 473 OFFCURVE",
"403 417 OFFCURVE",
"403 316 CURVE SMOOTH",
"403 162 LINE SMOOTH",
"403 61 OFFCURVE",
"344 5 OFFCURVE",
"244 5 CURVE SMOOTH"
);
}
);
width = 489;
},
{
anchors = (
{
name = bottom;
position = "{254, 25}";
},
{
name = center;
position = "{254, 218}";
},
{
name = ogonek;
position = "{456, 10}";
},
{
name = top;
position = "{254, 487}";
},
{
name = topright;
position = "{489, 487}";
}
);
layerId = "2868C049-E6E5-4053-858B-0FFDC5626279";
paths = (
{
closed = 1;
nodes = (
"382 -11 OFFCURVE",
"449 53 OFFCURVE",
"449 180 CURVE SMOOTH",
"449 308 LINE SMOOTH",
"449 435 OFFCURVE",
"380 499 OFFCURVE",
"254 499 CURVE SMOOTH",
"126 499 OFFCURVE",
"59 435 OFFCURVE",
"59 308 CURVE SMOOTH",
"59 180 LINE SMOOTH",
"59 53 OFFCURVE",
"127 -11 OFFCURVE",
"254 -11 CURVE SMOOTH"
);
},
{
closed = 1;
nodes = (
"174 60 OFFCURVE",
"138 101 OFFCURVE",
"138 186 CURVE SMOOTH",
"138 301 LINE SMOOTH",
"138 386 OFFCURVE",
"174 427 OFFCURVE",
"254 427 CURVE SMOOTH",
"333 427 OFFCURVE",
"369 386 OFFCURVE",
"369 301 CURVE SMOOTH",
"369 186 LINE SMOOTH",
"369 101 OFFCURVE",
"333 60 OFFCURVE",
"254 60 CURVE SMOOTH"
);
}
);
width = 508;
},
{
anchors = (
{
name = bottom;
position = "{267, 68}";
},
{
name = center;
position = "{267, 182}";
},
{
name = ogonek;
position = "{478, 10}";
},
{
name = top;
position = "{267, 500}";
},
{
name = topright;
position = "{512, 499}";
}
);
layerId = "C3548BD9-1E85-4E1D-92F7-AFAA54E0B7ED";
paths = (
{
closed = 1;
nodes = (
"415 -11 OFFCURVE",
"504 60 OFFCURVE",
"504 199 CURVE SMOOTH",
"504 302 LINE SMOOTH",
"504 439 OFFCURVE",
"414 511 OFFCURVE",
"267 511 CURVE SMOOTH",
"120 511 OFFCURVE",
"30 439 OFFCURVE",
"30 302 CURVE SMOOTH",
"30 199 LINE SMOOTH",
"30 60 OFFCURVE",
"120 -11 OFFCURVE",
"267 -11 CURVE SMOOTH"
);
},
{
closed = 1;
nodes = (
"225 136 OFFCURVE",
"205 156 OFFCURVE",
"205 212 CURVE SMOOTH",
"205 288 LINE SMOOTH",
"205 344 OFFCURVE",
"225 364 OFFCURVE",
"267 364 CURVE SMOOTH",
"309 364 OFFCURVE",
"329 344 OFFCURVE",
"329 288 CURVE SMOOTH",
"329 212 LINE SMOOTH",
"329 156 OFFCURVE",
"309 136 OFFCURVE",
"267 136 CURVE SMOOTH"
);
}
);
width = 534;
}
);
leftKerningGroup = o;
rightKerningGroup = o;
unicode = 006F;
},
{
glyphname = oslash;
lastChange = "2022-11-08 22:11:58 +0000";
layers = (
{
anchors = (
{
name = top;
position = "{236, 478}";
}
);
components = (
{
alignment = -1;
name = o;
}
);
layerId = "AC740033-F94D-4FA6-A763-4DA6F9230F00";
paths = (
{
closed = 1;
nodes = (
"41 -51 LINE SMOOTH",
"43 -51 OFFCURVE",
"43 -51 OFFCURVE",
"44 -49 CURVE SMOOTH",
"112 45 LINE",
"116 51 LINE",
"379 421 LINE",
"383 427 LINE",
"460 534 LINE SMOOTH",
"461 536 OFFCURVE",
"460 538 OFFCURVE",
"458 538 CURVE SMOOTH",
"447 538 LINE SMOOTH",
"446 538 OFFCURVE",
"445 538 OFFCURVE",
"444 536 CURVE SMOOTH",
"372 436 LINE",
"369 431 LINE",
"105 62 LINE",
"102 57 LINE",
"28 -47 LINE SMOOTH",
"27 -49 OFFCURVE",
"28 -51 OFFCURVE",
"30 -51 CURVE SMOOTH"
);
}
);
width = 489;
},
{
anchors = (
{
name = top;
position = "{254, 487}";
}
);
components = (
{
alignment = -1;
name = o;
}
);
layerId = "2868C049-E6E5-4053-858B-0FFDC5626279";
paths = (
{
closed = 1;
nodes = (
"76 -51 LINE SMOOTH",
"81 -51 OFFCURVE",
"85 -49 OFFCURVE",
"88 -45 CURVE SMOOTH",
"144 34 LINE",
"167 69 LINE",
"383 373 LINE",
"413 413 LINE",
"496 528 LINE SMOOTH",
"500 533 OFFCURVE",
"497 539 OFFCURVE",
"490 539 CURVE SMOOTH",
"431 539 LINE SMOOTH",
"427 539 OFFCURVE",
"423 537 OFFCURVE",
"420 533 CURVE SMOOTH",
"365 456 LINE",
"343 422 LINE",
"118 107 LINE",
"100 84 LINE",
"12 -40 LINE SMOOTH",
"8 -46 OFFCURVE",
"10 -51 OFFCURVE",
"17 -51 CURVE SMOOTH"
);
}
);
width = 508;
},
{
anchors = (
{
name = top;
position = "{268, 500}";
}
);
components = (
{
alignment = -1;
name = o;
}
);
layerId = "C3548BD9-1E85-4E1D-92F7-AFAA54E0B7ED";
paths = (
{
closed = 1;
nodes = (
"155 -52 LINE SMOOTH",
"163 -52 OFFCURVE",
"169 -49 OFFCURVE",
"173 -42 CURVE SMOOTH",
"209 17 LINE",
"237 124 LINE",
"354 345 LINE",
"438 416 LINE",
"510 533 LINE SMOOTH",
"515 543 OFFCURVE",
"511 550 OFFCURVE",
"500 550 CURVE SMOOTH",
"380 550 LINE SMOOTH",
"372 550 OFFCURVE",
"367 548 OFFCURVE",
"363 541 CURVE SMOOTH",
"333 491 LINE",
"302 382 LINE",
"192 174 LINE",
"98 85 LINE",
"26 -34 LINE SMOOTH",
"20 -44 OFFCURVE",
"24 -52 OFFCURVE",
"35 -52 CURVE SMOOTH"
);
}
);
width = 534;
}
);
leftKerningGroup = o;
rightKerningGroup = o;
unicode = 00F8;
},
{
glyphname = oe;
lastChange = "2022-11-08 22:11:58 +0000";
layers = (
{
layerId = "AC740033-F94D-4FA6-A763-4DA6F9230F00";
paths = (
{
closed = 1;
nodes = (
"320 -11 OFFCURVE",
"379 26 OFFCURVE",
"399 101 CURVE",
"415 26 OFFCURVE",
"475 -12 OFFCURVE",
"564 -11 CURVE SMOOTH",
"666 -10 OFFCURVE",
"718 38 OFFCURVE",
"718 119 CURVE SMOOTH",
"718 121 OFFCURVE",
"717 122 OFFCURVE",
"715 122 CURVE SMOOTH",
"705 122 LINE SMOOTH",
"703 122 OFFCURVE",
"702 121 OFFCURVE",
"702 119 CURVE SMOOTH",
"702 48 OFFCURVE",
"655 5 OFFCURVE",
"564 5 CURVE SMOOTH",
"460 5 OFFCURVE",
"407 58 OFFCURVE",
"407 161 CURVE SMOOTH",
"407 248 LINE",
"724 248 LINE SMOOTH",
"726 248 OFFCURVE",
"727 249 OFFCURVE",
"727 251 CURVE SMOOTH",
"727 311 LINE SMOOTH",
"727 428 OFFCURVE",
"669 489 OFFCURVE",
"559 489 CURVE SMOOTH",
"473 489 OFFCURVE",
"418 451 OFFCURVE",
"399 374 CURVE",
"383 450 OFFCURVE",
"322 489 OFFCURVE",
"239 489 CURVE SMOOTH",
"136 489 OFFCURVE",
"70 426 OFFCURVE",
"70 320 CURVE SMOOTH",
"70 158 LINE SMOOTH",
"70 50 OFFCURVE",
"135 -11 OFFCURVE",
"239 -11 CURVE SMOOTH"
);
},
{
closed = 1;
nodes = (
"145 5 OFFCURVE",
"86 61 OFFCURVE",
"86 162 CURVE SMOOTH",
"86 316 LINE SMOOTH",
"86 417 OFFCURVE",
"145 473 OFFCURVE",
"239 473 CURVE SMOOTH",
"332 473 OFFCURVE",
"391 417 OFFCURVE",
"391 316 CURVE SMOOTH",
"391 162 LINE SMOOTH",
"391 61 OFFCURVE",
"332 5 OFFCURVE",
"239 5 CURVE SMOOTH"
);
},
{
closed = 1;
nodes = (
"407 311 LINE SMOOTH",
"407 416 OFFCURVE",
"459 473 OFFCURVE",
"559 473 CURVE SMOOTH",
"660 473 OFFCURVE",
"711 416 OFFCURVE",
"711 311 CURVE SMOOTH",
"711 264 LINE",
"407 264 LINE"
);
}
);
width = 795;
},
{
layerId = "2868C049-E6E5-4053-858B-0FFDC5626279";
paths = (
{
closed = 1;
nodes = (
"317 -11 OFFCURVE",
"364 11 OFFCURVE",
"398 67 CURVE",
"431 11 OFFCURVE",
"478 -11 OFFCURVE",
"552 -11 CURVE SMOOTH",
"662 -11 OFFCURVE",
"729 39 OFFCURVE",
"729 125 CURVE SMOOTH",
"729 132 OFFCURVE",
"726 135 OFFCURVE",
"720 135 CURVE SMOOTH",
"659 135 LINE SMOOTH",
"653 135 OFFCURVE",
"649 132 OFFCURVE",
"649 122 CURVE SMOOTH",
"650 83 OFFCURVE",
"615 59 OFFCURVE",
"554 59 CURVE SMOOTH",
"475 59 OFFCURVE",
"440 96 OFFCURVE",
"440 183 CURVE SMOOTH",
"440 226 LINE",
"729 226 LINE SMOOTH",
"734 226 OFFCURVE",
"738 229 OFFCURVE",
"738 235 CURVE SMOOTH",
"738 313 LINE SMOOTH",
"738 433 OFFCURVE",
"673 499 OFFCURVE",
"558 499 CURVE SMOOTH",
"486 499 OFFCURVE",
"430 472 OFFCURVE",
"401 419 CURVE",
"374 472 OFFCURVE",
"320 499 OFFCURVE",
"246 499 CURVE SMOOTH",
"125 499 OFFCURVE",
"59 432 OFFCURVE",
"59 311 CURVE SMOOTH",
"59 177 LINE SMOOTH",
"59 55 OFFCURVE",
"125 -11 OFFCURVE",
"247 -11 CURVE SMOOTH"
);
},
{
closed = 1;
nodes = (
"176 60 OFFCURVE",
"138 101 OFFCURVE",
"138 183 CURVE SMOOTH",
"138 304 LINE SMOOTH",
"138 387 OFFCURVE",
"176 427 OFFCURVE",
"249 427 CURVE SMOOTH",
"323 427 OFFCURVE",
"360 387 OFFCURVE",
"360 304 CURVE SMOOTH",
"360 183 LINE SMOOTH",
"360 101 OFFCURVE",
"323 60 OFFCURVE",
"249 60 CURVE SMOOTH"
);
},
{
closed = 1;
nodes = (
"440 306 LINE SMOOTH",
"440 387 OFFCURVE",
"477 429 OFFCURVE",
"550 429 CURVE SMOOTH",
"623 429 OFFCURVE",
"658 389 OFFCURVE",
"658 307 CURVE SMOOTH",
"658 292 LINE",
"440 292 LINE"
);
}
);
width = 795;
},
{
layerId = "C3548BD9-1E85-4E1D-92F7-AFAA54E0B7ED";
paths = (
{
closed = 1;
nodes = (
"325 -11 OFFCURVE",
"370 2 OFFCURVE",
"408 41 CURVE",
"446 2 OFFCURVE",
"498 -11 OFFCURVE",
"567 -11 CURVE SMOOTH",
"719 -11 OFFCURVE",
"786 38 OFFCURVE",
"786 151 CURVE SMOOTH",
"786 161 OFFCURVE",
"782 165 OFFCURVE",
"772 165 CURVE SMOOTH",
"633 165 LINE SMOOTH",
"624 165 OFFCURVE",
"618 162 OFFCURVE",
"618 153 CURVE SMOOTH",
"618 127 OFFCURVE",
"596 116 OFFCURVE",
"561 116 CURVE SMOOTH",
"518 116 OFFCURVE",
"501 137 OFFCURVE",
"501 176 CURVE SMOOTH",
"501 210 LINE",
"782 210 LINE SMOOTH",
"791 210 OFFCURVE",
"797 216 OFFCURVE",
"797 225 CURVE SMOOTH",
"797 305 LINE SMOOTH",
"797 443 OFFCURVE",
"720 511 OFFCURVE",
"570 511 CURVE SMOOTH",
"505 511 OFFCURVE",
"448 491 OFFCURVE",
"410 456 CURVE",
"373 496 OFFCURVE",
"324 511 OFFCURVE",
"256 511 CURVE SMOOTH",
"120 511 OFFCURVE",
"30 435 OFFCURVE",
"30 300 CURVE SMOOTH",
"30 200 LINE SMOOTH",
"30 66 OFFCURVE",
"120 -11 OFFCURVE",
"257 -11 CURVE SMOOTH"
);
},
{
closed = 1;
nodes = (
"225 136 OFFCURVE",
"205 156 OFFCURVE",
"205 212 CURVE SMOOTH",
"205 288 LINE SMOOTH",
"205 344 OFFCURVE",
"225 364 OFFCURVE",
"267 364 CURVE SMOOTH",
"309 364 OFFCURVE",
"329 344 OFFCURVE",
"329 288 CURVE SMOOTH",
"329 212 LINE SMOOTH",
"329 156 OFFCURVE",
"309 136 OFFCURVE",
"267 136 CURVE SMOOTH"
);
},
{
closed = 1;
nodes = (
"501 312 LINE SMOOTH",
"501 362 OFFCURVE",
"518 383 OFFCURVE",
"565 383 CURVE SMOOTH",
"609 383 OFFCURVE",
"626 363 OFFCURVE",
"626 312 CURVE SMOOTH",
"626 301 LINE",
"501 301 LINE"
);
}
);
width = 827;
}
);
leftKerningGroup = o;
leftMetricsKey = o;
rightKerningGroup = e;
rightMetricsKey = e;
unicode = 0153;
},
